DavidHadashUpright-Light_draw_a.ufo
<glyph name="quotedbl" format="1">
  <advance width="563"/>
  <unicode hex="0022"/>
  <outline>
    <contour>
      <point x="155" y="275" type="curve" smooth="yes"/>
      <point x="145" y="275"/>
      <point x="142" y="284"/>
      <point x="140" y="292" type="curve" smooth="yes"/>
      <point x="133" y="324"/>
      <point x="112" y="436"/>
      <point x="106" y="519" type="curve" smooth="yes"/>
      <point x="104" y="539"/>
      <point x="104" y="560"/>
      <point x="104" y="584" type="curve" smooth="yes"/>
      <point x="104" y="599"/>
      <point x="107" y="616"/>
      <point x="122" y="616" type="curve" smooth="yes"/>
      <point x="188" y="616" type="line" smooth="yes"/>
      <point x="203" y="616"/>
      <point x="206" y="599"/>
      <point x="206" y="584" type="curve" smooth="yes"/>
      <point x="206" y="560"/>
      <point x="206" y="539"/>
      <point x="204" y="519" type="curve" smooth="yes"/>
      <point x="198" y="436"/>
      <point x="177" y="324"/>
      <point x="170" y="292" type="curve" smooth="yes"/>
      <point x="168" y="284"/>
      <point x="165" y="275"/>
    </contour>
    <contour>
      <point x="408" y="275" type="curve" smooth="yes"/>
      <point x="398" y="275"/>
      <point x="395" y="284"/>
      <point x="393" y="292" type="curve" smooth="yes"/>
      <point x="386" y="324"/>
      <point x="365" y="436"/>
      <point x="359" y="519" type="curve" smooth="yes"/>
      <point x="357" y="539"/>
      <point x="357" y="560"/>
      <point x="357" y="584" type="curve" smooth="yes"/>
      <point x="357" y="599"/>
      <point x="360" y="616"/>
      <point x="375" y="616" type="curve" smooth="yes"/>
      <point x="441" y="616" type="line" smooth="yes"/>
      <point x="456" y="616"/>
      <point x="459" y="599"/>
      <point x="459" y="584" type="curve" smooth="yes"/>
      <point x="459" y="560"/>
      <point x="459" y="539"/>
      <point x="457" y="519" type="curve" smooth="yes"/>
      <point x="451" y="436"/>
      <point x="430" y="324"/>
      <point x="423" y="292" type="curve" smooth="yes"/>
      <point x="421" y="284"/>
      <point x="418" y="275"/>
    </contour>
  </outline>
</glyph>
<glyph name="numbersign" format="1">
  <advance width="568"/>
  <unicode hex="0023"/>
  <outline>
    <contour>
      <point x="408" y="690" type="curve" smooth="yes"/>
      <point x="410" y="702"/>
      <point x="413" y="712"/>
      <point x="422" y="718" type="curve" smooth="yes"/>
      <point x="448" y="736" type="line"/>
      <point x="455" y="740"/>
      <point x="461" y="745"/>
      <point x="466" y="745" type="curve" smooth="yes"/>
      <point x="470" y="745"/>
      <point x="473" y="743"/>
      <point x="473" y="737" type="curve" smooth="yes"/>
      <point x="473" y="728"/>
      <point x="466" y="706"/>
      <point x="462" y="689" type="curve" smooth="yes"/>
      <point x="428" y="540"/>
      <point x="424" y="526"/>
      <point x="424" y="525" type="curve" smooth="yes"/>
      <point x="424" y="522"/>
      <point x="426" y="521"/>
      <point x="429" y="521" type="curve" smooth="yes"/>
      <point x="544" y="521" type="line" smooth="yes"/>
      <point x="555" y="521"/>
      <point x="559" y="517"/>
      <point x="559" y="511" type="curve" smooth="yes"/>
      <point x="559" y="507"/>
      <point x="557" y="503"/>
      <point x="554" y="498" type="curve" smooth="yes"/>
      <point x="539" y="474"/>
      <point x="523" y="456"/>
      <point x="508" y="438" type="curve" smooth="yes"/>
      <point x="504" y="433"/>
      <point x="496" y="430"/>
      <point x="483" y="430" type="curve" smooth="yes"/>
      <point x="411" y="430" type="line" smooth="yes"/>
      <point x="403" y="430"/>
      <point x="401" y="428"/>
      <point x="400" y="422" type="curve" smooth="yes"/>
      <point x="369" y="274" type="line" smooth="yes"/>
      <point x="369" y="271"/>
      <point x="370" y="269"/>
      <point x="374" y="269" type="curve" smooth="yes"/>
      <point x="482" y="269" type="line" smooth="yes"/>
      <point x="493" y="269"/>
      <point x="497" y="265"/>
      <point x="497" y="259" type="curve" smooth="yes"/>
      <point x="497" y="255"/>
      <point x="495" y="251"/>
      <point x="492" y="246" type="curve" smooth="yes"/>
      <point x="477" y="222"/>
      <point x="461" y="204"/>
      <point x="446" y="186" type="curve" smooth="yes"/>
      <point x="442" y="181"/>
      <point x="434" y="178"/>
      <point x="421" y="178" type="curve" smooth="yes"/>
      <point x="355" y="178" type="line" smooth="yes"/>
      <point x="347" y="178"/>
      <point x="347" y="173"/>
      <point x="346" y="171" type="curve" smooth="yes"/>
      <point x="335" y="117"/>
      <point x="326" y="64"/>
      <point x="316" y="16" type="curve" smooth="yes"/>
      <point x="313" y="1"/>
      <point x="308" y="-13"/>
      <point x="302" y="-21" type="curve"/>
      <point x="302" y="-21"/>
      <point x="284" y="-41"/>
      <point x="273" y="-53" type="curve" smooth="yes"/>
      <point x="266" y="-60"/>
      <point x="260" y="-66"/>
      <point x="257" y="-66" type="curve" smooth="yes"/>
      <point x="250" y="-66"/>
      <point x="246" y="-62"/>
      <point x="246" y="-56" type="curve" smooth="yes"/>
      <point x="246" y="-52"/>
      <point x="252" y="-29"/>
      <point x="256" y="-16" type="curve" smooth="yes"/>
      <point x="271" y="40"/>
      <point x="305" y="170"/>
      <point x="305" y="174" type="curve" smooth="yes"/>
      <point x="305" y="176"/>
      <point x="304" y="178"/>
      <point x="299" y="178" type="curve" smooth="yes"/>
      <point x="177" y="178" type="line" smooth="yes"/>
      <point x="171" y="178"/>
      <point x="169" y="175"/>
      <point x="168" y="170" type="curve" smooth="yes"/>
      <point x="135" y="16" type="line" smooth="yes"/>
      <point x="132" y="1"/>
      <point x="127" y="-13"/>
      <point x="121" y="-21" type="curve"/>
      <point x="121" y="-21"/>
      <point x="103" y="-41"/>
      <point x="92" y="-53" type="curve" smooth="yes"/>
      <point x="85" y="-60"/>
      <point x="79" y="-66"/>
      <point x="76" y="-66" type="curve" smooth="yes"/>
      <point x="69" y="-66"/>
      <point x="65" y="-62"/>
      <point x="65" y="-56" type="curve" smooth="yes"/>
      <point x="65" y="-52"/>
      <point x="71" y="-29"/>
      <point x="75" y="-16" type="curve" smooth="yes"/>
      <point x="93" y="44"/>
      <point x="110" y="105"/>
      <point x="125" y="171" type="curve" smooth="yes"/>
      <point x="125" y="174"/>
      <point x="124" y="178"/>
      <point x="119" y="178" type="curve" smooth="yes"/>
      <point x="10" y="178" type="line" smooth="yes"/>
      <point x="-1" y="178"/>
      <point x="-5" y="182"/>
      <point x="-5" y="187" type="curve" smooth="yes"/>
      <point x="-5" y="190"/>
      <point x="-4" y="193"/>
      <point x="-3" y="195" type="curve" smooth="yes"/>
      <point x="13" y="221"/>
      <point x="38" y="250"/>
      <point x="49" y="261" type="curve" smooth="yes"/>
      <point x="57" y="268"/>
      <point x="64" y="269"/>
      <point x="70" y="269" type="curve" smooth="yes"/>
      <point x="142" y="269" type="line" smooth="yes"/>
      <point x="149" y="269"/>
      <point x="150" y="273"/>
      <point x="150" y="275" type="curve" smooth="yes"/>
      <point x="161" y="323"/>
      <point x="171" y="373"/>
      <point x="181" y="424" type="curve" smooth="yes"/>
      <point x="181" y="427"/>
      <point x="179" y="430"/>
      <point x="176" y="430" type="curve" smooth="yes"/>
      <point x="72" y="430" type="line" smooth="yes"/>
      <point x="61" y="430"/>
      <point x="57" y="434"/>
      <point x="57" y="439" type="curve" smooth="yes"/>
      <point x="57" y="442"/>
      <point x="58" y="445"/>
      <point x="59" y="447" type="curve" smooth="yes"/>
      <point x="75" y="473"/>
      <point x="100" y="502"/>
      <point x="111" y="513" type="curve" smooth="yes"/>
      <point x="119" y="520"/>
      <point x="126" y="521"/>
      <point x="132" y="521" type="curve" smooth="yes"/>
      <point x="193" y="521" type="line" smooth="yes"/>
      <point x="198" y="521"/>
      <point x="201" y="524"/>
      <point x="202" y="529" type="curve" smooth="yes"/>
      <point x="231" y="690" type="line" smooth="yes"/>
      <point x="233" y="702"/>
      <point x="236" y="712"/>
      <point x="245" y="718" type="curve" smooth="yes"/>
      <point x="271" y="736" type="line"/>
      <point x="278" y="740"/>
      <point x="284" y="745"/>
      <point x="289" y="745" type="curve" smooth="yes"/>
      <point x="293" y="745"/>
      <point x="296" y="743"/>
      <point x="296" y="737" type="curve" smooth="yes"/>
      <point x="296" y="728"/>
      <point x="289" y="706"/>
      <point x="285" y="689" type="curve" smooth="yes"/>
      <point x="250" y="541"/>
      <point x="247" y="525"/>
      <point x="247" y="525" type="curve" smooth="yes"/>
      <point x="247" y="522"/>
      <point x="251" y="521"/>
      <point x="254" y="521" type="curve" smooth="yes"/>
      <point x="371" y="521" type="line" smooth="yes"/>
      <point x="376" y="521"/>
      <point x="379" y="526"/>
      <point x="380" y="529" type="curve" smooth="yes"/>
      <point x="390" y="583"/>
      <point x="399" y="638"/>
    </contour>
    <contour>
      <point x="191" y="273" type="line"/>
      <point x="191" y="270"/>
      <point x="193" y="269"/>
      <point x="198" y="269" type="curve" smooth="yes"/>
      <point x="317" y="269" type="line" smooth="yes"/>
      <point x="325" y="269"/>
      <point x="328" y="273"/>
      <point x="328" y="276" type="curve" smooth="yes"/>
      <point x="328" y="277"/>
      <point x="359" y="419"/>
      <point x="359" y="425" type="curve" smooth="yes"/>
      <point x="359" y="427"/>
      <point x="357" y="430"/>
      <point x="352" y="430" type="curve" smooth="yes"/>
      <point x="233" y="430" type="line" smooth="yes"/>
      <point x="229" y="430"/>
      <point x="225" y="427"/>
      <point x="224" y="422" type="curve" smooth="yes"/>
    </contour>
  </outline>
</glyph>
<glyph name="dollar" format="1">
  <advance width="567"/>
  <unicode hex="0024"/>
  <outline>
    <contour>
      <point x="105" y="97" type="curve" smooth="yes"/>
      <point x="107" y="99"/>
      <point x="110" y="101"/>
      <point x="112" y="101" type="curve" smooth="yes"/>
      <point x="116" y="101"/>
      <point x="120" y="100"/>
      <point x="126" y="98" type="curve" smooth="yes"/>
      <point x="153" y="89"/>
      <point x="210" y="73"/>
      <point x="236" y="73" type="curve" smooth="yes"/>
      <point x="240" y="73"/>
      <point x="244" y="75"/>
      <point x="244" y="84" type="curve" smooth="yes"/>
      <point x="244" y="154"/>
      <point x="245" y="233"/>
      <point x="245" y="303" type="curve" smooth="yes"/>
      <point x="245" y="307"/>
      <point x="243" y="310"/>
      <point x="239" y="312" type="curve" smooth="yes"/>
      <point x="215" y="323"/>
      <point x="142" y="361"/>
      <point x="109" y="387" type="curve" smooth="yes"/>
      <point x="86" y="404"/>
      <point x="67" y="432"/>
      <point x="67" y="480" type="curve" smooth="yes"/>
      <point x="67" y="521"/>
      <point x="78" y="559"/>
      <point x="107" y="598" type="curve" smooth="yes"/>
      <point x="137" y="639"/>
      <point x="157" y="667"/>
      <point x="225" y="691" type="curve" smooth="yes"/>
      <point x="231" y="693"/>
      <point x="234" y="695"/>
      <point x="234" y="701" type="curve" smooth="yes"/>
      <point x="234" y="721" type="line" smooth="yes"/>
      <point x="234" y="727"/>
      <point x="235" y="734"/>
      <point x="239" y="740" type="curve" smooth="yes"/>
      <point x="247" y="753"/>
      <point x="254" y="763"/>
      <point x="267" y="778" type="curve" smooth="yes"/>
      <point x="269" y="780"/>
      <point x="270" y="781"/>
      <point x="272" y="781" type="curve" smooth="yes"/>
      <point x="279" y="781"/>
      <point x="280" y="777"/>
      <point x="280" y="765" type="curve" smooth="yes"/>
      <point x="280" y="750"/>
      <point x="281" y="728"/>
      <point x="281" y="708" type="curve" smooth="yes"/>
      <point x="281" y="706"/>
      <point x="282" y="705"/>
      <point x="286" y="705" type="curve" smooth="yes"/>
      <point x="349" y="705"/>
      <point x="394" y="697"/>
      <point x="444" y="679" type="curve" smooth="yes"/>
      <point x="448" y="677"/>
      <point x="450" y="672"/>
      <point x="450" y="669" type="curve" smooth="yes"/>
      <point x="450" y="667"/>
      <point x="449" y="663"/>
      <point x="446" y="658" type="curve" smooth="yes"/>
      <point x="435" y="639"/>
      <point x="408" y="604"/>
      <point x="398" y="594" type="curve" smooth="yes"/>
      <point x="394" y="590"/>
      <point x="389" y="588"/>
      <point x="385" y="588" type="curve" smooth="yes"/>
      <point x="382" y="588"/>
      <point x="378" y="589"/>
      <point x="375" y="590" type="curve" smooth="yes"/>
      <point x="346" y="600"/>
      <point x="322" y="612"/>
      <point x="290" y="612" type="curve" smooth="yes"/>
      <point x="286" y="612"/>
      <point x="281" y="608"/>
      <point x="281" y="603" type="curve" smooth="yes"/>
      <point x="281" y="418" type="line"/>
      <point x="281" y="412"/>
      <point x="284" y="406"/>
      <point x="291" y="402" type="curve" smooth="yes"/>
      <point x="317" y="387"/>
      <point x="343" y="373"/>
      <point x="377" y="356" type="curve" smooth="yes"/>
      <point x="436" y="327"/>
      <point x="480" y="287"/>
      <point x="480" y="220" type="curve" smooth="yes"/>
      <point x="480" y="160"/>
      <point x="407" y="40"/>
      <point x="297" y="-8" type="curve" smooth="yes"/>
      <point x="290" y="-11"/>
      <point x="288" y="-11"/>
      <point x="288" y="-17" type="curve" smooth="yes"/>
      <point x="288" y="-54"/>
      <point x="290" y="-96"/>
      <point x="290" y="-134" type="curve" smooth="yes"/>
      <point x="290" y="-147"/>
      <point x="289" y="-151"/>
      <point x="285" y="-159" type="curve" smooth="yes"/>
      <point x="279" y="-173"/>
      <point x="264" y="-193"/>
      <point x="256" y="-203" type="curve" smooth="yes"/>
      <point x="253" y="-206"/>
      <point x="250" y="-207"/>
      <point x="247" y="-207" type="curve" smooth="yes"/>
      <point x="240" y="-207"/>
      <point x="239" y="-199"/>
      <point x="239" y="-194" type="curve" smooth="yes"/>
      <point x="239" y="-141"/>
      <point x="243" y="-83"/>
      <point x="243" y="-29" type="curve" smooth="yes"/>
      <point x="243" y="-20"/>
      <point x="242" y="-17"/>
      <point x="232" y="-17" type="curve" smooth="yes"/>
      <point x="189" y="-17"/>
      <point x="93" y="-9"/>
      <point x="55" y="12" type="curve" smooth="yes"/>
      <point x="50" y="15"/>
      <point x="48" y="18"/>
      <point x="48" y="22" type="curve" smooth="yes"/>
      <point x="48" y="26"/>
      <point x="51" y="30"/>
      <point x="53" y="34" type="curve" smooth="yes"/>
      <point x="67" y="55"/>
      <point x="91" y="82"/>
    </contour>
    <contour>
      <point x="232" y="433" type="curve" smooth="yes"/>
      <point x="233" y="432"/>
      <point x="234" y="432"/>
      <point x="235" y="432" type="curve" smooth="yes"/>
      <point x="238" y="432"/>
      <point x="241" y="435"/>
      <point x="241" y="440" type="curve"/>
      <point x="241" y="464"/>
      <point x="237" y="567"/>
      <point x="237" y="599" type="curve" smooth="yes"/>
      <point x="237" y="608"/>
      <point x="234" y="612"/>
      <point x="227" y="612" type="curve" smooth="yes"/>
      <point x="176" y="612"/>
      <point x="136" y="578"/>
      <point x="136" y="533" type="curve" smooth="yes"/>
      <point x="136" y="474"/>
      <point x="192" y="454"/>
    </contour>
    <contour>
      <point x="295" y="71" type="curve" smooth="yes"/>
      <point x="311" y="71"/>
      <point x="342" y="78"/>
      <point x="360" y="94" type="curve" smooth="yes"/>
      <point x="375" y="108"/>
      <point x="391" y="135"/>
      <point x="391" y="163" type="curve" smooth="yes"/>
      <point x="391" y="199"/>
      <point x="376" y="227"/>
      <point x="359" y="240" type="curve" smooth="yes"/>
      <point x="344" y="251"/>
      <point x="310" y="273"/>
      <point x="292" y="282" type="curve" smooth="yes"/>
      <point x="291" y="283"/>
      <point x="290" y="283"/>
      <point x="289" y="283" type="curve" smooth="yes"/>
      <point x="286" y="283"/>
      <point x="283" y="281"/>
      <point x="283" y="277" type="curve" smooth="yes"/>
      <point x="283" y="247"/>
      <point x="286" y="109"/>
      <point x="286" y="81" type="curve" smooth="yes"/>
      <point x="286" y="73"/>
      <point x="290" y="71"/>
    </contour>
  </outline>
</glyph>
<glyph name="percent" format="1">
  <advance width="567"/>
  <unicode hex="0025"/>
  <outline>
    <contour>
      <point x="64" y="530" type="curve" smooth="yes"/>
      <point x="64" y="583"/>
      <point x="79" y="608"/>
      <point x="87" y="621" type="curve" smooth="yes"/>
      <point x="102" y="646"/>
      <point x="146" y="695"/>
      <point x="180" y="715" type="curve" smooth="yes"/>
      <point x="191" y="721"/>
      <point x="205" y="726"/>
      <point x="222" y="726" type="curve" smooth="yes"/>
      <point x="240" y="726"/>
      <point x="251" y="721"/>
      <point x="263" y="713" type="curve" smooth="yes"/>
      <point x="305" y="683"/>
      <point x="317" y="639"/>
      <point x="317" y="586" type="curve" smooth="yes"/>
      <point x="317" y="539"/>
      <point x="295" y="484"/>
      <point x="280" y="456" type="curve" smooth="yes"/>
      <point x="265" y="428"/>
      <point x="229" y="372"/>
      <point x="174" y="372" type="curve" smooth="yes"/>
      <point x="139" y="372"/>
      <point x="108" y="395"/>
      <point x="94" y="417" type="curve" smooth="yes"/>
      <point x="83" y="434"/>
      <point x="64" y="464"/>
    </contour>
    <contour>
      <point x="243" y="327" type="curve" smooth="yes"/>
      <point x="331" y="473"/>
      <point x="410" y="627"/>
      <point x="426" y="664" type="curve" smooth="yes"/>
      <point x="431" y="676"/>
      <point x="435" y="682"/>
      <point x="445" y="689" type="curve" smooth="yes"/>
      <point x="465" y="703"/>
      <point x="476" y="710"/>
      <point x="491" y="719" type="curve" smooth="yes"/>
      <point x="496" y="722"/>
      <point x="502" y="723"/>
      <point x="505" y="723" type="curve" smooth="yes"/>
      <point x="509" y="723"/>
      <point x="511" y="721"/>
      <point x="511" y="717" type="curve" smooth="yes"/>
      <point x="511" y="712"/>
      <point x="509" y="707"/>
      <point x="507" y="701" type="curve" smooth="yes"/>
      <point x="497" y="672"/>
      <point x="330" y="386"/>
      <point x="307" y="348" type="curve" smooth="yes"/>
      <point x="279" y="301"/>
      <point x="184" y="142"/>
      <point x="155" y="75" type="curve" smooth="yes"/>
      <point x="144" y="48"/>
      <point x="138" y="36"/>
      <point x="129" y="29" type="curve" smooth="yes"/>
      <point x="113" y="16"/>
      <point x="94" y="5"/>
      <point x="83" y="1" type="curve" smooth="yes"/>
      <point x="81" y="0"/>
      <point x="78" y="0"/>
      <point x="76" y="0" type="curve" smooth="yes"/>
      <point x="69" y="0"/>
      <point x="65" y="3"/>
      <point x="65" y="10" type="curve" smooth="yes"/>
      <point x="65" y="13"/>
      <point x="66" y="16"/>
      <point x="68" y="20" type="curve" smooth="yes"/>
      <point x="102" y="84"/>
      <point x="165" y="195"/>
    </contour>
    <contour>
      <point x="247" y="529" type="curve" smooth="yes"/>
      <point x="247" y="559"/>
      <point x="241" y="601"/>
      <point x="236" y="612" type="curve" smooth="yes"/>
      <point x="222" y="641"/>
      <point x="199" y="649"/>
      <point x="176" y="649" type="curve" smooth="yes"/>
      <point x="143" y="649"/>
      <point x="132" y="603"/>
      <point x="132" y="559" type="curve" smooth="yes"/>
      <point x="132" y="507"/>
      <point x="151" y="455"/>
      <point x="196" y="455" type="curve" smooth="yes"/>
      <point x="234" y="455"/>
      <point x="247" y="477"/>
    </contour>
    <contour>
      <point x="258" y="160" type="curve" smooth="yes"/>
      <point x="259" y="210"/>
      <point x="275" y="236"/>
      <point x="283" y="248" type="curve" smooth="yes"/>
      <point x="301" y="274"/>
      <point x="338" y="318"/>
      <point x="376" y="340" type="curve" smooth="yes"/>
      <point x="387" y="346"/>
      <point x="400" y="352"/>
      <point x="417" y="352" type="curve" smooth="yes"/>
      <point x="430" y="352"/>
      <point x="444" y="348"/>
      <point x="462" y="336" type="curve" smooth="yes"/>
      <point x="500" y="310"/>
      <point x="512" y="256"/>
      <point x="512" y="212" type="curve" smooth="yes"/>
      <point x="512" y="165"/>
      <point x="490" y="110"/>
      <point x="475" y="82" type="curve" smooth="yes"/>
      <point x="460" y="54"/>
      <point x="424" y="-2"/>
      <point x="369" y="-2" type="curve" smooth="yes"/>
      <point x="333" y="-2"/>
      <point x="304" y="21"/>
      <point x="289" y="43" type="curve" smooth="yes"/>
      <point x="280" y="56"/>
      <point x="258" y="87"/>
    </contour>
    <contour>
      <point x="443" y="155" type="curve" smooth="yes"/>
      <point x="443" y="185"/>
      <point x="436" y="226"/>
      <point x="431" y="237" type="curve" smooth="yes"/>
      <point x="418" y="266"/>
      <point x="393" y="275"/>
      <point x="370" y="275" type="curve" smooth="yes"/>
      <point x="338" y="275"/>
      <point x="327" y="229"/>
      <point x="327" y="181" type="curve" smooth="yes"/>
      <point x="327" y="130"/>
      <point x="347" y="81"/>
      <point x="390" y="81" type="curve" smooth="yes"/>
      <point x="429" y="81"/>
      <point x="443" y="103"/>
    </contour>
  </outline>
</glyph>
<glyph name="quotesingle" format="1">
  <advance width="310"/>
  <unicode hex="0027"/>
  <outline>
    <contour>
      <point x="155" y="275" type="curve" smooth="yes"/>
      <point x="145" y="275"/>
      <point x="142" y="284"/>
      <point x="140" y="292" type="curve" smooth="yes"/>
      <point x="133" y="324"/>
      <point x="112" y="436"/>
      <point x="106" y="519" type="curve" smooth="yes"/>
      <point x="104" y="539"/>
      <point x="104" y="560"/>
      <point x="104" y="584" type="curve" smooth="yes"/>
      <point x="104" y="599"/>
      <point x="107" y="616"/>
      <point x="122" y="616" type="curve" smooth="yes"/>
      <point x="188" y="616" type="line" smooth="yes"/>
      <point x="203" y="616"/>
      <point x="206" y="599"/>
      <point x="206" y="584" type="curve" smooth="yes"/>
      <point x="206" y="560"/>
      <point x="206" y="539"/>
      <point x="204" y="519" type="curve" smooth="yes"/>
      <point x="198" y="436"/>
      <point x="177" y="324"/>
      <point x="170" y="292" type="curve" smooth="yes"/>
      <point x="168" y="284"/>
      <point x="165" y="275"/>
    </contour>
  </outline>
</glyph>
<glyph name="parenleft" format="1">
  <advance width="408"/>
  <unicode hex="0028"/>
  <outline>
    <contour>
      <point x="177" y="299" type="curve" smooth="yes"/>
      <point x="177" y="245"/>
      <point x="190" y="162"/>
      <point x="215" y="98" type="curve" smooth="yes"/>
      <point x="242" y="27"/>
      <point x="277" y="-26"/>
      <point x="308" y="-71" type="curve" smooth="yes"/>
      <point x="312" y="-77"/>
      <point x="315" y="-82"/>
      <point x="315" y="-89" type="curve" smooth="yes"/>
      <point x="315" y="-92"/>
      <point x="315" y="-96"/>
      <point x="313" y="-100" type="curve" smooth="yes"/>
      <point x="300" y="-127"/>
      <point x="285" y="-152"/>
      <point x="274" y="-167" type="curve" smooth="yes"/>
      <point x="271" y="-171"/>
      <point x="267" y="-173"/>
      <point x="264" y="-173" type="curve" smooth="yes"/>
      <point x="260" y="-173"/>
      <point x="257" y="-171"/>
      <point x="254" y="-167" type="curve" smooth="yes"/>
      <point x="221" y="-123"/>
      <point x="172" y="-54"/>
      <point x="138" y="29" type="curve" smooth="yes"/>
      <point x="108" y="102"/>
      <point x="94" y="195"/>
      <point x="94" y="250" type="curve" smooth="yes"/>
      <point x="94" y="347"/>
      <point x="126" y="415"/>
      <point x="153" y="472" type="curve" smooth="yes"/>
      <point x="170" y="507"/>
      <point x="216" y="587"/>
      <point x="224" y="600" type="curve" smooth="yes"/>
      <point x="233" y="615"/>
      <point x="240" y="629"/>
      <point x="253" y="645" type="curve" smooth="yes"/>
      <point x="256" y="649"/>
      <point x="284" y="678"/>
      <point x="304" y="694" type="curve" smooth="yes"/>
      <point x="307" y="696"/>
      <point x="312" y="698"/>
      <point x="314" y="698" type="curve" smooth="yes"/>
      <point x="319" y="698"/>
      <point x="321" y="695"/>
      <point x="321" y="689" type="curve" smooth="yes"/>
      <point x="321" y="684"/>
      <point x="244" y="541"/>
      <point x="237" y="525" type="curve" smooth="yes"/>
      <point x="202" y="449"/>
      <point x="177" y="373"/>
    </contour>
  </outline>
</glyph>
<glyph name="parenright" format="1">
  <advance width="408"/>
  <unicode hex="0029"/>
  <outline>
    <contour>
      <point x="238" y="226" type="curve" smooth="yes"/>
      <point x="238" y="280"/>
      <point x="225" y="363"/>
      <point x="200" y="427" type="curve" smooth="yes"/>
      <point x="173" y="498"/>
      <point x="138" y="551"/>
      <point x="107" y="596" type="curve" smooth="yes"/>
      <point x="103" y="602"/>
      <point x="100" y="607"/>
      <point x="100" y="614" type="curve" smooth="yes"/>
      <point x="100" y="617"/>
      <point x="100" y="621"/>
      <point x="102" y="625" type="curve" smooth="yes"/>
      <point x="115" y="652"/>
      <point x="130" y="677"/>
      <point x="141" y="692" type="curve" smooth="yes"/>
      <point x="144" y="696"/>
      <point x="148" y="698"/>
      <point x="151" y="698" type="curve" smooth="yes"/>
      <point x="155" y="698"/>
      <point x="158" y="696"/>
      <point x="161" y="692" type="curve" smooth="yes"/>
      <point x="194" y="648"/>
      <point x="243" y="579"/>
      <point x="277" y="496" type="curve" smooth="yes"/>
      <point x="307" y="423"/>
      <point x="321" y="330"/>
      <point x="321" y="275" type="curve" smooth="yes"/>
      <point x="321" y="178"/>
      <point x="291" y="107"/>
      <point x="262" y="51" type="curve" smooth="yes"/>
      <point x="244" y="16"/>
      <point x="201" y="-62"/>
      <point x="193" y="-75" type="curve" smooth="yes"/>
      <point x="184" y="-90"/>
      <point x="175" y="-104"/>
      <point x="162" y="-120" type="curve" smooth="yes"/>
      <point x="159" y="-124"/>
      <point x="131" y="-153"/>
      <point x="111" y="-169" type="curve" smooth="yes"/>
      <point x="108" y="-171"/>
      <point x="103" y="-173"/>
      <point x="101" y="-173" type="curve" smooth="yes"/>
      <point x="96" y="-173"/>
      <point x="94" y="-170"/>
      <point x="94" y="-164" type="curve" smooth="yes"/>
      <point x="94" y="-159"/>
      <point x="171" y="-16"/>
      <point x="178" y="0" type="curve" smooth="yes"/>
      <point x="213" y="76"/>
      <point x="238" y="152"/>
    </contour>
  </outline>
</glyph>
<glyph name="plus" format="1">
  <advance width="568"/>
  <unicode hex="002B"/>
  <outline>
    <contour>
      <point x="245" y="111" type="curve"/>
      <point x="245" y="98"/>
      <point x="251" y="95"/>
      <point x="261" y="95" type="curve" smooth="yes"/>
      <point x="304" y="95" type="line" smooth="yes"/>
      <point x="313" y="95"/>
      <point x="319" y="98"/>
      <point x="319" y="111" type="curve" smooth="yes"/>
      <point x="319" y="111"/>
      <point x="317" y="211"/>
      <point x="316" y="282" type="curve"/>
      <point x="370" y="281"/>
      <point x="486" y="279"/>
      <point x="486" y="279" type="curve"/>
      <point x="499" y="279"/>
      <point x="502" y="285"/>
      <point x="502" y="294" type="curve" smooth="yes"/>
      <point x="502" y="337" type="line" smooth="yes"/>
      <point x="502" y="351"/>
      <point x="497" y="353"/>
      <point x="488" y="353" type="curve" smooth="yes"/>
      <point x="488" y="353"/>
      <point x="378" y="350"/>
      <point x="316" y="350" type="curve"/>
      <point x="316" y="406"/>
      <point x="319" y="515"/>
      <point x="319" y="515" type="curve"/>
      <point x="319" y="528"/>
      <point x="313" y="531"/>
      <point x="304" y="531" type="curve" smooth="yes"/>
      <point x="261" y="531" type="line" smooth="yes"/>
      <point x="247" y="531"/>
      <point x="245" y="523"/>
      <point x="245" y="517" type="curve" smooth="yes"/>
      <point x="245" y="517"/>
      <point x="247" y="413"/>
      <point x="248" y="350" type="curve"/>
      <point x="176" y="351"/>
      <point x="82" y="353"/>
      <point x="82" y="353" type="curve"/>
      <point x="69" y="353"/>
      <point x="66" y="347"/>
      <point x="66" y="337" type="curve" smooth="yes"/>
      <point x="66" y="294" type="line" smooth="yes"/>
      <point x="66" y="285"/>
      <point x="69" y="279"/>
      <point x="82" y="279" type="curve" smooth="yes"/>
      <point x="82" y="279"/>
      <point x="178" y="281"/>
      <point x="248" y="282" type="curve"/>
      <point x="247" y="209"/>
      <point x="245" y="111"/>
    </contour>
  </outline>
</glyph>
<glyph name="hyphen" format="1">
  <advance width="407"/>
  <unicode hex="002D"/>
  <outline>
    <contour>
      <point x="97" y="545" type="curve" smooth="yes"/>
      <point x="106" y="553"/>
      <point x="113" y="553"/>
      <point x="120" y="553" type="curve"/>
      <point x="355" y="553" type="line"/>
      <point x="366" y="553"/>
      <point x="370" y="549"/>
      <point x="370" y="543" type="curve" smooth="yes"/>
      <point x="370" y="539"/>
      <point x="367" y="533"/>
      <point x="364" y="529" type="curve" smooth="yes"/>
      <point x="349" y="506"/>
      <point x="335" y="485"/>
      <point x="319" y="467" type="curve" smooth="yes"/>
      <point x="312" y="459"/>
      <point x="305" y="459"/>
      <point x="294" y="459" type="curve" smooth="yes"/>
      <point x="58" y="459" type="line"/>
      <point x="47" y="459"/>
      <point x="43" y="463"/>
      <point x="43" y="468" type="curve" smooth="yes"/>
      <point x="43" y="471"/>
      <point x="44" y="474"/>
      <point x="45" y="476" type="curve" smooth="yes"/>
      <point x="61" y="502"/>
      <point x="86" y="534"/>
    </contour>
  </outline>
</glyph>
<glyph name="one" format="1">
  <advance width="568"/>
  <unicode hex="0031"/>
  <outline>
    <contour>
      <point x="54" y="16" type="curve" smooth="yes"/>
      <point x="70" y="43"/>
      <point x="81" y="60"/>
      <point x="95" y="80" type="curve" smooth="yes"/>
      <point x="100" y="88"/>
      <point x="105" y="93"/>
      <point x="122" y="93" type="curve" smooth="yes"/>
      <point x="209" y="93" type="line" smooth="yes"/>
      <point x="229" y="93"/>
      <point x="246" y="109"/>
      <point x="247" y="137" type="curve" smooth="yes"/>
      <point x="247" y="159"/>
      <point x="248" y="182"/>
      <point x="248" y="205" type="curve" smooth="yes"/>
      <point x="248" y="304"/>
      <point x="244" y="411"/>
      <point x="235" y="495" type="curve" smooth="yes"/>
      <point x="230" y="542"/>
      <point x="212" y="571"/>
      <point x="173" y="571" type="curve" smooth="yes"/>
      <point x="131" y="571" type="line" smooth="yes"/>
      <point x="121" y="571"/>
      <point x="106" y="573"/>
      <point x="106" y="586" type="curve" smooth="yes"/>
      <point x="106" y="589"/>
      <point x="107" y="593"/>
      <point x="110" y="596" type="curve" smooth="yes"/>
      <point x="147" y="629"/>
      <point x="231" y="685"/>
      <point x="287" y="714" type="curve" smooth="yes"/>
      <point x="292" y="717"/>
      <point x="297" y="718"/>
      <point x="302" y="718" type="curve" smooth="yes"/>
      <point x="313" y="718"/>
      <point x="322" y="711"/>
      <point x="324" y="697" type="curve" smooth="yes"/>
      <point x="332" y="641"/>
      <point x="335" y="508"/>
      <point x="335" y="504" type="curve" smooth="yes"/>
      <point x="335" y="460"/>
      <point x="341" y="175"/>
      <point x="341" y="127" type="curve" smooth="yes"/>
      <point x="341" y="106"/>
      <point x="348" y="93"/>
      <point x="371" y="93" type="curve" smooth="yes"/>
      <point x="482" y="93" type="line" smooth="yes"/>
      <point x="487" y="93"/>
      <point x="493" y="88"/>
      <point x="493" y="82" type="curve" smooth="yes"/>
      <point x="493" y="79"/>
      <point x="491" y="76"/>
      <point x="489" y="73" type="curve" smooth="yes"/>
      <point x="475" y="51"/>
      <point x="462" y="37"/>
      <point x="441" y="12" type="curve" smooth="yes"/>
      <point x="430" y="-1"/>
      <point x="426" y="-1"/>
      <point x="411" y="-1" type="curve" smooth="yes"/>
      <point x="75" y="-1" type="line" smooth="yes"/>
      <point x="63" y="-1"/>
      <point x="51" y="-1"/>
      <point x="51" y="7" type="curve" smooth="yes"/>
      <point x="51" y="9"/>
      <point x="52" y="12"/>
    </contour>
  </outline>
</glyph>
<glyph name="two" format="1">
  <advance width="568"/>
  <unicode hex="0032"/>
  <outline>
    <contour>
      <point x="92" y="23" type="curve" smooth="yes"/>
      <point x="122" y="106"/>
      <point x="194" y="195"/>
      <point x="223" y="237" type="curve" smooth="yes"/>
      <point x="266" y="300"/>
      <point x="351" y="394"/>
      <point x="351" y="471" type="curve" smooth="yes"/>
      <point x="351" y="510"/>
      <point x="324" y="564"/>
      <point x="272" y="583" type="curve" smooth="yes"/>
      <point x="239" y="596"/>
      <point x="172" y="604"/>
      <point x="130" y="604" type="curve" smooth="yes"/>
      <point x="119" y="604"/>
      <point x="113" y="607"/>
      <point x="113" y="613" type="curve" smooth="yes"/>
      <point x="113" y="615"/>
      <point x="115" y="618"/>
      <point x="117" y="622" type="curve" smooth="yes"/>
      <point x="128" y="640"/>
      <point x="155" y="673"/>
      <point x="173" y="696" type="curve" smooth="yes"/>
      <point x="176" y="699"/>
      <point x="185" y="707"/>
      <point x="196" y="707" type="curve" smooth="yes"/>
      <point x="208" y="707"/>
      <point x="226" y="706"/>
      <point x="232" y="705" type="curve" smooth="yes"/>
      <point x="301" y="697"/>
      <point x="373" y="680"/>
      <point x="417" y="627" type="curve" smooth="yes"/>
      <point x="444" y="595"/>
      <point x="460" y="570"/>
      <point x="460" y="512" type="curve" smooth="yes"/>
      <point x="460" y="455"/>
      <point x="419" y="395"/>
      <point x="367" y="332" type="curve" smooth="yes"/>
      <point x="319" y="273"/>
      <point x="230" y="130"/>
      <point x="229" y="106" type="curve" smooth="yes"/>
      <point x="229" y="101"/>
      <point x="232" y="96"/>
      <point x="236" y="96" type="curve" smooth="yes"/>
      <point x="492" y="96" type="line" smooth="yes"/>
      <point x="499" y="96"/>
      <point x="503" y="94"/>
      <point x="503" y="89" type="curve" smooth="yes"/>
      <point x="503" y="87"/>
      <point x="502" y="83"/>
      <point x="500" y="80" type="curve" smooth="yes"/>
      <point x="492" y="66"/>
      <point x="468" y="24"/>
      <point x="452" y="8" type="curve" smooth="yes"/>
      <point x="446" y="2"/>
      <point x="442" y="1"/>
      <point x="435" y="1" type="curve"/>
      <point x="107" y="1" type="line"/>
      <point x="95" y="1"/>
      <point x="90" y="5"/>
      <point x="90" y="13" type="curve" smooth="yes"/>
      <point x="90" y="16"/>
      <point x="91" y="19"/>
    </contour>
  </outline>
</glyph>
<glyph name="three" format="1">
  <advance width="568"/>
  <unicode hex="0033"/>
  <outline>
    <contour>
      <point x="126" y="89" type="curve" smooth="yes"/>
      <point x="131" y="94"/>
      <point x="135" y="101"/>
      <point x="139" y="101" type="curve" smooth="yes"/>
      <point x="140" y="101"/>
      <point x="142" y="100"/>
      <point x="143" y="100" type="curve" smooth="yes"/>
      <point x="180" y="88"/>
      <point x="223" y="77"/>
      <point x="257" y="77" type="curve" smooth="yes"/>
      <point x="306" y="77"/>
      <point x="341" y="91"/>
      <point x="364" y="114" type="curve" smooth="yes"/>
      <point x="381" y="132"/>
      <point x="395" y="165"/>
      <point x="395" y="191" type="curve" smooth="yes"/>
      <point x="395" y="235"/>
      <point x="380" y="262"/>
      <point x="348" y="288" type="curve" smooth="yes"/>
      <point x="320" y="311"/>
      <point x="242" y="328"/>
      <point x="187" y="328" type="curve" smooth="yes"/>
      <point x="182" y="328"/>
      <point x="181" y="331"/>
      <point x="181" y="334" type="curve" smooth="yes"/>
      <point x="181" y="336"/>
      <point x="182" y="338"/>
      <point x="183" y="340" type="curve" smooth="yes"/>
      <point x="198" y="361"/>
      <point x="212" y="384"/>
      <point x="226" y="399" type="curve" smooth="yes"/>
      <point x="232" y="406"/>
      <point x="241" y="410"/>
      <point x="256" y="414" type="curve" smooth="yes"/>
      <point x="290" y="423"/>
      <point x="354" y="459"/>
      <point x="354" y="514" type="curve" smooth="yes"/>
      <point x="354" y="560"/>
      <point x="320" y="574"/>
      <point x="301" y="582" type="curve" smooth="yes"/>
      <point x="264" y="598"/>
      <point x="204" y="609"/>
      <point x="139" y="609" type="curve" smooth="yes"/>
      <point x="132" y="609"/>
      <point x="127" y="612"/>
      <point x="127" y="618" type="curve" smooth="yes"/>
      <point x="127" y="621"/>
      <point x="128" y="624"/>
      <point x="130" y="628" type="curve" smooth="yes"/>
      <point x="139" y="641"/>
      <point x="161" y="668"/>
      <point x="189" y="700" type="curve" smooth="yes"/>
      <point x="193" y="704"/>
      <point x="198" y="707"/>
      <point x="204" y="707" type="curve" smooth="yes"/>
      <point x="227" y="707"/>
      <point x="340" y="698"/>
      <point x="393" y="657" type="curve" smooth="yes"/>
      <point x="432" y="627"/>
      <point x="442" y="596"/>
      <point x="442" y="559" type="curve" smooth="yes"/>
      <point x="442" y="517"/>
      <point x="421" y="463"/>
      <point x="351" y="416" type="curve" smooth="yes"/>
      <point x="348" y="414"/>
      <point x="347" y="412"/>
      <point x="347" y="410" type="curve" smooth="yes"/>
      <point x="347" y="407"/>
      <point x="351" y="403"/>
      <point x="357" y="401" type="curve" smooth="yes"/>
      <point x="438" y="375"/>
      <point x="486" y="310"/>
      <point x="486" y="244" type="curve" smooth="yes"/>
      <point x="486" y="167"/>
      <point x="435" y="83"/>
      <point x="376" y="36" type="curve" smooth="yes"/>
      <point x="328" y="-2"/>
      <point x="274" y="-15"/>
      <point x="232" y="-15" type="curve" smooth="yes"/>
      <point x="179" y="-15"/>
      <point x="117" y="-1"/>
      <point x="88" y="12" type="curve" smooth="yes"/>
      <point x="82" y="15"/>
      <point x="77" y="17"/>
      <point x="77" y="21" type="curve" smooth="yes"/>
      <point x="77" y="23"/>
      <point x="79" y="26"/>
      <point x="80" y="28" type="curve" smooth="yes"/>
      <point x="92" y="48"/>
      <point x="117" y="80"/>
    </contour>
  </outline>
</glyph>
<glyph name="four" format="1">
  <advance width="568"/>
  <unicode hex="0034"/>
  <outline>
    <contour>
      <point x="314" y="198" type="curve" smooth="yes"/>
      <point x="314" y="210"/>
      <point x="309" y="212"/>
      <point x="296" y="212" type="curve"/>
      <point x="95" y="212" type="line"/>
      <point x="61" y="212"/>
      <point x="51" y="251"/>
      <point x="51" y="282" type="curve" smooth="yes"/>
      <point x="51" y="347"/>
      <point x="114" y="478"/>
      <point x="130" y="507" type="curve" smooth="yes"/>
      <point x="181" y="597"/>
      <point x="243" y="664"/>
      <point x="335" y="714" type="curve" smooth="yes"/>
      <point x="340" y="717"/>
      <point x="344" y="718"/>
      <point x="349" y="718" type="curve" smooth="yes"/>
      <point x="361" y="718"/>
      <point x="371" y="710"/>
      <point x="373" y="697" type="curve" smooth="yes"/>
      <point x="387" y="580"/>
      <point x="388" y="343"/>
      <point x="389" y="319" type="curve" smooth="yes"/>
      <point x="390" y="308"/>
      <point x="394" y="307"/>
      <point x="400" y="307" type="curve"/>
      <point x="511" y="307" type="line"/>
      <point x="517" y="307"/>
      <point x="521" y="305"/>
      <point x="521" y="300" type="curve" smooth="yes"/>
      <point x="521" y="298"/>
      <point x="521" y="295"/>
      <point x="519" y="292" type="curve" smooth="yes"/>
      <point x="513" y="282"/>
      <point x="489" y="242"/>
      <point x="477" y="225" type="curve" smooth="yes"/>
      <point x="472" y="218"/>
      <point x="468" y="213"/>
      <point x="455" y="213" type="curve" smooth="yes"/>
      <point x="401" y="213" type="line"/>
      <point x="392" y="213"/>
      <point x="391" y="211"/>
      <point x="391" y="204" type="curve" smooth="yes"/>
      <point x="391" y="193"/>
      <point x="392" y="121"/>
      <point x="392" y="80" type="curve"/>
      <point x="392" y="71"/>
      <point x="391" y="65"/>
      <point x="387" y="56" type="curve" smooth="yes"/>
      <point x="378" y="37"/>
      <point x="359" y="2"/>
      <point x="338" y="-20" type="curve" smooth="yes"/>
      <point x="335" y="-23"/>
      <point x="331" y="-25"/>
      <point x="328" y="-25" type="curve" smooth="yes"/>
      <point x="322" y="-25"/>
      <point x="317" y="-20"/>
      <point x="317" y="-9" type="curve" smooth="yes"/>
      <point x="317" y="62"/>
      <point x="314" y="184"/>
    </contour>
    <contour>
      <point x="292" y="569" type="curve" smooth="yes"/>
      <point x="291" y="578"/>
      <point x="287" y="582"/>
      <point x="280" y="582" type="curve" smooth="yes"/>
      <point x="277" y="582"/>
      <point x="272" y="580"/>
      <point x="268" y="578" type="curve" smooth="yes"/>
      <point x="230" y="559"/>
      <point x="207" y="531"/>
      <point x="190" y="508" type="curve" smooth="yes"/>
      <point x="162" y="468"/>
      <point x="118" y="369"/>
      <point x="118" y="339" type="curve" smooth="yes"/>
      <point x="118" y="317"/>
      <point x="127" y="307"/>
      <point x="140" y="307" type="curve"/>
      <point x="302" y="307" type="line"/>
      <point x="306" y="307"/>
      <point x="311" y="312"/>
      <point x="311" y="319" type="curve" smooth="yes"/>
      <point x="310" y="356"/>
      <point x="305" y="478"/>
    </contour>
  </outline>
</glyph>
<glyph name="five" format="1">
  <advance width="568"/>
  <unicode hex="0035"/>
  <outline>
    <contour>
      <point x="126" y="96" type="curve" smooth="yes"/>
      <point x="129" y="100"/>
      <point x="133" y="102"/>
      <point x="138" y="102" type="curve" smooth="yes"/>
      <point x="141" y="102"/>
      <point x="144" y="101"/>
      <point x="148" y="100" type="curve" smooth="yes"/>
      <point x="179" y="89"/>
      <point x="239" y="80"/>
      <point x="271" y="80" type="curve" smooth="yes"/>
      <point x="300" y="80"/>
      <point x="325" y="85"/>
      <point x="346" y="103" type="curve" smooth="yes"/>
      <point x="371" y="124"/>
      <point x="390" y="162"/>
      <point x="390" y="199" type="curve" smooth="yes"/>
      <point x="390" y="236"/>
      <point x="369" y="270"/>
      <point x="341" y="292" type="curve" smooth="yes"/>
      <point x="312" y="314"/>
      <point x="263" y="321"/>
      <point x="205" y="321" type="curve" smooth="yes"/>
      <point x="164" y="321" type="line"/>
      <point x="133" y="321"/>
      <point x="121" y="337"/>
      <point x="120" y="354" type="curve" smooth="yes"/>
      <point x="115" y="431"/>
      <point x="115" y="507"/>
      <point x="115" y="581" type="curve" smooth="yes"/>
      <point x="115" y="587"/>
      <point x="113" y="597"/>
      <point x="113" y="609" type="curve" smooth="yes"/>
      <point x="113" y="617"/>
      <point x="114" y="626"/>
      <point x="117" y="633" type="curve" smooth="yes"/>
      <point x="134" y="667"/>
      <point x="145" y="693"/>
      <point x="162" y="713" type="curve" smooth="yes"/>
      <point x="164" y="716"/>
      <point x="168" y="718"/>
      <point x="172" y="718" type="curve" smooth="yes"/>
      <point x="177" y="718"/>
      <point x="183" y="716"/>
      <point x="185" y="712" type="curve" smooth="yes"/>
      <point x="191" y="702"/>
      <point x="202" y="683"/>
      <point x="206" y="678" type="curve" smooth="yes"/>
      <point x="211" y="672"/>
      <point x="217" y="672"/>
      <point x="224" y="672" type="curve" smooth="yes"/>
      <point x="453" y="672" type="line"/>
      <point x="466" y="672"/>
      <point x="470" y="666"/>
      <point x="470" y="661" type="curve" smooth="yes"/>
      <point x="470" y="659"/>
      <point x="466" y="650"/>
      <point x="465" y="649" type="curve" smooth="yes"/>
      <point x="455" y="634"/>
      <point x="434" y="598"/>
      <point x="424" y="585" type="curve" smooth="yes"/>
      <point x="418" y="578"/>
      <point x="413" y="576"/>
      <point x="400" y="576" type="curve" smooth="yes"/>
      <point x="210" y="576" type="line"/>
      <point x="198" y="576"/>
      <point x="192" y="573"/>
      <point x="192" y="561" type="curve" smooth="yes"/>
      <point x="192" y="561"/>
      <point x="195" y="460"/>
      <point x="195" y="446" type="curve" smooth="yes"/>
      <point x="195" y="429"/>
      <point x="207" y="416"/>
      <point x="219" y="416" type="curve"/>
      <point x="281" y="416" type="line"/>
      <point x="348" y="416"/>
      <point x="475" y="370"/>
      <point x="475" y="241" type="curve" smooth="yes"/>
      <point x="475" y="171"/>
      <point x="427" y="110"/>
      <point x="425" y="106" type="curve" smooth="yes"/>
      <point x="379" y="36"/>
      <point x="306" y="-16"/>
      <point x="225" y="-16" type="curve" smooth="yes"/>
      <point x="183" y="-16"/>
      <point x="121" y="-6"/>
      <point x="85" y="11" type="curve" smooth="yes"/>
      <point x="77" y="15"/>
      <point x="75" y="18"/>
      <point x="75" y="22" type="curve" smooth="yes"/>
      <point x="75" y="26"/>
      <point x="77" y="30"/>
      <point x="79" y="33" type="curve" smooth="yes"/>
      <point x="97" y="59"/>
      <point x="116" y="84"/>
    </contour>
  </outline>
</glyph>
<glyph name="seven" format="1">
  <advance width="568"/>
  <unicode hex="0037"/>
  <outline>
    <contour>
      <point x="136" y="102" type="curve" smooth="yes"/>
      <point x="158" y="160"/>
      <point x="214" y="251"/>
      <point x="271" y="348" type="curve" smooth="yes"/>
      <point x="320" y="430"/>
      <point x="377" y="528"/>
      <point x="377" y="565" type="curve" smooth="yes"/>
      <point x="377" y="573"/>
      <point x="371" y="575"/>
      <point x="362" y="575" type="curve" smooth="yes"/>
      <point x="71" y="575" type="line"/>
      <point x="59" y="575"/>
      <point x="49" y="585"/>
      <point x="49" y="596" type="curve" smooth="yes"/>
      <point x="49" y="599"/>
      <point x="51" y="601"/>
      <point x="52" y="604" type="curve" smooth="yes"/>
      <point x="75" y="646"/>
      <point x="107" y="688"/>
      <point x="129" y="711" type="curve" smooth="yes"/>
      <point x="132" y="714"/>
      <point x="137" y="718"/>
      <point x="140" y="718" type="curve" smooth="yes"/>
      <point x="146" y="718"/>
      <point x="151" y="713"/>
      <point x="153" y="705" type="curve" smooth="yes"/>
      <point x="161" y="675"/>
      <point x="168" y="672"/>
      <point x="208" y="672" type="curve" smooth="yes"/>
      <point x="502" y="672" type="line"/>
      <point x="519" y="672"/>
      <point x="520" y="664"/>
      <point x="520" y="658" type="curve" smooth="yes"/>
      <point x="520" y="648"/>
      <point x="512" y="629"/>
      <point x="501" y="605" type="curve" smooth="yes"/>
      <point x="472" y="541"/>
      <point x="388" y="420"/>
      <point x="359" y="375" type="curve" smooth="yes"/>
      <point x="317" y="312"/>
      <point x="263" y="221"/>
      <point x="243" y="155" type="curve" smooth="yes"/>
      <point x="236" y="133"/>
      <point x="228" y="105"/>
      <point x="228" y="95" type="curve" smooth="yes"/>
      <point x="228" y="85"/>
      <point x="223" y="74"/>
      <point x="218" y="67" type="curve" smooth="yes"/>
      <point x="200" y="41"/>
      <point x="166" y="8"/>
      <point x="138" y="-14" type="curve" smooth="yes"/>
      <point x="134" y="-18"/>
      <point x="126" y="-23"/>
      <point x="122" y="-23" type="curve" smooth="yes"/>
      <point x="117" y="-23"/>
      <point x="114" y="-19"/>
      <point x="114" y="-14" type="curve" smooth="yes"/>
      <point x="114" y="31"/>
      <point x="125" y="71"/>
    </contour>
  </outline>
</glyph>
<glyph name="nine" format="1">
  <advance width="568"/>
  <unicode hex="0039"/>
  <outline>
    <contour>
      <point x="327" y="255" type="curve" smooth="yes"/>
      <point x="327" y="258"/>
      <point x="326" y="260"/>
      <point x="323" y="260" type="curve" smooth="yes"/>
      <point x="320" y="260"/>
      <point x="289" y="247"/>
      <point x="253" y="247" type="curve" smooth="yes"/>
      <point x="209" y="247"/>
      <point x="163" y="264"/>
      <point x="127" y="300" type="curve" smooth="yes"/>
      <point x="89" y="339"/>
      <point x="65" y="388"/>
      <point x="65" y="454" type="curve" smooth="yes"/>
      <point x="65" y="518"/>
      <point x="87" y="565"/>
      <point x="123" y="613" type="curve" smooth="yes"/>
      <point x="161" y="664"/>
      <point x="228" y="707"/>
      <point x="299" y="707" type="curve" smooth="yes"/>
      <point x="412" y="707"/>
      <point x="515" y="607"/>
      <point x="515" y="493" type="curve" smooth="yes"/>
      <point x="515" y="423"/>
      <point x="487" y="358"/>
      <point x="452" y="300" type="curve" smooth="yes"/>
      <point x="417" y="241"/>
      <point x="331" y="115"/>
      <point x="304" y="78" type="curve" smooth="yes"/>
      <point x="295" y="66"/>
      <point x="285" y="55"/>
      <point x="279" y="49" type="curve" smooth="yes"/>
      <point x="262" y="34"/>
      <point x="179" y="-25"/>
      <point x="159" y="-25" type="curve" smooth="yes"/>
      <point x="152" y="-25"/>
      <point x="149" y="-18"/>
      <point x="149" y="-12" type="curve" smooth="yes"/>
      <point x="149" y="-8"/>
      <point x="151" y="-4"/>
      <point x="153" y="0" type="curve" smooth="yes"/>
      <point x="169" y="24"/>
      <point x="327" y="251"/>
    </contour>
    <contour>
      <point x="262" y="616" type="curve" smooth="yes"/>
      <point x="220" y="616"/>
      <point x="184" y="593"/>
      <point x="163" y="559" type="curve" smooth="yes"/>
      <point x="149" y="537"/>
      <point x="146" y="511"/>
      <point x="146" y="487" type="curve" smooth="yes"/>
      <point x="146" y="430"/>
      <point x="166" y="395"/>
      <point x="195" y="368" type="curve" smooth="yes"/>
      <point x="221" y="345"/>
      <point x="264" y="332"/>
      <point x="300" y="332" type="curve" smooth="yes"/>
      <point x="338" y="332"/>
      <point x="360" y="342"/>
      <point x="381" y="363" type="curve" smooth="yes"/>
      <point x="403" y="385"/>
      <point x="422" y="421"/>
      <point x="422" y="471" type="curve" smooth="yes"/>
      <point x="422" y="562"/>
      <point x="346" y="616"/>
    </contour>
  </outline>
</glyph>
<glyph name="colon" format="1">
  <advance width="408"/>
  <unicode hex="003A"/>
  <outline>
    <contour>
      <point x="141" y="34" type="curve" smooth="yes"/>
      <point x="138" y="38"/>
      <point x="136" y="43"/>
      <point x="136" y="46" type="curve" smooth="yes"/>
      <point x="136" y="49"/>
      <point x="137" y="52"/>
      <point x="139" y="54" type="curve" smooth="yes"/>
      <point x="158" y="73"/>
      <point x="178" y="96"/>
      <point x="188" y="111" type="curve" smooth="yes"/>
      <point x="191" y="115"/>
      <point x="194" y="116"/>
      <point x="197" y="116" type="curve" smooth="yes"/>
      <point x="201" y="116"/>
      <point x="203" y="114"/>
      <point x="206" y="112" type="curve" smooth="yes"/>
      <point x="218" y="104"/>
      <point x="254" y="66"/>
      <point x="264" y="60" type="curve" smooth="yes"/>
      <point x="268" y="57"/>
      <point x="272" y="53"/>
      <point x="272" y="48" type="curve" smooth="yes"/>
      <point x="272" y="44"/>
      <point x="270" y="42"/>
      <point x="267" y="36" type="curve" smooth="yes"/>
      <point x="261" y="24"/>
      <point x="229" y="-13"/>
      <point x="215" y="-22" type="curve" smooth="yes"/>
      <point x="213" y="-23"/>
      <point x="210" y="-24"/>
      <point x="208" y="-24" type="curve" smooth="yes"/>
      <point x="206" y="-24"/>
      <point x="203" y="-23"/>
      <point x="201" y="-22" type="curve" smooth="yes"/>
      <point x="186" y="-13"/>
      <point x="155" y="17"/>
    </contour>
    <contour>
      <point x="141" y="272" type="curve" smooth="yes"/>
      <point x="138" y="276"/>
      <point x="136" y="281"/>
      <point x="136" y="284" type="curve" smooth="yes"/>
      <point x="136" y="287"/>
      <point x="137" y="290"/>
      <point x="139" y="292" type="curve" smooth="yes"/>
      <point x="158" y="311"/>
      <point x="178" y="334"/>
      <point x="188" y="349" type="curve" smooth="yes"/>
      <point x="191" y="353"/>
      <point x="194" y="354"/>
      <point x="197" y="354" type="curve" smooth="yes"/>
      <point x="201" y="354"/>
      <point x="203" y="352"/>
      <point x="206" y="350" type="curve" smooth="yes"/>
      <point x="218" y="342"/>
      <point x="254" y="304"/>
      <point x="264" y="298" type="curve" smooth="yes"/>
      <point x="268" y="295"/>
      <point x="272" y="291"/>
      <point x="272" y="286" type="curve" smooth="yes"/>
      <point x="272" y="282"/>
      <point x="270" y="280"/>
      <point x="267" y="274" type="curve" smooth="yes"/>
      <point x="261" y="262"/>
      <point x="229" y="225"/>
      <point x="215" y="216" type="curve" smooth="yes"/>
      <point x="213" y="215"/>
      <point x="210" y="214"/>
      <point x="208" y="214" type="curve" smooth="yes"/>
      <point x="206" y="214"/>
      <point x="203" y="215"/>
      <point x="201" y="216" type="curve" smooth="yes"/>
      <point x="186" y="225"/>
      <point x="155" y="255"/>
    </contour>
  </outline>
</glyph>
<glyph name="semicolon" format="1">
  <advance width="408"/>
  <unicode hex="003B"/>
  <outline>
    <contour>
      <point x="173" y="-12" type="curve" smooth="yes"/>
      <point x="173" y="20"/>
      <point x="164" y="46"/>
      <point x="159" y="60" type="curve" smooth="yes"/>
      <point x="158" y="63"/>
      <point x="157" y="65"/>
      <point x="157" y="68" type="curve" smooth="yes"/>
      <point x="157" y="71"/>
      <point x="158" y="74"/>
      <point x="160" y="77" type="curve" smooth="yes"/>
      <point x="171" y="93"/>
      <point x="198" y="127"/>
      <point x="216" y="148" type="curve" smooth="yes"/>
      <point x="219" y="151"/>
      <point x="222" y="152"/>
      <point x="225" y="152" type="curve" smooth="yes"/>
      <point x="228" y="152"/>
      <point x="231" y="150"/>
      <point x="233" y="147" type="curve" smooth="yes"/>
      <point x="242" y="131"/>
      <point x="265" y="87"/>
      <point x="265" y="45" type="curve" smooth="yes"/>
      <point x="265" y="10"/>
      <point x="254" y="-21"/>
      <point x="246" y="-40" type="curve" smooth="yes"/>
      <point x="236" y="-64"/>
      <point x="152" y="-218"/>
      <point x="138" y="-218" type="curve" smooth="yes"/>
      <point x="134" y="-218"/>
      <point x="128" y="-216"/>
      <point x="128" y="-211" type="curve" smooth="yes"/>
      <point x="128" y="-198"/>
      <point x="173" y="-55"/>
    </contour>
    <contour>
      <point x="138" y="315" type="curve" smooth="yes"/>
      <point x="135" y="319"/>
      <point x="133" y="324"/>
      <point x="133" y="327" type="curve" smooth="yes"/>
      <point x="133" y="330"/>
      <point x="134" y="333"/>
      <point x="136" y="335" type="curve" smooth="yes"/>
      <point x="155" y="354"/>
      <point x="175" y="377"/>
      <point x="185" y="392" type="curve" smooth="yes"/>
      <point x="188" y="396"/>
      <point x="191" y="397"/>
      <point x="194" y="397" type="curve" smooth="yes"/>
      <point x="198" y="397"/>
      <point x="200" y="395"/>
      <point x="203" y="393" type="curve" smooth="yes"/>
      <point x="215" y="385"/>
      <point x="251" y="347"/>
      <point x="261" y="341" type="curve" smooth="yes"/>
      <point x="265" y="338"/>
      <point x="269" y="334"/>
      <point x="269" y="329" type="curve" smooth="yes"/>
      <point x="269" y="325"/>
      <point x="267" y="323"/>
      <point x="264" y="317" type="curve" smooth="yes"/>
      <point x="258" y="305"/>
      <point x="226" y="268"/>
      <point x="212" y="259" type="curve" smooth="yes"/>
      <point x="210" y="258"/>
      <point x="207" y="257"/>
      <point x="205" y="257" type="curve" smooth="yes"/>
      <point x="203" y="257"/>
      <point x="200" y="258"/>
      <point x="198" y="259" type="curve" smooth="yes"/>
      <point x="183" y="268"/>
      <point x="152" y="298"/>
    </contour>
  </outline>
</glyph>
<glyph name="less" format="1">
  <advance width="568"/>
  <unicode hex="003C"/>
  <outline>
    <contour>
      <point x="286" y="178" type="curve"/>
      <point x="335" y="150"/>
      <point x="448" y="84"/>
      <point x="448" y="84" type="curve" smooth="yes"/>
      <point x="451" y="82"/>
      <point x="454" y="81"/>
      <point x="457" y="81" type="curve" smooth="yes"/>
      <point x="461" y="81"/>
      <point x="464" y="84"/>
      <point x="468" y="91" type="curve" smooth="yes"/>
      <point x="489" y="129" type="line"/>
      <point x="491" y="132"/>
      <point x="492" y="134"/>
      <point x="492" y="137" type="curve" smooth="yes"/>
      <point x="492" y="141"/>
      <point x="490" y="145"/>
      <point x="483" y="149" type="curve" smooth="yes"/>
      <point x="483" y="149"/>
      <point x="360" y="214"/>
      <point x="320" y="236" type="curve" smooth="yes"/>
      <point x="290" y="253"/>
      <point x="223" y="290"/>
      <point x="177" y="317" type="curve"/>
      <point x="319" y="397" type="line" smooth="yes"/>
      <point x="359" y="419"/>
      <point x="482" y="484"/>
      <point x="482" y="484" type="curve" smooth="yes"/>
      <point x="489" y="488"/>
      <point x="491" y="492"/>
      <point x="491" y="496" type="curve" smooth="yes"/>
      <point x="491" y="499"/>
      <point x="490" y="501"/>
      <point x="488" y="504" type="curve"/>
      <point x="467" y="542" type="line" smooth="yes"/>
      <point x="463" y="549"/>
      <point x="460" y="552"/>
      <point x="456" y="552" type="curve" smooth="yes"/>
      <point x="453" y="552"/>
      <point x="450" y="551"/>
      <point x="447" y="549" type="curve" smooth="yes"/>
      <point x="447" y="549"/>
      <point x="334" y="483"/>
      <point x="285" y="455" type="curve" smooth="yes"/>
      <point x="228" y="424"/>
      <point x="171" y="391"/>
      <point x="92" y="352" type="curve" smooth="yes"/>
      <point x="81" y="347"/>
      <point x="75" y="344"/>
      <point x="75" y="333" type="curve" smooth="yes"/>
      <point x="75" y="300" type="line" smooth="yes"/>
      <point x="75" y="288"/>
      <point x="84" y="286"/>
      <point x="91" y="282" type="curve" smooth="yes"/>
      <point x="116" y="268"/>
      <point x="286" y="178"/>
    </contour>
  </outline>
</glyph>
<glyph name="equal" format="1">
  <advance width="568"/>
  <unicode hex="003D"/>
  <outline>
    <contour>
      <point x="82" y="466" type="curve"/>
      <point x="69" y="466"/>
      <point x="66" y="460"/>
      <point x="66" y="450" type="curve" smooth="yes"/>
      <point x="66" y="407" type="line" smooth="yes"/>
      <point x="66" y="398"/>
      <point x="69" y="392"/>
      <point x="82" y="392" type="curve" smooth="yes"/>
      <point x="82" y="392"/>
      <point x="247" y="395"/>
      <point x="302" y="395" type="curve" smooth="yes"/>
      <point x="348" y="395"/>
      <point x="486" y="392"/>
      <point x="486" y="392" type="curve"/>
      <point x="499" y="392"/>
      <point x="502" y="398"/>
      <point x="502" y="407" type="curve" smooth="yes"/>
      <point x="502" y="450" type="line" smooth="yes"/>
      <point x="502" y="464"/>
      <point x="497" y="466"/>
      <point x="488" y="466" type="curve" smooth="yes"/>
      <point x="488" y="466"/>
      <point x="357" y="463"/>
      <point x="300" y="463" type="curve" smooth="yes"/>
      <point x="235" y="463"/>
      <point x="82" y="466"/>
    </contour>
    <contour>
      <point x="82" y="249" type="curve"/>
      <point x="69" y="249"/>
      <point x="66" y="243"/>
      <point x="66" y="233" type="curve" smooth="yes"/>
      <point x="66" y="190" type="line" smooth="yes"/>
      <point x="66" y="181"/>
      <point x="69" y="175"/>
      <point x="82" y="175" type="curve" smooth="yes"/>
      <point x="82" y="175"/>
      <point x="247" y="178"/>
      <point x="302" y="178" type="curve" smooth="yes"/>
      <point x="348" y="178"/>
      <point x="486" y="175"/>
      <point x="486" y="175" type="curve"/>
      <point x="499" y="175"/>
      <point x="502" y="181"/>
      <point x="502" y="190" type="curve" smooth="yes"/>
      <point x="502" y="233" type="line" smooth="yes"/>
      <point x="502" y="247"/>
      <point x="494" y="249"/>
      <point x="488" y="249" type="curve" smooth="yes"/>
      <point x="488" y="249"/>
      <point x="357" y="246"/>
      <point x="300" y="246" type="curve" smooth="yes"/>
      <point x="235" y="246"/>
      <point x="82" y="249"/>
    </contour>
  </outline>
</glyph>
<glyph name="backslash" format="1">
  <advance width="408"/>
  <unicode hex="005C"/>
  <outline>
    <contour>
      <point x="328" y="-74" type="line"/>
      <point x="333" y="-86"/>
      <point x="337" y="-91"/>
      <point x="342" y="-91" type="curve" smooth="yes"/>
      <point x="346" y="-91"/>
      <point x="352" y="-83"/>
      <point x="353" y="-77" type="curve" smooth="yes"/>
      <point x="356" y="-64"/>
      <point x="362" y="-27"/>
      <point x="362" y="-16" type="curve" smooth="yes"/>
      <point x="362" y="-6"/>
      <point x="357" y="4"/>
      <point x="355" y="8" type="curve" smooth="yes"/>
      <point x="307" y="108"/>
      <point x="262" y="223"/>
      <point x="224" y="320" type="curve" smooth="yes"/>
      <point x="175" y="444"/>
      <point x="107" y="612"/>
      <point x="83" y="672" type="curve" smooth="yes"/>
      <point x="81" y="677"/>
      <point x="77" y="680"/>
      <point x="73" y="680" type="curve" smooth="yes"/>
      <point x="68" y="680"/>
      <point x="64" y="675"/>
      <point x="61" y="667" type="curve" smooth="yes"/>
      <point x="55" y="652"/>
      <point x="52" y="646"/>
      <point x="48" y="631" type="curve" smooth="yes"/>
      <point x="47" y="626"/>
      <point x="45" y="620"/>
      <point x="45" y="613" type="curve" smooth="yes"/>
      <point x="45" y="605"/>
      <point x="54" y="590"/>
      <point x="59" y="580" type="curve" smooth="yes"/>
      <point x="93" y="511"/>
      <point x="121" y="450"/>
      <point x="187" y="283" type="curve" smooth="yes"/>
    </contour>
  </outline>
</glyph>
<glyph name="bracketright" format="1">
  <advance width="407"/>
  <unicode hex="005D"/>
  <outline>
    <contour>
      <point x="328" y="-70" type="curve" smooth="yes"/>
      <point x="328" y="56"/>
      <point x="322" y="182"/>
      <point x="322" y="308" type="curve" smooth="yes"/>
      <point x="322" y="410"/>
      <point x="332" y="571"/>
      <point x="332" y="612" type="curve" smooth="yes"/>
      <point x="332" y="653"/>
      <point x="313" y="693"/>
      <point x="269" y="693" type="curve"/>
      <point x="56" y="693" type="line"/>
      <point x="50" y="693"/>
      <point x="46" y="693"/>
      <point x="46" y="690" type="curve" smooth="yes"/>
      <point x="46" y="689"/>
      <point x="47" y="687"/>
      <point x="49" y="685" type="curve" smooth="yes"/>
      <point x="62" y="669"/>
      <point x="78" y="652"/>
      <point x="92" y="642" type="curve" smooth="yes"/>
      <point x="100" y="636"/>
      <point x="103" y="635"/>
      <point x="109" y="635" type="curve"/>
      <point x="220" y="635" type="line"/>
      <point x="233" y="635"/>
      <point x="252" y="624"/>
      <point x="253" y="601" type="curve" smooth="yes"/>
      <point x="255" y="562"/>
      <point x="256" y="342"/>
      <point x="256" y="302" type="curve" smooth="yes"/>
      <point x="256" y="266"/>
      <point x="251" y="14"/>
      <point x="250" y="-45" type="curve" smooth="yes"/>
      <point x="250" y="-69"/>
      <point x="238" y="-80"/>
      <point x="217" y="-80" type="curve"/>
      <point x="63" y="-80" type="line"/>
      <point x="52" y="-80"/>
      <point x="47" y="-81"/>
      <point x="47" y="-85" type="curve" smooth="yes"/>
      <point x="47" y="-87"/>
      <point x="49" y="-90"/>
      <point x="52" y="-94" type="curve" smooth="yes"/>
      <point x="62" y="-105"/>
      <point x="84" y="-128"/>
      <point x="91" y="-133" type="curve" smooth="yes"/>
      <point x="97" y="-137"/>
      <point x="103" y="-137"/>
      <point x="110" y="-137" type="curve" smooth="yes"/>
      <point x="242" y="-137" type="line"/>
      <point x="255" y="-137"/>
      <point x="287" y="-136"/>
      <point x="304" y="-123" type="curve" smooth="yes"/>
      <point x="321" y="-109"/>
      <point x="328" y="-93"/>
    </contour>
  </outline>
</glyph>
<glyph name="braceleft" format="1">
  <advance width="408"/>
  <unicode hex="007B"/>
  <outline>
    <contour>
      <point x="263" y="-78" type="line"/>
      <point x="213" y="-78"/>
      <point x="200" y="-34"/>
      <point x="200" y="3" type="curve" smooth="yes"/>
      <point x="200" y="27"/>
      <point x="203" y="87"/>
      <point x="203" y="133" type="curve" smooth="yes"/>
      <point x="203" y="205"/>
      <point x="184" y="251"/>
      <point x="141" y="273" type="curve" smooth="yes"/>
      <point x="139" y="274"/>
      <point x="138" y="276"/>
      <point x="138" y="279" type="curve" smooth="yes"/>
      <point x="138" y="282"/>
      <point x="139" y="284"/>
      <point x="141" y="285" type="curve" smooth="yes"/>
      <point x="184" y="307"/>
      <point x="203" y="353"/>
      <point x="203" y="425" type="curve" smooth="yes"/>
      <point x="203" y="471"/>
      <point x="200" y="531"/>
      <point x="200" y="555" type="curve" smooth="yes"/>
      <point x="200" y="592"/>
      <point x="214" y="636"/>
      <point x="264" y="636" type="curve" smooth="yes"/>
      <point x="297" y="636" type="line" smooth="yes"/>
      <point x="303" y="636"/>
      <point x="308" y="638"/>
      <point x="316" y="645" type="curve" smooth="yes"/>
      <point x="330" y="657"/>
      <point x="338" y="663"/>
      <point x="354" y="679" type="curve" smooth="yes"/>
      <point x="360" y="685"/>
      <point x="360" y="689"/>
      <point x="360" y="690" type="curve" smooth="yes"/>
      <point x="360" y="693"/>
      <point x="356" y="695"/>
      <point x="350" y="695" type="curve" smooth="yes"/>
      <point x="236" y="695" type="line" smooth="yes"/>
      <point x="153" y="695"/>
      <point x="123" y="638"/>
      <point x="123" y="560" type="curve" smooth="yes"/>
      <point x="123" y="521"/>
      <point x="131" y="466"/>
      <point x="131" y="420" type="curve" smooth="yes"/>
      <point x="131" y="381"/>
      <point x="117" y="340"/>
      <point x="80" y="325" type="curve" smooth="yes"/>
      <point x="75" y="323"/>
      <point x="69" y="318"/>
      <point x="69" y="311" type="curve" smooth="yes"/>
      <point x="69" y="247" type="line"/>
      <point x="69" y="240"/>
      <point x="75" y="235"/>
      <point x="80" y="233" type="curve" smooth="yes"/>
      <point x="117" y="218"/>
      <point x="131" y="177"/>
      <point x="131" y="138" type="curve" smooth="yes"/>
      <point x="131" y="92"/>
      <point x="124" y="37"/>
      <point x="124" y="-2" type="curve"/>
      <point x="124" y="-80"/>
      <point x="154" y="-137"/>
      <point x="237" y="-137" type="curve" smooth="yes"/>
      <point x="298" y="-137" type="line" smooth="yes"/>
      <point x="304" y="-137"/>
      <point x="309" y="-135"/>
      <point x="317" y="-128" type="curve" smooth="yes"/>
      <point x="331" y="-116"/>
      <point x="339" y="-110"/>
      <point x="355" y="-94" type="curve" smooth="yes"/>
      <point x="361" y="-88"/>
      <point x="361" y="-84"/>
      <point x="361" y="-83" type="curve" smooth="yes"/>
      <point x="361" y="-80"/>
      <point x="357" y="-78"/>
      <point x="351" y="-78" type="curve" smooth="yes"/>
    </contour>
  </outline>
</glyph>
<glyph name="sterling" format="1">
  <advance width="568"/>
  <unicode hex="00A3"/>
  <outline>
    <contour>
      <point x="461" y="750" type="curve" smooth="yes"/>
      <point x="466" y="747"/>
      <point x="469" y="743"/>
      <point x="469" y="738" type="curve" smooth="yes"/>
      <point x="469" y="737"/>
      <point x="468" y="734"/>
      <point x="467" y="729" type="curve" smooth="yes"/>
      <point x="464" y="721"/>
      <point x="449" y="700"/>
      <point x="422" y="663" type="curve" smooth="yes"/>
      <point x="419" y="659"/>
      <point x="414" y="656"/>
      <point x="408" y="656" type="curve" smooth="yes"/>
      <point x="404" y="656"/>
      <point x="400" y="657"/>
      <point x="395" y="659" type="curve" smooth="yes"/>
      <point x="344" y="681"/>
      <point x="301" y="692"/>
      <point x="264" y="692" type="curve" smooth="yes"/>
      <point x="243" y="692"/>
      <point x="224" y="681"/>
      <point x="212" y="665" type="curve" smooth="yes"/>
      <point x="203" y="653"/>
      <point x="198" y="637"/>
      <point x="198" y="616" type="curve" smooth="yes"/>
      <point x="198" y="596"/>
      <point x="210" y="538"/>
      <point x="232" y="443" type="curve" smooth="yes"/>
      <point x="234" y="440"/>
      <point x="235" y="438"/>
      <point x="236" y="438" type="curve" smooth="yes"/>
      <point x="252" y="438"/>
      <point x="287" y="438"/>
      <point x="340" y="437" type="curve" smooth="yes"/>
      <point x="393" y="436"/>
      <point x="427" y="436"/>
      <point x="442" y="436" type="curve" smooth="yes"/>
      <point x="448" y="436"/>
      <point x="451" y="433"/>
      <point x="451" y="428" type="curve" smooth="yes"/>
      <point x="451" y="425"/>
      <point x="449" y="422"/>
      <point x="447" y="419" type="curve" smooth="yes"/>
      <point x="426" y="398"/>
      <point x="405" y="379"/>
      <point x="385" y="365" type="curve" smooth="yes"/>
      <point x="377" y="359"/>
      <point x="367" y="356"/>
      <point x="354" y="354" type="curve" smooth="yes"/>
      <point x="259" y="349" type="line" smooth="yes"/>
      <point x="256" y="349"/>
      <point x="254" y="348"/>
      <point x="254" y="346" type="curve" smooth="yes"/>
      <point x="264" y="307"/>
      <point x="270" y="273"/>
      <point x="270" y="246" type="curve" smooth="yes"/>
      <point x="270" y="229"/>
      <point x="267" y="210"/>
      <point x="259" y="189" type="curve" smooth="yes"/>
      <point x="243" y="150"/>
      <point x="231" y="123"/>
      <point x="223" y="106" type="curve"/>
      <point x="223" y="103"/>
      <point x="226" y="103"/>
      <point x="226" y="103" type="curve" smooth="yes"/>
      <point x="279" y="103"/>
      <point x="318" y="95"/>
      <point x="370" y="88" type="curve" smooth="yes"/>
      <point x="391" y="85"/>
      <point x="410" y="85"/>
      <point x="426" y="85" type="curve" smooth="yes"/>
      <point x="471" y="86"/>
      <point x="508" y="105"/>
      <point x="513" y="105" type="curve" smooth="yes"/>
      <point x="517" y="105"/>
      <point x="519" y="104"/>
      <point x="519" y="100" type="curve" smooth="yes"/>
      <point x="519" y="98"/>
      <point x="518" y="95"/>
      <point x="516" y="91" type="curve" smooth="yes"/>
      <point x="501" y="62"/>
      <point x="486" y="40"/>
      <point x="467" y="15" type="curve" smooth="yes"/>
      <point x="461" y="8"/>
      <point x="452" y="3"/>
      <point x="441" y="-1" type="curve" smooth="yes"/>
      <point x="412" y="-11"/>
      <point x="384" y="-16"/>
      <point x="358" y="-16" type="curve" smooth="yes"/>
      <point x="329" y="-16"/>
      <point x="293" y="-13"/>
      <point x="251" y="-5" type="curve" smooth="yes"/>
      <point x="199" y="4"/>
      <point x="158" y="9"/>
      <point x="127" y="9" type="curve" smooth="yes"/>
      <point x="109" y="9"/>
      <point x="89" y="6"/>
      <point x="71" y="6" type="curve" smooth="yes"/>
      <point x="65" y="6"/>
      <point x="62" y="9"/>
      <point x="62" y="15" type="curve" smooth="yes"/>
      <point x="62" y="24"/>
      <point x="76" y="44"/>
      <point x="95" y="78" type="curve" smooth="yes"/>
      <point x="101" y="88"/>
      <point x="110" y="96"/>
      <point x="119" y="101" type="curve" smooth="yes"/>
      <point x="142" y="115"/>
      <point x="158" y="128"/>
      <point x="169" y="142" type="curve" smooth="yes"/>
      <point x="179" y="155"/>
      <point x="184" y="174"/>
      <point x="184" y="198" type="curve" smooth="yes"/>
      <point x="184" y="210"/>
      <point x="182" y="226"/>
      <point x="179" y="244" type="curve" smooth="yes"/>
      <point x="174" y="277"/>
      <point x="167" y="309"/>
      <point x="158" y="341" type="curve" smooth="yes"/>
      <point x="157" y="345"/>
      <point x="155" y="347"/>
      <point x="151" y="347" type="curve"/>
      <point x="133" y="347"/>
      <point x="121" y="347"/>
      <point x="105" y="346" type="curve" smooth="yes"/>
      <point x="89" y="346"/>
      <point x="79" y="345"/>
      <point x="77" y="345" type="curve" smooth="yes"/>
      <point x="71" y="345"/>
      <point x="68" y="348"/>
      <point x="68" y="353" type="curve" smooth="yes"/>
      <point x="68" y="356"/>
      <point x="70" y="359"/>
      <point x="72" y="362" type="curve" smooth="yes"/>
      <point x="95" y="388"/>
      <point x="114" y="410"/>
      <point x="129" y="426" type="curve" smooth="yes"/>
      <point x="130" y="428"/>
      <point x="131" y="431"/>
      <point x="131" y="437" type="curve" smooth="yes"/>
      <point x="130" y="441"/>
      <point x="130" y="442"/>
      <point x="130" y="442" type="curve" smooth="yes"/>
      <point x="121" y="478" type="line" smooth="yes"/>
      <point x="116" y="500"/>
      <point x="113" y="518"/>
      <point x="113" y="531" type="curve" smooth="yes"/>
      <point x="113" y="574"/>
      <point x="128" y="615"/>
      <point x="157" y="658" type="curve" smooth="yes"/>
      <point x="167" y="672"/>
      <point x="184" y="690"/>
      <point x="207" y="710" type="curve" smooth="yes"/>
      <point x="229" y="728"/>
      <point x="247" y="742"/>
      <point x="262" y="750" type="curve" smooth="yes"/>
      <point x="295" y="769"/>
      <point x="326" y="779"/>
      <point x="359" y="779" type="curve" smooth="yes"/>
      <point x="399" y="779"/>
      <point x="432" y="768"/>
    </contour>
  </outline>
</glyph>
<glyph name="currency" format="1">
  <advance width="640"/>
  <unicode hex="00A4"/>
  <outline>
    <contour>
      <point x="519" y="446" type="curve" smooth="yes"/>
      <point x="513" y="454"/>
      <point x="507" y="464"/>
      <point x="515" y="472" type="curve" smooth="yes"/>
      <point x="554" y="511"/>
      <point x="594" y="551"/>
      <point x="594" y="551" type="curve" smooth="yes"/>
      <point x="598" y="556"/>
      <point x="600" y="560"/>
      <point x="600" y="563" type="curve" smooth="yes"/>
      <point x="600" y="568"/>
      <point x="598" y="570"/>
      <point x="595" y="574" type="curve" smooth="yes"/>
      <point x="572" y="595" type="line" smooth="yes"/>
      <point x="567" y="599"/>
      <point x="563" y="601"/>
      <point x="561" y="601" type="curve" smooth="yes"/>
      <point x="557" y="601"/>
      <point x="554" y="599"/>
      <point x="552" y="596" type="curve" smooth="yes"/>
      <point x="552" y="596"/>
      <point x="516" y="560"/>
      <point x="474" y="511" type="curve" smooth="yes"/>
      <point x="466" y="504"/>
      <point x="460" y="509"/>
      <point x="449" y="514" type="curve" smooth="yes"/>
      <point x="419" y="532"/>
      <point x="373" y="547"/>
      <point x="325" y="547" type="curve" smooth="yes"/>
      <point x="281" y="547"/>
      <point x="232" y="528"/>
      <point x="203" y="508" type="curve" smooth="yes"/>
      <point x="194" y="500"/>
      <point x="189" y="499"/>
      <point x="181" y="508" type="curve" smooth="yes"/>
      <point x="137" y="554"/>
      <point x="106" y="590"/>
      <point x="106" y="590" type="curve" smooth="yes"/>
      <point x="103" y="594"/>
      <point x="99" y="596"/>
      <point x="97" y="596" type="curve" smooth="yes"/>
      <point x="92" y="596"/>
      <point x="88" y="594"/>
      <point x="84" y="590" type="curve" smooth="yes"/>
      <point x="62" y="568" type="line" smooth="yes"/>
      <point x="58" y="562"/>
      <point x="56" y="558"/>
      <point x="56" y="555" type="curve" smooth="yes"/>
      <point x="56" y="551"/>
      <point x="58" y="547"/>
      <point x="60" y="543" type="curve" smooth="yes"/>
      <point x="60" y="543"/>
      <point x="92" y="512"/>
      <point x="139" y="465" type="curve" smooth="yes"/>
      <point x="147" y="458"/>
      <point x="146" y="450"/>
      <point x="139" y="442" type="curve" smooth="yes"/>
      <point x="118" y="408"/>
      <point x="102" y="356"/>
      <point x="102" y="315" type="curve" smooth="yes"/>
      <point x="102" y="266"/>
      <point x="120" y="214"/>
      <point x="134" y="185" type="curve" smooth="yes"/>
      <point x="139" y="176"/>
      <point x="142" y="169"/>
      <point x="134" y="161" type="curve" smooth="yes"/>
      <point x="83" y="109"/>
      <point x="46" y="75"/>
      <point x="46" y="75" type="curve" smooth="yes"/>
      <point x="43" y="71"/>
      <point x="41" y="67"/>
      <point x="41" y="64" type="curve" smooth="yes"/>
      <point x="41" y="59"/>
      <point x="43" y="57"/>
      <point x="46" y="53" type="curve" smooth="yes"/>
      <point x="70" y="28" type="line" smooth="yes"/>
      <point x="72" y="25"/>
      <point x="74" y="24"/>
      <point x="79" y="24" type="curve" smooth="yes"/>
      <point x="82" y="24"/>
      <point x="86" y="25"/>
      <point x="91" y="30" type="curve" smooth="yes"/>
      <point x="91" y="30"/>
      <point x="127" y="64"/>
      <point x="175" y="118" type="curve" smooth="yes"/>
      <point x="182" y="126"/>
      <point x="189" y="123"/>
      <point x="197" y="118" type="curve" smooth="yes"/>
      <point x="228" y="101"/>
      <point x="279" y="85"/>
      <point x="317" y="85" type="curve" smooth="yes"/>
      <point x="365" y="85"/>
      <point x="415" y="105"/>
      <point x="445" y="125" type="curve" smooth="yes"/>
      <point x="453" y="131"/>
      <point x="460" y="134"/>
      <point x="467" y="125" type="curve" smooth="yes"/>
      <point x="513" y="78"/>
      <point x="548" y="40"/>
      <point x="548" y="40" type="curve" smooth="yes"/>
      <point x="552" y="34"/>
      <point x="556" y="33"/>
      <point x="558" y="33" type="curve" smooth="yes"/>
      <point x="562" y="33"/>
      <point x="567" y="36"/>
      <point x="570" y="40" type="curve" smooth="yes"/>
      <point x="593" y="62" type="line" smooth="yes"/>
      <point x="598" y="66"/>
      <point x="599" y="71"/>
      <point x="599" y="75" type="curve" smooth="yes"/>
      <point x="599" y="79"/>
      <point x="597" y="82"/>
      <point x="593" y="85" type="curve" smooth="yes"/>
      <point x="593" y="85"/>
      <point x="561" y="118"/>
      <point x="513" y="166" type="curve" smooth="yes"/>
      <point x="505" y="174"/>
      <point x="506" y="180"/>
      <point x="513" y="190" type="curve" smooth="yes"/>
      <point x="523" y="203"/>
      <point x="534" y="223"/>
      <point x="539" y="235" type="curve" smooth="yes"/>
      <point x="548" y="259"/>
      <point x="554" y="288"/>
      <point x="554" y="316" type="curve" smooth="yes"/>
      <point x="554" y="356"/>
      <point x="542" y="414"/>
    </contour>
    <contour>
      <point x="358" y="167" type="curve" smooth="yes"/>
      <point x="243" y="167"/>
      <point x="177" y="210"/>
      <point x="177" y="324" type="curve" smooth="yes"/>
      <point x="177" y="367"/>
      <point x="179" y="380"/>
      <point x="184" y="398" type="curve" smooth="yes"/>
      <point x="195" y="434"/>
      <point x="226" y="465"/>
      <point x="291" y="465" type="curve" smooth="yes"/>
      <point x="441" y="465"/>
      <point x="479" y="377"/>
      <point x="479" y="288" type="curve" smooth="yes"/>
      <point x="479" y="173"/>
      <point x="407" y="167"/>
    </contour>
  </outline>
</glyph>
<glyph name="section" format="1">
  <advance width="438"/>
  <unicode hex="00A7"/>
  <outline>
    <contour>
      <point x="74" y="46" type="curve" smooth="yes"/>
      <point x="98" y="28"/>
      <point x="162" y="-3"/>
      <point x="216" y="0" type="curve" smooth="yes"/>
      <point x="281" y="4"/>
      <point x="363" y="93"/>
      <point x="361" y="145" type="curve" smooth="yes"/>
      <point x="359" y="196"/>
      <point x="322" y="207"/>
      <point x="322" y="216" type="curve" smooth="yes"/>
      <point x="322" y="221"/>
      <point x="337" y="234"/>
      <point x="351" y="252" type="curve" smooth="yes"/>
      <point x="364" y="270"/>
      <point x="387" y="305"/>
      <point x="387" y="335" type="curve" smooth="yes"/>
      <point x="387" y="403"/>
      <point x="333" y="446"/>
      <point x="217" y="509" type="curve" smooth="yes"/>
      <point x="145" y="549"/>
      <point x="133" y="573"/>
      <point x="133" y="594" type="curve" smooth="yes"/>
      <point x="133" y="612"/>
      <point x="152" y="635"/>
      <point x="180" y="635" type="curve" smooth="yes"/>
      <point x="217" y="635"/>
      <point x="262" y="603"/>
      <point x="291" y="576" type="curve" smooth="yes"/>
      <point x="302" y="565"/>
      <point x="306" y="566"/>
      <point x="314" y="566" type="curve" smooth="yes"/>
      <point x="321" y="566"/>
      <point x="348" y="602"/>
      <point x="356" y="618" type="curve" smooth="yes"/>
      <point x="362" y="630"/>
      <point x="353" y="644"/>
      <point x="331" y="656" type="curve" smooth="yes"/>
      <point x="304" y="670"/>
      <point x="273" y="692"/>
      <point x="208" y="692" type="curve" smooth="yes"/>
      <point x="137" y="692"/>
      <point x="66" y="631"/>
      <point x="66" y="563" type="curve" smooth="yes"/>
      <point x="66" y="512"/>
      <point x="112" y="497"/>
      <point x="112" y="487" type="curve" smooth="yes"/>
      <point x="112" y="483"/>
      <point x="96" y="471"/>
      <point x="85" y="457" type="curve" smooth="yes"/>
      <point x="70" y="438"/>
      <point x="52" y="407"/>
      <point x="52" y="377" type="curve" smooth="yes"/>
      <point x="52" y="309"/>
      <point x="117" y="255"/>
      <point x="224" y="188" type="curve" smooth="yes"/>
      <point x="289" y="149"/>
      <point x="293" y="135"/>
      <point x="293" y="113" type="curve" smooth="yes"/>
      <point x="293" y="92"/>
      <point x="272" y="62"/>
      <point x="248" y="62" type="curve" smooth="yes"/>
      <point x="205" y="62"/>
      <point x="149" y="92"/>
      <point x="119" y="118" type="curve" smooth="yes"/>
      <point x="107" y="128"/>
      <point x="104" y="127"/>
      <point x="96" y="127" type="curve" smooth="yes"/>
      <point x="89" y="127"/>
      <point x="70" y="100"/>
      <point x="62" y="83" type="curve" smooth="yes"/>
      <point x="54" y="67"/>
      <point x="55" y="61"/>
    </contour>
    <contour>
      <point x="141" y="465" type="curve"/>
      <point x="151" y="465"/>
      <point x="162" y="454"/>
      <point x="178" y="444" type="curve" smooth="yes"/>
      <point x="228" y="412"/>
      <point x="324" y="356"/>
      <point x="324" y="303" type="curve" smooth="yes"/>
      <point x="324" y="277"/>
      <point x="302" y="238"/>
      <point x="295" y="238" type="curve" smooth="yes"/>
      <point x="287" y="238"/>
      <point x="279" y="247"/>
      <point x="265" y="257" type="curve" smooth="yes"/>
      <point x="226" y="282"/>
      <point x="113" y="359"/>
      <point x="113" y="408" type="curve" smooth="yes"/>
      <point x="113" y="437"/>
      <point x="134" y="465"/>
    </contour>
  </outline>
</glyph>
<glyph name="logicalnot" format="1">
  <advance width="544"/>
  <unicode hex="00AC"/>
  <outline>
    <contour>
      <point x="452" y="348" type="curve" smooth="yes"/>
      <point x="380" y="349"/>
      <point x="81" y="352"/>
      <point x="81" y="352" type="curve"/>
      <point x="68" y="352"/>
      <point x="65" y="346"/>
      <point x="65" y="336" type="curve" smooth="yes"/>
      <point x="65" y="295" type="line" smooth="yes"/>
      <point x="65" y="286"/>
      <point x="68" y="280"/>
      <point x="81" y="280" type="curve" smooth="yes"/>
      <point x="81" y="280"/>
      <point x="331" y="284"/>
      <point x="401" y="285" type="curve"/>
      <point x="400" y="212"/>
      <point x="398" y="111"/>
      <point x="398" y="111" type="curve"/>
      <point x="398" y="98"/>
      <point x="404" y="95"/>
      <point x="414" y="95" type="curve" smooth="yes"/>
      <point x="455" y="95" type="line" smooth="yes"/>
      <point x="464" y="95"/>
      <point x="470" y="98"/>
      <point x="470" y="111" type="curve" smooth="yes"/>
      <point x="470" y="111"/>
      <point x="467" y="261"/>
      <point x="466" y="332" type="curve"/>
      <point x="466" y="346"/>
      <point x="461" y="348"/>
    </contour>
  </outline>
</glyph>
<glyph name="degree" format="1">
  <advance width="376"/>
  <unicode hex="00B0"/>
  <outline>
    <contour>
      <point x="49" y="575" type="curve" smooth="yes"/>
      <point x="49" y="486"/>
      <point x="106" y="444"/>
      <point x="181" y="444" type="curve" smooth="yes"/>
      <point x="256" y="444"/>
      <point x="303" y="496"/>
      <point x="317" y="530" type="curve" smooth="yes"/>
      <point x="323" y="542"/>
      <point x="327" y="559"/>
      <point x="327" y="575" type="curve" smooth="yes"/>
      <point x="327" y="635"/>
      <point x="293" y="707"/>
      <point x="185" y="707" type="curve" smooth="yes"/>
      <point x="100" y="707"/>
      <point x="49" y="638"/>
    </contour>
    <contour>
      <point x="202" y="507" type="curve" smooth="yes"/>
      <point x="145" y="507"/>
      <point x="111" y="527"/>
      <point x="111" y="579" type="curve" smooth="yes"/>
      <point x="111" y="597"/>
      <point x="112" y="603"/>
      <point x="115" y="610" type="curve" smooth="yes"/>
      <point x="120" y="628"/>
      <point x="138" y="641"/>
      <point x="169" y="641" type="curve" smooth="yes"/>
      <point x="244" y="641"/>
      <point x="261" y="602"/>
      <point x="261" y="563" type="curve" smooth="yes"/>
      <point x="261" y="511"/>
      <point x="226" y="507"/>
    </contour>
  </outline>
</glyph>
<glyph name="plusminus" format="1">
  <advance width="568"/>
  <unicode hex="00B1"/>
  <outline>
    <contour>
      <point x="247" y="136" type="curve"/>
      <point x="247" y="123"/>
      <point x="253" y="120"/>
      <point x="263" y="120" type="curve" smooth="yes"/>
      <point x="306" y="120" type="line" smooth="yes"/>
      <point x="315" y="120"/>
      <point x="321" y="123"/>
      <point x="321" y="136" type="curve" smooth="yes"/>
      <point x="321" y="136"/>
      <point x="319" y="230"/>
      <point x="318" y="301" type="curve"/>
      <point x="372" y="300"/>
      <point x="477" y="298"/>
      <point x="477" y="298" type="curve"/>
      <point x="490" y="298"/>
      <point x="493" y="304"/>
      <point x="493" y="313" type="curve" smooth="yes"/>
      <point x="493" y="356" type="line" smooth="yes"/>
      <point x="493" y="370"/>
      <point x="488" y="372"/>
      <point x="479" y="372" type="curve" smooth="yes"/>
      <point x="479" y="372"/>
      <point x="380" y="369"/>
      <point x="318" y="369" type="curve"/>
      <point x="318" y="425"/>
      <point x="321" y="529"/>
      <point x="321" y="529" type="curve"/>
      <point x="321" y="542"/>
      <point x="315" y="545"/>
      <point x="306" y="545" type="curve" smooth="yes"/>
      <point x="263" y="545" type="line" smooth="yes"/>
      <point x="249" y="545"/>
      <point x="247" y="537"/>
      <point x="247" y="531" type="curve" smooth="yes"/>
      <point x="247" y="531"/>
      <point x="249" y="432"/>
      <point x="250" y="369" type="curve"/>
      <point x="178" y="370"/>
      <point x="90" y="372"/>
      <point x="90" y="372" type="curve"/>
      <point x="77" y="372"/>
      <point x="74" y="366"/>
      <point x="74" y="356" type="curve" smooth="yes"/>
      <point x="74" y="313" type="line" smooth="yes"/>
      <point x="74" y="304"/>
      <point x="77" y="298"/>
      <point x="90" y="298" type="curve" smooth="yes"/>
      <point x="90" y="298"/>
      <point x="180" y="300"/>
      <point x="250" y="301" type="curve"/>
      <point x="249" y="228"/>
      <point x="247" y="136"/>
    </contour>
    <contour>
      <point x="90" y="76" type="curve"/>
      <point x="77" y="76"/>
      <point x="74" y="70"/>
      <point x="74" y="60" type="curve" smooth="yes"/>
      <point x="74" y="17" type="line" smooth="yes"/>
      <point x="74" y="8"/>
      <point x="77" y="2"/>
      <point x="90" y="2" type="curve" smooth="yes"/>
      <point x="90" y="2"/>
      <point x="230" y="5"/>
      <point x="285" y="5" type="curve" smooth="yes"/>
      <point x="331" y="5"/>
      <point x="477" y="2"/>
      <point x="477" y="2" type="curve"/>
      <point x="490" y="2"/>
      <point x="493" y="8"/>
      <point x="493" y="17" type="curve" smooth="yes"/>
      <point x="493" y="60" type="line" smooth="yes"/>
      <point x="493" y="74"/>
      <point x="485" y="76"/>
      <point x="479" y="76" type="curve" smooth="yes"/>
      <point x="479" y="76"/>
      <point x="340" y="73"/>
      <point x="283" y="73" type="curve" smooth="yes"/>
      <point x="218" y="73"/>
      <point x="90" y="76"/>
    </contour>
  </outline>
</glyph>
<glyph name="paragraph" format="1">
  <advance width="578"/>
  <unicode hex="00B6"/>
  <outline>
    <contour>
      <point x="277" y="272" type="curve" smooth="yes"/>
      <point x="277" y="261"/>
      <point x="271" y="258"/>
      <point x="267" y="258" type="curve" smooth="yes"/>
      <point x="261" y="258"/>
      <point x="248" y="259"/>
      <point x="241" y="260" type="curve" smooth="yes"/>
      <point x="178" y="269"/>
      <point x="139" y="310"/>
      <point x="139" y="367" type="curve" smooth="yes"/>
      <point x="139" y="423"/>
      <point x="171" y="459"/>
      <point x="237" y="459" type="curve" smooth="yes"/>
      <point x="260" y="459"/>
      <point x="268" y="451"/>
      <point x="269" y="433" type="curve" smooth="yes"/>
      <point x="271" y="402"/>
      <point x="277" y="305"/>
    </contour>
    <contour>
      <point x="364" y="459" type="curve" smooth="yes"/>
      <point x="382" y="459"/>
      <point x="393" y="453"/>
      <point x="393" y="443" type="curve" smooth="yes"/>
      <point x="397" y="353"/>
      <point x="405" y="31"/>
      <point x="407" y="-35" type="curve" smooth="yes"/>
      <point x="407" y="-43"/>
      <point x="411" y="-48"/>
      <point x="417" y="-48" type="curve" smooth="yes"/>
      <point x="422" y="-48"/>
      <point x="427" y="-45"/>
      <point x="433" y="-37" type="curve" smooth="yes"/>
      <point x="442" y="-24"/>
      <point x="452" y="-8"/>
      <point x="459" y="9" type="curve" smooth="yes"/>
      <point x="465" y="24"/>
      <point x="466" y="38"/>
      <point x="466" y="55" type="curve" smooth="yes"/>
      <point x="466" y="132"/>
      <point x="459" y="297"/>
      <point x="459" y="426" type="curve" smooth="yes"/>
      <point x="459" y="448"/>
      <point x="464" y="457"/>
      <point x="487" y="457" type="curve" smooth="yes"/>
      <point x="509" y="457"/>
      <point x="520" y="463"/>
      <point x="528" y="475" type="curve" smooth="yes"/>
      <point x="536" y="486"/>
      <point x="544" y="502"/>
      <point x="552" y="518" type="curve" smooth="yes"/>
      <point x="556" y="527"/>
      <point x="558" y="536"/>
      <point x="558" y="540" type="curve" smooth="yes"/>
      <point x="558" y="550"/>
      <point x="550" y="552"/>
      <point x="532" y="552" type="curve" smooth="yes"/>
      <point x="254" y="552" type="line" smooth="yes"/>
      <point x="103" y="552"/>
      <point x="57" y="469"/>
      <point x="57" y="390" type="curve" smooth="yes"/>
      <point x="57" y="352"/>
      <point x="69" y="311"/>
      <point x="93" y="280" type="curve" smooth="yes"/>
      <point x="138" y="222"/>
      <point x="226" y="208"/>
      <point x="270" y="203" type="curve" smooth="yes"/>
      <point x="277" y="202"/>
      <point x="281" y="197"/>
      <point x="281" y="191" type="curve" smooth="yes"/>
      <point x="285" y="102"/>
      <point x="286" y="31"/>
      <point x="288" y="-35" type="curve" smooth="yes"/>
      <point x="288" y="-43"/>
      <point x="292" y="-48"/>
      <point x="298" y="-48" type="curve" smooth="yes"/>
      <point x="303" y="-48"/>
      <point x="307" y="-45"/>
      <point x="314" y="-37" type="curve" smooth="yes"/>
      <point x="323" y="-26"/>
      <point x="335" y="-8"/>
      <point x="341" y="7" type="curve" smooth="yes"/>
      <point x="347" y="22"/>
      <point x="348" y="34"/>
      <point x="348" y="51" type="curve" smooth="yes"/>
      <point x="348" y="141"/>
      <point x="343" y="356"/>
      <point x="340" y="437" type="curve" smooth="yes"/>
      <point x="339" y="453"/>
      <point x="346" y="459"/>
    </contour>
  </outline>
</glyph>
<glyph name="periodcentered" format="1">
  <advance width="365"/>
  <unicode hex="00B7"/>
  <outline>
    <contour>
      <point x="114" y="316" type="curve" smooth="yes"/>
      <point x="113" y="317"/>
      <point x="110" y="319"/>
      <point x="110" y="323" type="curve" smooth="yes"/>
      <point x="110" y="326"/>
      <point x="111" y="329"/>
      <point x="115" y="332" type="curve" smooth="yes"/>
      <point x="124" y="340"/>
      <point x="144" y="362"/>
      <point x="166" y="389" type="curve" smooth="yes"/>
      <point x="169" y="393"/>
      <point x="172" y="395"/>
      <point x="175" y="395" type="curve" smooth="yes"/>
      <point x="177" y="395"/>
      <point x="179" y="393"/>
      <point x="183" y="390" type="curve" smooth="yes"/>
      <point x="192" y="382"/>
      <point x="223" y="349"/>
      <point x="244" y="336" type="curve" smooth="yes"/>
      <point x="248" y="334"/>
      <point x="250" y="330"/>
      <point x="250" y="327" type="curve" smooth="yes"/>
      <point x="250" y="325"/>
      <point x="249" y="323"/>
      <point x="247" y="321" type="curve" smooth="yes"/>
      <point x="235" y="307"/>
      <point x="200" y="268"/>
      <point x="192" y="261" type="curve" smooth="yes"/>
      <point x="189" y="258"/>
      <point x="186" y="257"/>
      <point x="183" y="257" type="curve" smooth="yes"/>
      <point x="181" y="257"/>
      <point x="179" y="258"/>
      <point x="176" y="260" type="curve" smooth="yes"/>
      <point x="152" y="277"/>
      <point x="121" y="308"/>
    </contour>
  </outline>
</glyph>
<glyph name="guillemotright" format="1">
  <advance width="408"/>
  <unicode hex="00BB"/>
  <outline>
    <contour>
      <point x="303" y="189" type="curve" smooth="yes"/>
      <point x="319" y="209"/>
      <point x="342" y="245"/>
      <point x="356" y="270" type="curve" smooth="yes"/>
      <point x="358" y="274"/>
      <point x="360" y="280"/>
      <point x="360" y="285" type="curve" smooth="yes"/>
      <point x="360" y="291"/>
      <point x="358" y="297"/>
      <point x="351" y="308" type="curve" smooth="yes"/>
      <point x="336" y="333"/>
      <point x="302" y="371"/>
      <point x="275" y="394" type="curve" smooth="yes"/>
      <point x="270" y="398"/>
      <point x="267" y="399"/>
      <point x="265" y="399" type="curve" smooth="yes"/>
      <point x="262" y="399"/>
      <point x="258" y="397"/>
      <point x="255" y="394" type="curve" smooth="yes"/>
      <point x="238" y="375"/>
      <point x="225" y="354"/>
      <point x="218" y="342" type="curve"/>
      <point x="218" y="342"/>
      <point x="212" y="331"/>
      <point x="212" y="326" type="curve" smooth="yes"/>
      <point x="212" y="323"/>
      <point x="213" y="318"/>
      <point x="216" y="315" type="curve" smooth="yes"/>
      <point x="261" y="269" type="line" smooth="yes"/>
      <point x="264" y="266"/>
      <point x="266" y="260"/>
      <point x="266" y="257" type="curve" smooth="yes"/>
      <point x="266" y="254"/>
      <point x="266" y="250"/>
      <point x="263" y="245" type="curve" smooth="yes"/>
      <point x="251" y="221"/>
      <point x="235" y="192"/>
      <point x="223" y="167" type="curve" smooth="yes"/>
      <point x="221" y="163"/>
      <point x="220" y="159"/>
      <point x="220" y="156" type="curve" smooth="yes"/>
      <point x="220" y="152"/>
      <point x="224" y="149"/>
      <point x="229" y="149" type="curve" smooth="yes"/>
      <point x="231" y="149"/>
      <point x="235" y="150"/>
      <point x="240" y="152" type="curve" smooth="yes"/>
      <point x="250" y="157"/>
      <point x="273" y="167"/>
      <point x="278" y="170" type="curve" smooth="yes"/>
      <point x="285" y="174"/>
      <point x="294" y="177"/>
    </contour>
    <contour>
      <point x="135" y="189" type="curve" smooth="yes"/>
      <point x="151" y="209"/>
      <point x="174" y="245"/>
      <point x="188" y="270" type="curve" smooth="yes"/>
      <point x="190" y="274"/>
      <point x="192" y="280"/>
      <point x="192" y="285" type="curve" smooth="yes"/>
      <point x="192" y="291"/>
      <point x="190" y="297"/>
      <point x="183" y="308" type="curve" smooth="yes"/>
      <point x="168" y="333"/>
      <point x="134" y="371"/>
      <point x="107" y="394" type="curve" smooth="yes"/>
      <point x="102" y="398"/>
      <point x="99" y="399"/>
      <point x="97" y="399" type="curve" smooth="yes"/>
      <point x="94" y="399"/>
      <point x="90" y="397"/>
      <point x="87" y="394" type="curve" smooth="yes"/>
      <point x="70" y="375"/>
      <point x="57" y="354"/>
      <point x="50" y="342" type="curve"/>
      <point x="50" y="342"/>
      <point x="44" y="331"/>
      <point x="44" y="326" type="curve" smooth="yes"/>
      <point x="44" y="323"/>
      <point x="45" y="318"/>
      <point x="48" y="315" type="curve" smooth="yes"/>
      <point x="93" y="269" type="line" smooth="yes"/>
      <point x="96" y="266"/>
      <point x="98" y="260"/>
      <point x="98" y="257" type="curve" smooth="yes"/>
      <point x="98" y="254"/>
      <point x="98" y="250"/>
      <point x="95" y="245" type="curve" smooth="yes"/>
      <point x="83" y="221"/>
      <point x="67" y="192"/>
      <point x="55" y="167" type="curve" smooth="yes"/>
      <point x="53" y="163"/>
      <point x="52" y="159"/>
      <point x="52" y="156" type="curve" smooth="yes"/>
      <point x="52" y="152"/>
      <point x="56" y="149"/>
      <point x="61" y="149" type="curve" smooth="yes"/>
      <point x="63" y="149"/>
      <point x="67" y="150"/>
      <point x="72" y="152" type="curve" smooth="yes"/>
      <point x="82" y="157"/>
      <point x="105" y="167"/>
      <point x="110" y="170" type="curve" smooth="yes"/>
      <point x="117" y="174"/>
      <point x="126" y="177"/>
    </contour>
  </outline>
</glyph>
<glyph name="multiply" format="1">
  <advance width="568"/>
  <unicode hex="00D7"/>
  <outline>
    <contour>
      <point x="443" y="104" type="curve"/>
      <point x="447" y="99"/>
      <point x="451" y="98"/>
      <point x="454" y="98" type="curve" smooth="yes"/>
      <point x="458" y="98"/>
      <point x="462" y="100"/>
      <point x="466" y="104" type="curve" smooth="yes"/>
      <point x="496" y="134" type="line" smooth="yes"/>
      <point x="500" y="137"/>
      <point x="502" y="141"/>
      <point x="502" y="145" type="curve" smooth="yes"/>
      <point x="502" y="148"/>
      <point x="500" y="152"/>
      <point x="496" y="156" type="curve" smooth="yes"/>
      <point x="496" y="156"/>
      <point x="385" y="262"/>
      <point x="335" y="312" type="curve"/>
      <point x="373" y="349"/>
      <point x="492" y="468"/>
      <point x="492" y="468" type="curve"/>
      <point x="496" y="472"/>
      <point x="498" y="476"/>
      <point x="498" y="479" type="curve" smooth="yes"/>
      <point x="498" y="483"/>
      <point x="496" y="486"/>
      <point x="493" y="490" type="curve" smooth="yes"/>
      <point x="462" y="520" type="line" smooth="yes"/>
      <point x="457" y="525"/>
      <point x="453" y="527"/>
      <point x="450" y="527" type="curve" smooth="yes"/>
      <point x="447" y="527"/>
      <point x="444" y="525"/>
      <point x="441" y="522" type="curve" smooth="yes"/>
      <point x="441" y="522"/>
      <point x="330" y="404"/>
      <point x="286" y="360" type="curve"/>
      <point x="247" y="399"/>
      <point x="132" y="519"/>
      <point x="132" y="519" type="curve"/>
      <point x="128" y="523"/>
      <point x="124" y="525"/>
      <point x="121" y="525" type="curve" smooth="yes"/>
      <point x="117" y="525"/>
      <point x="113" y="523"/>
      <point x="110" y="519" type="curve" smooth="yes"/>
      <point x="80" y="489" type="line" smooth="yes"/>
      <point x="75" y="484"/>
      <point x="74" y="480"/>
      <point x="74" y="477" type="curve" smooth="yes"/>
      <point x="74" y="473"/>
      <point x="76" y="470"/>
      <point x="78" y="468" type="curve" smooth="yes"/>
      <point x="78" y="468"/>
      <point x="193" y="356"/>
      <point x="238" y="312" type="curve"/>
      <point x="187" y="262"/>
      <point x="72" y="153"/>
      <point x="72" y="153" type="curve"/>
      <point x="68" y="149"/>
      <point x="66" y="145"/>
      <point x="66" y="142" type="curve" smooth="yes"/>
      <point x="66" y="138"/>
      <point x="68" y="135"/>
      <point x="72" y="131" type="curve" smooth="yes"/>
      <point x="102" y="100" type="line" smooth="yes"/>
      <point x="106" y="97"/>
      <point x="109" y="95"/>
      <point x="113" y="95" type="curve" smooth="yes"/>
      <point x="116" y="95"/>
      <point x="120" y="97"/>
      <point x="124" y="101" type="curve" smooth="yes"/>
      <point x="124" y="101"/>
      <point x="238" y="213"/>
      <point x="286" y="264" type="curve"/>
      <point x="337" y="211"/>
      <point x="443" y="104"/>
    </contour>
  </outline>
</glyph>
<glyph name="uni0592" format="1">
  <advance width="-2"/>
  <unicode hex="0592"/>
  <outline>
    <contour>
      <point x="122" y="718" type="curve" smooth="yes"/>
      <point x="122" y="741"/>
      <point x="104" y="759"/>
      <point x="82" y="759" type="curve" smooth="yes"/>
      <point x="59" y="759"/>
      <point x="41" y="741"/>
      <point x="41" y="718" type="curve" smooth="yes"/>
      <point x="41" y="696"/>
      <point x="59" y="678"/>
      <point x="82" y="678" type="curve" smooth="yes"/>
      <point x="104" y="678"/>
      <point x="122" y="696"/>
    </contour>
    <contour>
      <point x="263" y="718" type="curve" smooth="yes"/>
      <point x="263" y="741"/>
      <point x="245" y="759"/>
      <point x="222" y="759" type="curve" smooth="yes"/>
      <point x="200" y="759"/>
      <point x="181" y="741"/>
      <point x="181" y="718" type="curve" smooth="yes"/>
      <point x="181" y="696"/>
      <point x="200" y="678"/>
      <point x="222" y="678" type="curve" smooth="yes"/>
      <point x="245" y="678"/>
      <point x="263" y="696"/>
    </contour>
    <contour>
      <point x="192" y="842" type="curve" smooth="yes"/>
      <point x="192" y="865"/>
      <point x="173" y="883"/>
      <point x="151" y="883" type="curve" smooth="yes"/>
      <point x="128" y="883"/>
      <point x="110" y="865"/>
      <point x="110" y="842" type="curve" smooth="yes"/>
      <point x="110" y="820"/>
      <point x="128" y="801"/>
      <point x="151" y="801" type="curve" smooth="yes"/>
      <point x="173" y="801"/>
      <point x="192" y="820"/>
    </contour>
  </outline>
</glyph>
<glyph name="uni05A7" format="1">
  <advance width="0"/>
  <unicode hex="05A7"/>
  <outline>
    <contour>
      <point x="284" y="-259" type="curve" smooth="yes"/>
      <point x="284" y="-302"/>
      <point x="241" y="-327"/>
      <point x="208" y="-327" type="curve" smooth="yes"/>
      <point x="184" y="-327"/>
      <point x="164" y="-324"/>
      <point x="139" y="-299" type="curve" smooth="yes"/>
      <point x="134" y="-294"/>
      <point x="130" y="-288"/>
      <point x="130" y="-283" type="curve" smooth="yes"/>
      <point x="130" y="-280"/>
      <point x="131" y="-278"/>
      <point x="133" y="-276" type="curve" smooth="yes"/>
      <point x="151" y="-256" type="line" smooth="yes"/>
      <point x="154" y="-253"/>
      <point x="157" y="-251"/>
      <point x="160" y="-251" type="curve" smooth="yes"/>
      <point x="163" y="-251"/>
      <point x="167" y="-253"/>
      <point x="170" y="-255" type="curve" smooth="yes"/>
      <point x="185" y="-265"/>
      <point x="190" y="-275"/>
      <point x="207" y="-275" type="curve" smooth="yes"/>
      <point x="215" y="-275"/>
      <point x="225" y="-266"/>
      <point x="225" y="-257" type="curve" smooth="yes"/>
      <point x="225" y="-244"/>
      <point x="218" y="-242"/>
      <point x="202" y="-231" type="curve" smooth="yes"/>
      <point x="185" y="-219"/>
      <point x="175" y="-214"/>
      <point x="158" y="-200" type="curve" smooth="yes"/>
      <point x="141" y="-186"/>
      <point x="131" y="-168"/>
      <point x="131" y="-141" type="curve" smooth="yes"/>
      <point x="131" y="-96"/>
      <point x="164" y="-65"/>
      <point x="207" y="-65" type="curve" smooth="yes"/>
      <point x="237" y="-65"/>
      <point x="258" y="-75"/>
      <point x="279" y="-98" type="curve" smooth="yes"/>
      <point x="283" y="-102"/>
      <point x="285" y="-106"/>
      <point x="285" y="-111" type="curve" smooth="yes"/>
      <point x="285" y="-114"/>
      <point x="283" y="-118"/>
      <point x="281" y="-120" type="curve" smooth="yes"/>
      <point x="266" y="-136" type="line" smooth="yes"/>
      <point x="261" y="-141"/>
      <point x="258" y="-145"/>
      <point x="253" y="-145" type="curve" smooth="yes"/>
      <point x="251" y="-145"/>
      <point x="248" y="-144"/>
      <point x="245" y="-141" type="curve" smooth="yes"/>
      <point x="234" y="-133"/>
      <point x="227" y="-121"/>
      <point x="210" y="-121" type="curve" smooth="yes"/>
      <point x="200" y="-121"/>
      <point x="191" y="-131"/>
      <point x="191" y="-140" type="curve" smooth="yes"/>
      <point x="191" y="-152"/>
      <point x="197" y="-158"/>
      <point x="207" y="-165" type="curve" smooth="yes"/>
      <point x="222" y="-175"/>
      <point x="239" y="-187"/>
      <point x="255" y="-199" type="curve" smooth="yes"/>
      <point x="280" y="-217"/>
      <point x="284" y="-237"/>
    </contour>
  </outline>
</glyph>
<glyph name="alefhebrew" format="1">
  <advance width="726"/>
  <unicode hex="05D0"/>
  <outline>
    <contour>
      <point x="108" y="70" type="curve" smooth="yes"/>
      <point x="107" y="99"/>
      <point x="105" y="124"/>
      <point x="105" y="149" type="curve" smooth="yes"/>
      <point x="105" y="175"/>
      <point x="108" y="209"/>
      <point x="119" y="242" type="curve" smooth="yes"/>
      <point x="129" y="274"/>
      <point x="149" y="325"/>
      <point x="195" y="389" type="curve" smooth="yes"/>
      <point x="198" y="393"/>
      <point x="201" y="398"/>
      <point x="201" y="402" type="curve" smooth="yes"/>
      <point x="201" y="405"/>
      <point x="198" y="409"/>
      <point x="196" y="411" type="curve" smooth="yes"/>
      <point x="160" y="443"/>
      <point x="105" y="482"/>
      <point x="69" y="512" type="curve" smooth="yes"/>
      <point x="67" y="513"/>
      <point x="65" y="517"/>
      <point x="65" y="520" type="curve" smooth="yes"/>
      <point x="65" y="522"/>
      <point x="67" y="526"/>
      <point x="68" y="529" type="curve" smooth="yes"/>
      <point x="72" y="540"/>
      <point x="87" y="572"/>
      <point x="105" y="597" type="curve" smooth="yes"/>
      <point x="107" y="600"/>
      <point x="110" y="603"/>
      <point x="114" y="603" type="curve" smooth="yes"/>
      <point x="115" y="603"/>
      <point x="118" y="602"/>
      <point x="119" y="601" type="curve" smooth="yes"/>
      <point x="203" y="540"/>
      <point x="281" y="474"/>
      <point x="358" y="403" type="curve" smooth="yes"/>
      <point x="448" y="319"/>
      <point x="481" y="284"/>
      <point x="481" y="284" type="curve" smooth="yes"/>
      <point x="483" y="283"/>
      <point x="485" y="281"/>
      <point x="488" y="281" type="curve" smooth="yes"/>
      <point x="490" y="281"/>
      <point x="492" y="282"/>
      <point x="494" y="285" type="curve" smooth="yes"/>
      <point x="517" y="317"/>
      <point x="527" y="377"/>
      <point x="527" y="415" type="curve" smooth="yes"/>
      <point x="527" y="440"/>
      <point x="522" y="472"/>
      <point x="505" y="504" type="curve" smooth="yes"/>
      <point x="503" y="508"/>
      <point x="501" y="511"/>
      <point x="501" y="515" type="curve" smooth="yes"/>
      <point x="501" y="518"/>
      <point x="502" y="522"/>
      <point x="504" y="525" type="curve" smooth="yes"/>
      <point x="516" y="543"/>
      <point x="553" y="583"/>
      <point x="568" y="598" type="curve" smooth="yes"/>
      <point x="571" y="601"/>
      <point x="572" y="603"/>
      <point x="577" y="603" type="curve" smooth="yes"/>
      <point x="579" y="603"/>
      <point x="581" y="601"/>
      <point x="582" y="600" type="curve" smooth="yes"/>
      <point x="600" y="576"/>
      <point x="621" y="537"/>
      <point x="621" y="484" type="curve" smooth="yes"/>
      <point x="621" y="440"/>
      <point x="608" y="405"/>
      <point x="598" y="379" type="curve" smooth="yes"/>
      <point x="585" y="344"/>
      <point x="555" y="292"/>
      <point x="532" y="258" type="curve" smooth="yes"/>
      <point x="527" y="250"/>
      <point x="526" y="244"/>
      <point x="526" y="244" type="curve" smooth="yes"/>
      <point x="526" y="241"/>
      <point x="528" y="237"/>
      <point x="530" y="235" type="curve" smooth="yes"/>
      <point x="558" y="205"/>
      <point x="668" y="86"/>
      <point x="676" y="74" type="curve" smooth="yes"/>
      <point x="678" y="71"/>
      <point x="679" y="68"/>
      <point x="679" y="65" type="curve" smooth="yes"/>
      <point x="679" y="63"/>
      <point x="679" y="60"/>
      <point x="678" y="57" type="curve" smooth="yes"/>
      <point x="672" y="39"/>
      <point x="652" y="-5"/>
      <point x="645" y="-19" type="curve" smooth="yes"/>
      <point x="643" y="-23"/>
      <point x="640" y="-26"/>
      <point x="637" y="-26" type="curve" smooth="yes"/>
      <point x="634" y="-26"/>
      <point x="632" y="-24"/>
      <point x="629" y="-21" type="curve" smooth="yes"/>
      <point x="584" y="36"/>
      <point x="528" y="100"/>
      <point x="500" y="129" type="curve" smooth="yes"/>
      <point x="476" y="154"/>
      <point x="438" y="197"/>
      <point x="396" y="237" type="curve" smooth="yes"/>
      <point x="351" y="281"/>
      <point x="300" y="322"/>
      <point x="254" y="365" type="curve" smooth="yes"/>
      <point x="250" y="369"/>
      <point x="243" y="369"/>
      <point x="243" y="369" type="curve" smooth="yes"/>
      <point x="240" y="369"/>
      <point x="235" y="366"/>
      <point x="233" y="362" type="curve" smooth="yes"/>
      <point x="193" y="281"/>
      <point x="179" y="225"/>
      <point x="179" y="171" type="curve" smooth="yes"/>
      <point x="179" y="146"/>
      <point x="182" y="124"/>
      <point x="197" y="107" type="curve" smooth="yes"/>
      <point x="205" y="96"/>
      <point x="215" y="95"/>
      <point x="230" y="95" type="curve" smooth="yes"/>
      <point x="253" y="95" type="line" smooth="yes"/>
      <point x="261" y="95"/>
      <point x="266" y="94"/>
      <point x="266" y="88" type="curve" smooth="yes"/>
      <point x="266" y="75"/>
      <point x="233" y="19"/>
      <point x="226" y="10" type="curve" smooth="yes"/>
      <point x="221" y="4"/>
      <point x="216" y="0"/>
      <point x="207" y="0" type="curve" smooth="yes"/>
      <point x="92" y="0" type="line" smooth="yes"/>
      <point x="86" y="0"/>
      <point x="85" y="3"/>
      <point x="85" y="6" type="curve" smooth="yes"/>
      <point x="85" y="8"/>
      <point x="85" y="10"/>
      <point x="86" y="11" type="curve" smooth="yes"/>
      <point x="96" y="28"/>
      <point x="108" y="54"/>
    </contour>
  </outline>
</glyph>
<glyph name="bethebrew" format="1">
  <advance width="567"/>
  <unicode hex="05D1"/>
  <outline>
    <contour>
      <point x="42" y="15" type="curve" smooth="yes"/>
      <point x="52" y="33"/>
      <point x="75" y="68"/>
      <point x="85" y="82" type="curve" smooth="yes"/>
      <point x="91" y="90"/>
      <point x="98" y="94"/>
      <point x="104" y="94" type="curve" smooth="yes"/>
      <point x="366" y="94" type="line" smooth="yes"/>
      <point x="378" y="94"/>
      <point x="379" y="106"/>
      <point x="379" y="114" type="curve" smooth="yes"/>
      <point x="379" y="163"/>
      <point x="372" y="378"/>
      <point x="370" y="397" type="curve" smooth="yes"/>
      <point x="367" y="430"/>
      <point x="339" y="457"/>
      <point x="309" y="457" type="curve" smooth="yes"/>
      <point x="65" y="457" type="line" smooth="yes"/>
      <point x="48" y="457"/>
      <point x="40" y="464"/>
      <point x="40" y="478" type="curve" smooth="yes"/>
      <point x="40" y="487"/>
      <point x="56" y="515"/>
      <point x="72" y="537" type="curve" smooth="yes"/>
      <point x="91" y="563"/>
      <point x="100" y="575"/>
      <point x="120" y="597" type="curve" smooth="yes"/>
      <point x="126" y="603"/>
      <point x="129" y="603"/>
      <point x="129" y="603" type="curve" smooth="yes"/>
      <point x="135" y="603"/>
      <point x="138" y="602"/>
      <point x="140" y="594" type="curve" smooth="yes"/>
      <point x="144" y="574"/>
      <point x="151" y="552"/>
      <point x="174" y="552" type="curve" smooth="yes"/>
      <point x="329" y="552" type="line" smooth="yes"/>
      <point x="369" y="552"/>
      <point x="403" y="532"/>
      <point x="421" y="507" type="curve" smooth="yes"/>
      <point x="438" y="483"/>
      <point x="444" y="437"/>
      <point x="445" y="405" type="curve" smooth="yes"/>
      <point x="448" y="318"/>
      <point x="446" y="240"/>
      <point x="450" y="157" type="curve" smooth="yes"/>
      <point x="451" y="137"/>
      <point x="452" y="115"/>
      <point x="464" y="102" type="curve" smooth="yes"/>
      <point x="471" y="95"/>
      <point x="487" y="94"/>
      <point x="519" y="94" type="curve" smooth="yes"/>
      <point x="523" y="94"/>
      <point x="529" y="91"/>
      <point x="529" y="84" type="curve" smooth="yes"/>
      <point x="529" y="82"/>
      <point x="528" y="79"/>
      <point x="527" y="76" type="curve" smooth="yes"/>
      <point x="521" y="64"/>
      <point x="492" y="19"/>
      <point x="482" y="9" type="curve" smooth="yes"/>
      <point x="475" y="2"/>
      <point x="471" y="0"/>
      <point x="455" y="0" type="curve" smooth="yes"/>
      <point x="55" y="0" type="line" smooth="yes"/>
      <point x="46" y="0"/>
      <point x="40" y="3"/>
      <point x="40" y="9" type="curve" smooth="yes"/>
      <point x="40" y="11"/>
      <point x="41" y="13"/>
    </contour>
  </outline>
</glyph>
<glyph name="hehebrew" format="1">
  <advance width="726"/>
  <unicode hex="05D4"/>
  <outline>
    <contour>
      <point x="537" y="377" type="curve" smooth="yes"/>
      <point x="533" y="404"/>
      <point x="522" y="458"/>
      <point x="456" y="458" type="curve" smooth="yes"/>
      <point x="96" y="458" type="line" smooth="yes"/>
      <point x="71" y="458"/>
      <point x="58" y="466"/>
      <point x="58" y="477" type="curve" smooth="yes"/>
      <point x="58" y="481"/>
      <point x="59" y="485"/>
      <point x="62" y="489" type="curve" smooth="yes"/>
      <point x="78" y="514"/>
      <point x="128" y="576"/>
      <point x="151" y="597" type="curve" smooth="yes"/>
      <point x="154" y="600"/>
      <point x="158" y="603"/>
      <point x="161" y="603" type="curve" smooth="yes"/>
      <point x="166" y="603"/>
      <point x="171" y="600"/>
      <point x="173" y="591" type="curve" smooth="yes"/>
      <point x="175" y="582"/>
      <point x="175" y="566"/>
      <point x="183" y="559" type="curve" smooth="yes"/>
      <point x="190" y="553"/>
      <point x="203" y="553"/>
      <point x="212" y="553" type="curve"/>
      <point x="473" y="553" type="line"/>
      <point x="498" y="553"/>
      <point x="527" y="552"/>
      <point x="559" y="527" type="curve" smooth="yes"/>
      <point x="594" y="501"/>
      <point x="608" y="465"/>
      <point x="613" y="420" type="curve" smooth="yes"/>
      <point x="624" y="327"/>
      <point x="626" y="189"/>
      <point x="626" y="79" type="curve" smooth="yes"/>
      <point x="626" y="70"/>
      <point x="626" y="65"/>
      <point x="622" y="55" type="curve" smooth="yes"/>
      <point x="616" y="40"/>
      <point x="587" y="-11"/>
      <point x="576" y="-22" type="curve" smooth="yes"/>
      <point x="573" y="-25"/>
      <point x="571" y="-26"/>
      <point x="568" y="-26" type="curve" smooth="yes"/>
      <point x="562" y="-26"/>
      <point x="558" y="-20"/>
      <point x="558" y="-14" type="curve" smooth="yes"/>
      <point x="553" y="118"/>
      <point x="551" y="290"/>
    </contour>
    <contour>
      <point x="125" y="258" type="curve" smooth="yes"/>
      <point x="125" y="272"/>
      <point x="126" y="280"/>
      <point x="129" y="285" type="curve" smooth="yes"/>
      <point x="139" y="305"/>
      <point x="158" y="335"/>
      <point x="180" y="360" type="curve" smooth="yes"/>
      <point x="182" y="362"/>
      <point x="184" y="363"/>
      <point x="186" y="363" type="curve" smooth="yes"/>
      <point x="191" y="363"/>
      <point x="195" y="359"/>
      <point x="196" y="350" type="curve" smooth="yes"/>
      <point x="204" y="298"/>
      <point x="209" y="99"/>
      <point x="209" y="67" type="curve" smooth="yes"/>
      <point x="209" y="59"/>
      <point x="207" y="52"/>
      <point x="204" y="46" type="curve" smooth="yes"/>
      <point x="192" y="22"/>
      <point x="179" y="0"/>
      <point x="164" y="-19" type="curve" smooth="yes"/>
      <point x="160" y="-24"/>
      <point x="157" y="-26"/>
      <point x="152" y="-26" type="curve" smooth="yes"/>
      <point x="148" y="-26"/>
      <point x="144" y="-22"/>
      <point x="143" y="-14" type="curve" smooth="yes"/>
      <point x="135" y="94"/>
      <point x="125" y="240"/>
    </contour>
  </outline>
</glyph>
<glyph name="tethebrew" format="1">
  <advance width="726"/>
  <unicode hex="05D8"/>
  <outline>
    <contour>
      <point x="189" y="103" type="curve" smooth="yes"/>
      <point x="185" y="117"/>
      <point x="147" y="274"/>
      <point x="139" y="306" type="curve" smooth="yes"/>
      <point x="129" y="348"/>
      <point x="100" y="448"/>
      <point x="60" y="508" type="curve" smooth="yes"/>
      <point x="58" y="511"/>
      <point x="57" y="514"/>
      <point x="57" y="516" type="curve" smooth="yes"/>
      <point x="57" y="519"/>
      <point x="58" y="521"/>
      <point x="63" y="528" type="curve" smooth="yes"/>
      <point x="77" y="547"/>
      <point x="100" y="575"/>
      <point x="126" y="599" type="curve" smooth="yes"/>
      <point x="128" y="601"/>
      <point x="130" y="602"/>
      <point x="133" y="602" type="curve" smooth="yes"/>
      <point x="136" y="602"/>
      <point x="140" y="600"/>
      <point x="143" y="595" type="curve" smooth="yes"/>
      <point x="176" y="537"/>
      <point x="197" y="446"/>
      <point x="208" y="389" type="curve" smooth="yes"/>
      <point x="216" y="348"/>
      <point x="238" y="206"/>
      <point x="254" y="155" type="curve" smooth="yes"/>
      <point x="262" y="131"/>
      <point x="272" y="104"/>
      <point x="286" y="95" type="curve" smooth="yes"/>
      <point x="305" y="84"/>
      <point x="323" y="83"/>
      <point x="349" y="83" type="curve" smooth="yes"/>
      <point x="406" y="83"/>
      <point x="491" y="108"/>
      <point x="523" y="135" type="curve" smooth="yes"/>
      <point x="579" y="180"/>
      <point x="599" y="253"/>
      <point x="599" y="320" type="curve" smooth="yes"/>
      <point x="599" y="410"/>
      <point x="547" y="484"/>
      <point x="453" y="484" type="curve" smooth="yes"/>
      <point x="394" y="484"/>
      <point x="352" y="450"/>
      <point x="326" y="429" type="curve" smooth="yes"/>
      <point x="318" y="423"/>
      <point x="314" y="422"/>
      <point x="311" y="422" type="curve" smooth="yes"/>
      <point x="305" y="422"/>
      <point x="300" y="426"/>
      <point x="300" y="431" type="curve" smooth="yes"/>
      <point x="300" y="439"/>
      <point x="332" y="511"/>
      <point x="338" y="520" type="curve" smooth="yes"/>
      <point x="340" y="523"/>
      <point x="343" y="530"/>
      <point x="352" y="536" type="curve" smooth="yes"/>
      <point x="391" y="561"/>
      <point x="433" y="580"/>
      <point x="488" y="580" type="curve" smooth="yes"/>
      <point x="600" y="580"/>
      <point x="672" y="474"/>
      <point x="672" y="367" type="curve" smooth="yes"/>
      <point x="672" y="279"/>
      <point x="644" y="216"/>
      <point x="597" y="145" type="curve" smooth="yes"/>
      <point x="532" y="47"/>
      <point x="426" y="-17"/>
      <point x="307" y="-17" type="curve" smooth="yes"/>
      <point x="265" y="-17"/>
      <point x="235" y="-3"/>
      <point x="217" y="27" type="curve" smooth="yes"/>
      <point x="205" y="47"/>
      <point x="198" y="68"/>
    </contour>
  </outline>
</glyph>
<glyph name="finalkafhebrew" format="1">
  <advance width="567"/>
  <unicode hex="05DA"/>
  <outline>
    <contour>
      <point x="326" y="433" type="curve" smooth="yes"/>
      <point x="324" y="449"/>
      <point x="319" y="458"/>
      <point x="299" y="458" type="curve" smooth="yes"/>
      <point x="71" y="458" type="line" smooth="yes"/>
      <point x="58" y="458"/>
      <point x="45" y="464"/>
      <point x="45" y="475" type="curve" smooth="yes"/>
      <point x="45" y="485"/>
      <point x="106" y="581"/>
      <point x="118" y="594" type="curve" smooth="yes"/>
      <point x="122" y="599"/>
      <point x="127" y="603"/>
      <point x="131" y="603" type="curve" smooth="yes"/>
      <point x="138" y="603"/>
      <point x="142" y="596"/>
      <point x="145" y="585" type="curve" smooth="yes"/>
      <point x="151" y="561"/>
      <point x="156" y="553"/>
      <point x="183" y="553" type="curve" smooth="yes"/>
      <point x="484" y="553" type="line" smooth="yes"/>
      <point x="497" y="553"/>
      <point x="504" y="553"/>
      <point x="504" y="546" type="curve" smooth="yes"/>
      <point x="504" y="545"/>
      <point x="503" y="541"/>
      <point x="502" y="538" type="curve" smooth="yes"/>
      <point x="495" y="517"/>
      <point x="484" y="491"/>
      <point x="472" y="469" type="curve" smooth="yes"/>
      <point x="467" y="460"/>
      <point x="463" y="460"/>
      <point x="457" y="458" type="curve" smooth="yes"/>
      <point x="436" y="451"/>
      <point x="413" y="450"/>
      <point x="413" y="419" type="curve" smooth="yes"/>
      <point x="413" y="389"/>
      <point x="413" y="302"/>
      <point x="417" y="215" type="curve" smooth="yes"/>
      <point x="421" y="125"/>
      <point x="424" y="36"/>
      <point x="424" y="-52" type="curve" smooth="yes"/>
      <point x="424" y="-76"/>
      <point x="423" y="-100"/>
      <point x="423" y="-124" type="curve" smooth="yes"/>
      <point x="423" y="-139"/>
      <point x="422" y="-145"/>
      <point x="417" y="-156" type="curve" smooth="yes"/>
      <point x="411" y="-169"/>
      <point x="386" y="-213"/>
      <point x="373" y="-225" type="curve" smooth="yes"/>
      <point x="370" y="-228"/>
      <point x="368" y="-229"/>
      <point x="365" y="-229" type="curve" smooth="yes"/>
      <point x="360" y="-229"/>
      <point x="355" y="-223"/>
      <point x="355" y="-216" type="curve" smooth="yes"/>
      <point x="351" y="-127"/>
      <point x="340" y="308"/>
    </contour>
  </outline>
</glyph>
<glyph name="kafhebrew" format="1">
  <advance width="567"/>
  <unicode hex="05DB"/>
  <outline>
    <contour>
      <point x="44" y="15" type="curve" smooth="yes"/>
      <point x="52" y="28"/>
      <point x="92" y="82"/>
      <point x="96" y="87" type="curve" smooth="yes"/>
      <point x="100" y="91"/>
      <point x="102" y="93"/>
      <point x="111" y="93" type="curve" smooth="yes"/>
      <point x="123" y="93"/>
      <point x="313" y="94"/>
      <point x="350" y="94" type="curve" smooth="yes"/>
      <point x="370" y="94"/>
      <point x="393" y="100"/>
      <point x="408" y="128" type="curve" smooth="yes"/>
      <point x="427" y="163"/>
      <point x="431" y="226"/>
      <point x="431" y="266" type="curve" smooth="yes"/>
      <point x="431" y="371"/>
      <point x="374" y="459"/>
      <point x="272" y="459" type="curve" smooth="yes"/>
      <point x="69" y="459" type="line" smooth="yes"/>
      <point x="55" y="459"/>
      <point x="40" y="462"/>
      <point x="40" y="473" type="curve" smooth="yes"/>
      <point x="40" y="476"/>
      <point x="41" y="479"/>
      <point x="43" y="483" type="curve" smooth="yes"/>
      <point x="59" y="514"/>
      <point x="107" y="577"/>
      <point x="123" y="596" type="curve" smooth="yes"/>
      <point x="127" y="601"/>
      <point x="131" y="603"/>
      <point x="136" y="603" type="curve" smooth="yes"/>
      <point x="142" y="603"/>
      <point x="148" y="599"/>
      <point x="150" y="593" type="curve" smooth="yes"/>
      <point x="152" y="584"/>
      <point x="157" y="564"/>
      <point x="164" y="559" type="curve" smooth="yes"/>
      <point x="172" y="553"/>
      <point x="185" y="552"/>
      <point x="195" y="552" type="curve" smooth="yes"/>
      <point x="291" y="552" type="line" smooth="yes"/>
      <point x="423" y="552"/>
      <point x="508" y="456"/>
      <point x="508" y="308" type="curve" smooth="yes"/>
      <point x="508" y="275"/>
      <point x="501" y="238"/>
      <point x="492" y="213" type="curve" smooth="yes"/>
      <point x="469" y="146"/>
      <point x="416" y="61"/>
      <point x="365" y="14" type="curve" smooth="yes"/>
      <point x="358" y="8"/>
      <point x="348" y="0"/>
      <point x="336" y="0" type="curve" smooth="yes"/>
      <point x="51" y="0" type="line" smooth="yes"/>
      <point x="46" y="0"/>
      <point x="42" y="3"/>
      <point x="42" y="8" type="curve" smooth="yes"/>
      <point x="42" y="10"/>
      <point x="43" y="13"/>
    </contour>
  </outline>
</glyph>
<glyph name="lamedhebrew" format="1">
  <advance width="567"/>
  <unicode hex="05DC"/>
  <outline>
    <contour>
      <point x="139" y="69" type="curve" smooth="yes"/>
      <point x="144" y="75"/>
      <point x="147" y="82"/>
      <point x="160" y="85" type="curve" smooth="yes"/>
      <point x="231" y="103"/>
      <point x="308" y="132"/>
      <point x="356" y="180" type="curve" smooth="yes"/>
      <point x="406" y="230"/>
      <point x="419" y="314"/>
      <point x="419" y="373" type="curve" smooth="yes"/>
      <point x="419" y="402"/>
      <point x="410" y="431"/>
      <point x="404" y="440" type="curve" smooth="yes"/>
      <point x="396" y="454"/>
      <point x="386" y="458"/>
      <point x="369" y="458" type="curve"/>
      <point x="103" y="458" type="line"/>
      <point x="87" y="458"/>
      <point x="75" y="469"/>
      <point x="69" y="482" type="curve" smooth="yes"/>
      <point x="65" y="491"/>
      <point x="61" y="505"/>
      <point x="61" y="536" type="curve" smooth="yes"/>
      <point x="61" y="568"/>
      <point x="55" y="643"/>
      <point x="40" y="680" type="curve" smooth="yes"/>
      <point x="38" y="685"/>
      <point x="37" y="688"/>
      <point x="37" y="690" type="curve" smooth="yes"/>
      <point x="37" y="694"/>
      <point x="40" y="698"/>
      <point x="43" y="703" type="curve" smooth="yes"/>
      <point x="56" y="725"/>
      <point x="78" y="752"/>
      <point x="91" y="765" type="curve" smooth="yes"/>
      <point x="93" y="767"/>
      <point x="95" y="769"/>
      <point x="97" y="769" type="curve" smooth="yes"/>
      <point x="100" y="769"/>
      <point x="104" y="766"/>
      <point x="108" y="760" type="curve" smooth="yes"/>
      <point x="123" y="738"/>
      <point x="131" y="691"/>
      <point x="131" y="654" type="curve" smooth="yes"/>
      <point x="131" y="596"/>
      <point x="131" y="575"/>
      <point x="139" y="564" type="curve" smooth="yes"/>
      <point x="147" y="553"/>
      <point x="158" y="553"/>
      <point x="171" y="553" type="curve"/>
      <point x="414" y="553" type="line"/>
      <point x="483" y="553"/>
      <point x="498" y="482"/>
      <point x="498" y="431" type="curve" smooth="yes"/>
      <point x="498" y="369"/>
      <point x="477" y="308"/>
      <point x="477" y="308" type="curve" smooth="yes"/>
      <point x="457" y="237"/>
      <point x="382" y="110"/>
      <point x="325" y="68" type="curve" smooth="yes"/>
      <point x="288" y="40"/>
      <point x="217" y="8"/>
      <point x="128" y="-12" type="curve" smooth="yes"/>
      <point x="119" y="-14"/>
      <point x="111" y="-15"/>
      <point x="109" y="-15" type="curve" smooth="yes"/>
      <point x="101" y="-15"/>
      <point x="98" y="-12"/>
      <point x="98" y="-6" type="curve" smooth="yes"/>
      <point x="98" y="4"/>
      <point x="131" y="58"/>
    </contour>
  </outline>
</glyph>
<glyph name="memhebrew" format="1">
  <advance width="726"/>
  <unicode hex="05DE"/>
  <outline>
    <contour>
      <point x="159" y="292" type="curve" smooth="yes"/>
      <point x="159" y="330"/>
      <point x="147" y="384"/>
      <point x="125" y="423" type="curve" smooth="yes"/>
      <point x="106" y="457"/>
      <point x="79" y="484"/>
      <point x="70" y="497" type="curve" smooth="yes"/>
      <point x="68" y="500"/>
      <point x="66" y="502"/>
      <point x="66" y="506" type="curve" smooth="yes"/>
      <point x="66" y="508"/>
      <point x="68" y="512"/>
      <point x="70" y="515" type="curve" smooth="yes"/>
      <point x="85" y="539"/>
      <point x="109" y="573"/>
      <point x="136" y="600" type="curve" smooth="yes"/>
      <point x="138" y="602"/>
      <point x="141" y="603"/>
      <point x="143" y="603" type="curve" smooth="yes"/>
      <point x="145" y="603"/>
      <point x="148" y="601"/>
      <point x="149" y="600" type="curve" smooth="yes"/>
      <point x="197" y="546"/>
      <point x="238" y="448"/>
      <point x="238" y="374" type="curve" smooth="yes"/>
      <point x="238" y="371"/>
      <point x="239" y="370"/>
      <point x="240" y="370" type="curve" smooth="yes"/>
      <point x="241" y="370"/>
      <point x="242" y="370"/>
      <point x="243" y="372" type="curve" smooth="yes"/>
      <point x="283" y="462"/>
      <point x="347" y="570"/>
      <point x="454" y="570" type="curve" smooth="yes"/>
      <point x="544" y="570"/>
      <point x="602" y="492"/>
      <point x="625" y="415" type="curve" smooth="yes"/>
      <point x="642" y="359"/>
      <point x="651" y="264"/>
      <point x="651" y="206" type="curve" smooth="yes"/>
      <point x="651" y="206"/>
      <point x="651" y="160"/>
      <point x="644" y="131" type="curve" smooth="yes"/>
      <point x="637" y="97"/>
      <point x="607" y="36"/>
      <point x="594" y="17" type="curve" smooth="yes"/>
      <point x="586" y="5"/>
      <point x="581" y="0"/>
      <point x="568" y="0" type="curve"/>
      <point x="268" y="0" type="line"/>
      <point x="258" y="0"/>
      <point x="254" y="4"/>
      <point x="254" y="9" type="curve" smooth="yes"/>
      <point x="254" y="11"/>
      <point x="254" y="13"/>
      <point x="256" y="16" type="curve" smooth="yes"/>
      <point x="261" y="25"/>
      <point x="301" y="77"/>
      <point x="306" y="82" type="curve" smooth="yes"/>
      <point x="311" y="87"/>
      <point x="315" y="94"/>
      <point x="329" y="94" type="curve"/>
      <point x="567" y="94" type="line"/>
      <point x="575" y="94"/>
      <point x="586" y="94"/>
      <point x="586" y="113" type="curve" smooth="yes"/>
      <point x="586" y="156"/>
      <point x="576" y="306"/>
      <point x="544" y="382" type="curve" smooth="yes"/>
      <point x="524" y="430"/>
      <point x="474" y="470"/>
      <point x="416" y="470" type="curve" smooth="yes"/>
      <point x="343" y="470"/>
      <point x="284" y="397"/>
      <point x="257" y="334" type="curve" smooth="yes"/>
      <point x="251" y="319"/>
      <point x="229" y="245"/>
      <point x="222" y="219" type="curve" smooth="yes"/>
      <point x="215" y="193"/>
      <point x="191" y="109"/>
      <point x="179" y="79" type="curve" smooth="yes"/>
      <point x="176" y="71"/>
      <point x="172" y="64"/>
      <point x="169" y="60" type="curve" smooth="yes"/>
      <point x="161" y="50"/>
      <point x="126" y="0"/>
      <point x="100" y="-23" type="curve" smooth="yes"/>
      <point x="98" y="-25"/>
      <point x="94" y="-26"/>
      <point x="92" y="-26" type="curve" smooth="yes"/>
      <point x="89" y="-26"/>
      <point x="86" y="-24"/>
      <point x="86" y="-16" type="curve" smooth="yes"/>
      <point x="86" y="10"/>
      <point x="159" y="175"/>
    </contour>
  </outline>
</glyph>
<glyph name="finalnunhebrew" format="1">
  <advance width="407"/>
  <unicode hex="05DF"/>
  <outline>
    <contour>
      <point x="253" y="-220" type="curve"/>
      <point x="251" y="-17"/>
      <point x="249" y="164"/>
      <point x="238" y="322" type="curve" smooth="yes"/>
      <point x="236" y="352"/>
      <point x="233" y="379"/>
      <point x="205" y="404" type="curve" smooth="yes"/>
      <point x="166" y="439"/>
      <point x="96" y="480"/>
      <point x="58" y="498" type="curve" smooth="yes"/>
      <point x="52" y="501"/>
      <point x="46" y="505"/>
      <point x="46" y="511" type="curve" smooth="yes"/>
      <point x="46" y="514"/>
      <point x="50" y="522"/>
      <point x="54" y="527" type="curve" smooth="yes"/>
      <point x="68" y="545"/>
      <point x="95" y="580"/>
      <point x="110" y="598" type="curve" smooth="yes"/>
      <point x="113" y="601"/>
      <point x="115" y="603"/>
      <point x="118" y="603" type="curve" smooth="yes"/>
      <point x="120" y="603"/>
      <point x="124" y="601"/>
      <point x="128" y="599" type="curve" smooth="yes"/>
      <point x="161" y="583"/>
      <point x="229" y="540"/>
      <point x="262" y="511" type="curve" smooth="yes"/>
      <point x="286" y="490"/>
      <point x="302" y="475"/>
      <point x="311" y="431" type="curve" smooth="yes"/>
      <point x="321" y="382"/>
      <point x="323" y="218"/>
      <point x="323" y="63" type="curve" smooth="yes"/>
      <point x="323" y="-8"/>
      <point x="323" y="-76"/>
      <point x="322" y="-131" type="curve" smooth="yes"/>
      <point x="322" y="-153"/>
      <point x="319" y="-160"/>
      <point x="315" y="-167" type="curve" smooth="yes"/>
      <point x="299" y="-193"/>
      <point x="285" y="-211"/>
      <point x="269" y="-227" type="curve" smooth="yes"/>
      <point x="267" y="-229"/>
      <point x="264" y="-231"/>
      <point x="262" y="-231" type="curve" smooth="yes"/>
      <point x="257" y="-231"/>
      <point x="253" y="-227"/>
    </contour>
  </outline>
</glyph>
<glyph name="samekhhebrew" format="1">
  <advance width="726"/>
  <unicode hex="05E1"/>
  <outline>
    <contour>
      <point x="125" y="388" type="curve" smooth="yes"/>
      <point x="114" y="428"/>
      <point x="104" y="444"/>
      <point x="93" y="449" type="curve" smooth="yes"/>
      <point x="86" y="452"/>
      <point x="76" y="455"/>
      <point x="63" y="458" type="curve" smooth="yes"/>
      <point x="59" y="459"/>
      <point x="53" y="463"/>
      <point x="53" y="470" type="curve" smooth="yes"/>
      <point x="53" y="473"/>
      <point x="55" y="477"/>
      <point x="57" y="480" type="curve" smooth="yes"/>
      <point x="77" y="513"/>
      <point x="130" y="584"/>
      <point x="152" y="599" type="curve" smooth="yes"/>
      <point x="155" y="601"/>
      <point x="160" y="603"/>
      <point x="164" y="603" type="curve" smooth="yes"/>
      <point x="168" y="603"/>
      <point x="173" y="600"/>
      <point x="175" y="593" type="curve" smooth="yes"/>
      <point x="179" y="580"/>
      <point x="180" y="565"/>
      <point x="186" y="559" type="curve" smooth="yes"/>
      <point x="193" y="552"/>
      <point x="209" y="552"/>
      <point x="216" y="552" type="curve"/>
      <point x="562" y="552" type="line"/>
      <point x="644" y="552"/>
      <point x="663" y="508"/>
      <point x="663" y="426" type="curve" smooth="yes"/>
      <point x="663" y="280"/>
      <point x="567" y="124"/>
      <point x="452" y="40" type="curve" smooth="yes"/>
      <point x="402" y="3"/>
      <point x="337" y="-13"/>
      <point x="297" y="-13" type="curve" smooth="yes"/>
      <point x="240" y="-13"/>
      <point x="221" y="27"/>
      <point x="205" y="74" type="curve" smooth="yes"/>
      <point x="173" y="168"/>
      <point x="151" y="283"/>
    </contour>
    <contour>
      <point x="327" y="83" type="curve" smooth="yes"/>
      <point x="389" y="83"/>
      <point x="439" y="105"/>
      <point x="477" y="134" type="curve" smooth="yes"/>
      <point x="560" y="200"/>
      <point x="579" y="279"/>
      <point x="579" y="381" type="curve" smooth="yes"/>
      <point x="579" y="438"/>
      <point x="561" y="457"/>
      <point x="509" y="457" type="curve"/>
      <point x="207" y="457" type="line"/>
      <point x="200" y="457"/>
      <point x="199" y="451"/>
      <point x="199" y="447" type="curve" smooth="yes"/>
      <point x="199" y="444"/>
      <point x="242" y="198"/>
      <point x="273" y="122" type="curve" smooth="yes"/>
      <point x="286" y="91"/>
      <point x="307" y="83"/>
    </contour>
  </outline>
</glyph>
<glyph name="pehebrew" format="1">
  <advance width="567"/>
  <unicode hex="05E4"/>
  <outline>
    <contour>
      <point x="46" y="22" type="curve" smooth="yes"/>
      <point x="57" y="40"/>
      <point x="73" y="64"/>
      <point x="89" y="86" type="curve" smooth="yes"/>
      <point x="94" y="92"/>
      <point x="98" y="95"/>
      <point x="106" y="95" type="curve"/>
      <point x="403" y="95" type="line" smooth="yes"/>
      <point x="411" y="95"/>
      <point x="423" y="101"/>
      <point x="423" y="113" type="curve" smooth="yes"/>
      <point x="422" y="156"/>
      <point x="418" y="285"/>
      <point x="408" y="334" type="curve" smooth="yes"/>
      <point x="404" y="354"/>
      <point x="398" y="384"/>
      <point x="371" y="413" type="curve" smooth="yes"/>
      <point x="345" y="441"/>
      <point x="267" y="474"/>
      <point x="198" y="500" type="curve" smooth="yes"/>
      <point x="193" y="502"/>
      <point x="189" y="502"/>
      <point x="186" y="502" type="curve" smooth="yes"/>
      <point x="181" y="502"/>
      <point x="176" y="500"/>
      <point x="172" y="495" type="curve" smooth="yes"/>
      <point x="151" y="468"/>
      <point x="139" y="442"/>
      <point x="139" y="404" type="curve" smooth="yes"/>
      <point x="139" y="350"/>
      <point x="187" y="323"/>
      <point x="232" y="307" type="curve" smooth="yes"/>
      <point x="235" y="306"/>
      <point x="239" y="304"/>
      <point x="239" y="299" type="curve" smooth="yes"/>
      <point x="239" y="297"/>
      <point x="238" y="295"/>
      <point x="237" y="293" type="curve" smooth="yes"/>
      <point x="224" y="269"/>
      <point x="204" y="243"/>
      <point x="193" y="229" type="curve" smooth="yes"/>
      <point x="191" y="227"/>
      <point x="189" y="226"/>
      <point x="186" y="226" type="curve" smooth="yes"/>
      <point x="184" y="226"/>
      <point x="183" y="227"/>
      <point x="181" y="227" type="curve" smooth="yes"/>
      <point x="111" y="243"/>
      <point x="64" y="302"/>
      <point x="64" y="361" type="curve" smooth="yes"/>
      <point x="64" y="459"/>
      <point x="146" y="539"/>
      <point x="207" y="595" type="curve" smooth="yes"/>
      <point x="212" y="600"/>
      <point x="216" y="603"/>
      <point x="220" y="603" type="curve" smooth="yes"/>
      <point x="223" y="603"/>
      <point x="229" y="600"/>
      <point x="234" y="598" type="curve" smooth="yes"/>
      <point x="304" y="570"/>
      <point x="375" y="541"/>
      <point x="407" y="516" type="curve" smooth="yes"/>
      <point x="444" y="487"/>
      <point x="469" y="441"/>
      <point x="475" y="410" type="curve" smooth="yes"/>
      <point x="488" y="346"/>
      <point x="489" y="248"/>
      <point x="489" y="177" type="curve" smooth="yes"/>
      <point x="489" y="150"/>
      <point x="488" y="137"/>
      <point x="479" y="115" type="curve" smooth="yes"/>
      <point x="468" y="86"/>
      <point x="457" y="53"/>
      <point x="431" y="12" type="curve" smooth="yes"/>
      <point x="423" y="0"/>
      <point x="420" y="0"/>
      <point x="397" y="0" type="curve"/>
      <point x="54" y="0" type="line"/>
      <point x="44" y="0"/>
      <point x="41" y="5"/>
      <point x="41" y="10" type="curve" smooth="yes"/>
      <point x="41" y="13"/>
      <point x="43" y="17"/>
    </contour>
  </outline>
</glyph>
<glyph name="finaltsadihebrew" format="1">
  <advance width="569"/>
  <unicode hex="05E5"/>
  <outline>
    <contour>
      <point x="209" y="358" type="curve" smooth="yes"/>
      <point x="169" y="406"/>
      <point x="94" y="481"/>
      <point x="61" y="508" type="curve" smooth="yes"/>
      <point x="56" y="512"/>
      <point x="54" y="515"/>
      <point x="54" y="520" type="curve" smooth="yes"/>
      <point x="54" y="523"/>
      <point x="55" y="525"/>
      <point x="57" y="529" type="curve" smooth="yes"/>
      <point x="67" y="550"/>
      <point x="92" y="588"/>
      <point x="103" y="599" type="curve" smooth="yes"/>
      <point x="105" y="601"/>
      <point x="108" y="603"/>
      <point x="111" y="603" type="curve" smooth="yes"/>
      <point x="114" y="603"/>
      <point x="117" y="601"/>
      <point x="120" y="599" type="curve" smooth="yes"/>
      <point x="140" y="584"/>
      <point x="207" y="515"/>
      <point x="236" y="479" type="curve" smooth="yes"/>
      <point x="285" y="417"/>
      <point x="329" y="352"/>
      <point x="355" y="307" type="curve" smooth="yes"/>
      <point x="358" y="302"/>
      <point x="361" y="299"/>
      <point x="364" y="299" type="curve" smooth="yes"/>
      <point x="367" y="299"/>
      <point x="370" y="302"/>
      <point x="373" y="305" type="curve" smooth="yes"/>
      <point x="389" y="325"/>
      <point x="398" y="384"/>
      <point x="398" y="423" type="curve" smooth="yes"/>
      <point x="398" y="441"/>
      <point x="396" y="469"/>
      <point x="386" y="496" type="curve" smooth="yes"/>
      <point x="385" y="499"/>
      <point x="384" y="503"/>
      <point x="384" y="506" type="curve" smooth="yes"/>
      <point x="384" y="509"/>
      <point x="385" y="511"/>
      <point x="387" y="515" type="curve" smooth="yes"/>
      <point x="396" y="530"/>
      <point x="435" y="581"/>
      <point x="454" y="597" type="curve" smooth="yes"/>
      <point x="457" y="600"/>
      <point x="461" y="603"/>
      <point x="464" y="603" type="curve" smooth="yes"/>
      <point x="468" y="603"/>
      <point x="472" y="598"/>
      <point x="475" y="592" type="curve" smooth="yes"/>
      <point x="491" y="554"/>
      <point x="500" y="516"/>
      <point x="500" y="478" type="curve" smooth="yes"/>
      <point x="500" y="385"/>
      <point x="453" y="321"/>
      <point x="394" y="256" type="curve" smooth="yes"/>
      <point x="392" y="254"/>
      <point x="391" y="251"/>
      <point x="391" y="248" type="curve" smooth="yes"/>
      <point x="391" y="245"/>
      <point x="392" y="242"/>
      <point x="393" y="240" type="curve" smooth="yes"/>
      <point x="467" y="104"/>
      <point x="491" y="2"/>
      <point x="518" y="-121" type="curve" smooth="yes"/>
      <point x="520" y="-130"/>
      <point x="520" y="-133"/>
      <point x="520" y="-137" type="curve" smooth="yes"/>
      <point x="520" y="-142"/>
      <point x="519" y="-147"/>
      <point x="517" y="-154" type="curve" smooth="yes"/>
      <point x="509" y="-180"/>
      <point x="505" y="-190"/>
      <point x="491" y="-219" type="curve" smooth="yes"/>
      <point x="487" y="-228"/>
      <point x="483" y="-231"/>
      <point x="479" y="-231" type="curve" smooth="yes"/>
      <point x="474" y="-231"/>
      <point x="471" y="-226"/>
      <point x="470" y="-222" type="curve" smooth="yes"/>
      <point x="424" y="-12"/>
      <point x="345" y="192"/>
    </contour>
  </outline>
</glyph>
<glyph name="tsadihebrew" format="1">
  <advance width="567"/>
  <unicode hex="05E6"/>
  <outline>
    <contour>
      <point x="84" y="80" type="curve" smooth="yes"/>
      <point x="90" y="88"/>
      <point x="95" y="95"/>
      <point x="107" y="95" type="curve"/>
      <point x="396" y="95" type="line"/>
      <point x="410" y="95"/>
      <point x="413" y="99"/>
      <point x="413" y="107" type="curve" smooth="yes"/>
      <point x="413" y="112"/>
      <point x="412" y="120"/>
      <point x="405" y="127" type="curve" smooth="yes"/>
      <point x="361" y="175"/>
      <point x="301" y="226"/>
      <point x="272" y="253" type="curve" smooth="yes"/>
      <point x="259" y="266"/>
      <point x="142" y="371"/>
      <point x="120" y="394" type="curve" smooth="yes"/>
      <point x="95" y="421"/>
      <point x="69" y="449"/>
      <point x="40" y="500" type="curve" smooth="yes"/>
      <point x="38" y="503"/>
      <point x="37" y="505"/>
      <point x="37" y="507" type="curve" smooth="yes"/>
      <point x="37" y="511"/>
      <point x="40" y="515"/>
      <point x="40" y="515" type="curve" smooth="yes"/>
      <point x="71" y="562"/>
      <point x="85" y="576"/>
      <point x="103" y="598" type="curve" smooth="yes"/>
      <point x="105" y="600"/>
      <point x="109" y="603"/>
      <point x="111" y="603" type="curve" smooth="yes"/>
      <point x="114" y="603"/>
      <point x="118" y="601"/>
      <point x="120" y="596" type="curve" smooth="yes"/>
      <point x="140" y="546"/>
      <point x="165" y="503"/>
      <point x="196" y="460" type="curve" smooth="yes"/>
      <point x="234" y="409"/>
      <point x="282" y="363"/>
      <point x="332" y="323" type="curve" smooth="yes"/>
      <point x="337" y="319"/>
      <point x="340" y="318"/>
      <point x="344" y="318" type="curve" smooth="yes"/>
      <point x="352" y="318"/>
      <point x="359" y="325"/>
      <point x="365" y="335" type="curve" smooth="yes"/>
      <point x="375" y="353"/>
      <point x="387" y="381"/>
      <point x="387" y="432" type="curve" smooth="yes"/>
      <point x="387" y="461"/>
      <point x="378" y="487"/>
      <point x="376" y="491" type="curve" smooth="yes"/>
      <point x="374" y="496"/>
      <point x="372" y="500"/>
      <point x="372" y="503" type="curve" smooth="yes"/>
      <point x="372" y="507"/>
      <point x="374" y="510"/>
      <point x="376" y="513" type="curve" smooth="yes"/>
      <point x="391" y="534"/>
      <point x="426" y="578"/>
      <point x="445" y="597" type="curve" smooth="yes"/>
      <point x="449" y="601"/>
      <point x="451" y="603"/>
      <point x="454" y="603" type="curve" smooth="yes"/>
      <point x="458" y="603"/>
      <point x="461" y="599"/>
      <point x="463" y="595" type="curve" smooth="yes"/>
      <point x="473" y="576"/>
      <point x="489" y="539"/>
      <point x="489" y="485" type="curve" smooth="yes"/>
      <point x="489" y="422"/>
      <point x="451" y="351"/>
      <point x="395" y="287" type="curve" smooth="yes"/>
      <point x="393" y="285"/>
      <point x="390" y="280"/>
      <point x="390" y="275" type="curve" smooth="yes"/>
      <point x="390" y="273"/>
      <point x="390" y="270"/>
      <point x="392" y="268" type="curve" smooth="yes"/>
      <point x="440" y="225"/>
      <point x="476" y="190"/>
      <point x="488" y="174" type="curve" smooth="yes"/>
      <point x="498" y="161"/>
      <point x="501" y="147"/>
      <point x="501" y="137" type="curve" smooth="yes"/>
      <point x="501" y="126"/>
      <point x="497" y="111"/>
      <point x="489" y="96" type="curve" smooth="yes"/>
      <point x="480" y="80"/>
      <point x="465" y="48"/>
      <point x="443" y="17" type="curve" smooth="yes"/>
      <point x="432" y="1"/>
      <point x="425" y="0"/>
      <point x="409" y="0" type="curve" smooth="yes"/>
      <point x="50" y="0" type="line"/>
      <point x="38" y="0"/>
      <point x="34" y="5"/>
      <point x="34" y="10" type="curve" smooth="yes"/>
      <point x="34" y="12"/>
      <point x="36" y="16"/>
      <point x="37" y="17" type="curve" smooth="yes"/>
      <point x="59" y="50"/>
      <point x="66" y="56"/>
    </contour>
  </outline>
</glyph>
<glyph name="shinhebrew" format="1">
  <advance width="726"/>
  <unicode hex="05E9"/>
  <outline>
    <contour>
      <point x="166" y="158" type="curve" smooth="yes"/>
      <point x="141" y="286"/>
      <point x="116" y="412"/>
      <point x="58" y="510" type="curve" smooth="yes"/>
      <point x="56" y="513"/>
      <point x="55" y="516"/>
      <point x="55" y="518" type="curve" smooth="yes"/>
      <point x="55" y="521"/>
      <point x="56" y="523"/>
      <point x="58" y="527" type="curve" smooth="yes"/>
      <point x="67" y="542"/>
      <point x="94" y="580"/>
      <point x="110" y="596" type="curve" smooth="yes"/>
      <point x="115" y="601"/>
      <point x="118" y="603"/>
      <point x="122" y="603" type="curve" smooth="yes"/>
      <point x="129" y="603"/>
      <point x="133" y="596"/>
      <point x="135" y="592" type="curve" smooth="yes"/>
      <point x="160" y="539"/>
      <point x="191" y="429"/>
      <point x="200" y="389" type="curve"/>
      <point x="226" y="264" type="line"/>
      <point x="227" y="260"/>
      <point x="231" y="257"/>
      <point x="236" y="257" type="curve" smooth="yes"/>
      <point x="254" y="257"/>
      <point x="332" y="299"/>
      <point x="332" y="372" type="curve" smooth="yes"/>
      <point x="332" y="426"/>
      <point x="330" y="444"/>
      <point x="311" y="488" type="curve" smooth="yes"/>
      <point x="309" y="494"/>
      <point x="307" y="498"/>
      <point x="307" y="502" type="curve" smooth="yes"/>
      <point x="307" y="506"/>
      <point x="308" y="510"/>
      <point x="312" y="516" type="curve" smooth="yes"/>
      <point x="331" y="545"/>
      <point x="367" y="585"/>
      <point x="378" y="597" type="curve" smooth="yes"/>
      <point x="382" y="601"/>
      <point x="385" y="603"/>
      <point x="388" y="603" type="curve" smooth="yes"/>
      <point x="394" y="603"/>
      <point x="397" y="596"/>
      <point x="399" y="590" type="curve" smooth="yes"/>
      <point x="407" y="565"/>
      <point x="419" y="507"/>
      <point x="419" y="464" type="curve" smooth="yes"/>
      <point x="419" y="386"/>
      <point x="397" y="328"/>
      <point x="358" y="283" type="curve" smooth="yes"/>
      <point x="324" y="244"/>
      <point x="288" y="219"/>
      <point x="251" y="197" type="curve" smooth="yes"/>
      <point x="244" y="193"/>
      <point x="242" y="188"/>
      <point x="242" y="183" type="curve" smooth="yes"/>
      <point x="242" y="180"/>
      <point x="243" y="175"/>
      <point x="244" y="171" type="curve" smooth="yes"/>
      <point x="250" y="146"/>
      <point x="258" y="112"/>
      <point x="266" y="101" type="curve" smooth="yes"/>
      <point x="276" y="87"/>
      <point x="289" y="76"/>
      <point x="312" y="76" type="curve" smooth="yes"/>
      <point x="362" y="76"/>
      <point x="448" y="109"/>
      <point x="492" y="147" type="curve" smooth="yes"/>
      <point x="541" y="190"/>
      <point x="570" y="233"/>
      <point x="570" y="314" type="curve" smooth="yes"/>
      <point x="570" y="376"/>
      <point x="560" y="438"/>
      <point x="542" y="485" type="curve" smooth="yes"/>
      <point x="539" y="494"/>
      <point x="536" y="502"/>
      <point x="536" y="509" type="curve" smooth="yes"/>
      <point x="536" y="517"/>
      <point x="540" y="523"/>
      <point x="546" y="531" type="curve" smooth="yes"/>
      <point x="557" y="546"/>
      <point x="582" y="574"/>
      <point x="604" y="597" type="curve" smooth="yes"/>
      <point x="607" y="600"/>
      <point x="612" y="603"/>
      <point x="615" y="603" type="curve" smooth="yes"/>
      <point x="619" y="603"/>
      <point x="623" y="598"/>
      <point x="624" y="594" type="curve" smooth="yes"/>
      <point x="646" y="530"/>
      <point x="655" y="469"/>
      <point x="655" y="410" type="curve" smooth="yes"/>
      <point x="655" y="318"/>
      <point x="613" y="212"/>
      <point x="570" y="151" type="curve" smooth="yes"/>
      <point x="503" y="53"/>
      <point x="397" y="-17"/>
      <point x="281" y="-17" type="curve" smooth="yes"/>
      <point x="201" y="-17"/>
      <point x="184" y="65"/>
    </contour>
  </outline>
</glyph>
<glyph name="quoteleft" format="1">
  <advance width="310"/>
  <unicode hex="2018"/>
  <outline>
    <contour>
      <point x="186" y="420" type="curve" smooth="yes"/>
      <point x="186" y="388"/>
      <point x="195" y="362"/>
      <point x="200" y="348" type="curve" smooth="yes"/>
      <point x="201" y="345"/>
      <point x="202" y="343"/>
      <point x="202" y="340" type="curve" smooth="yes"/>
      <point x="202" y="337"/>
      <point x="201" y="334"/>
      <point x="199" y="331" type="curve" smooth="yes"/>
      <point x="188" y="315"/>
      <point x="161" y="281"/>
      <point x="143" y="260" type="curve" smooth="yes"/>
      <point x="140" y="257"/>
      <point x="137" y="256"/>
      <point x="134" y="256" type="curve" smooth="yes"/>
      <point x="131" y="256"/>
      <point x="128" y="258"/>
      <point x="126" y="261" type="curve" smooth="yes"/>
      <point x="117" y="277"/>
      <point x="94" y="321"/>
      <point x="94" y="363" type="curve" smooth="yes"/>
      <point x="94" y="398"/>
      <point x="105" y="429"/>
      <point x="113" y="448" type="curve" smooth="yes"/>
      <point x="123" y="472"/>
      <point x="207" y="626"/>
      <point x="221" y="626" type="curve" smooth="yes"/>
      <point x="225" y="626"/>
      <point x="231" y="624"/>
      <point x="231" y="619" type="curve" smooth="yes"/>
      <point x="231" y="606"/>
      <point x="186" y="463"/>
    </contour>
  </outline>
</glyph>
<glyph name="quoteright" format="1">
  <advance width="310"/>
  <unicode hex="2019"/>
  <outline>
    <contour>
      <point x="124" y="462" type="curve" smooth="yes"/>
      <point x="124" y="494"/>
      <point x="115" y="520"/>
      <point x="110" y="534" type="curve" smooth="yes"/>
      <point x="109" y="537"/>
      <point x="108" y="539"/>
      <point x="108" y="542" type="curve" smooth="yes"/>
      <point x="108" y="545"/>
      <point x="109" y="548"/>
      <point x="111" y="551" type="curve" smooth="yes"/>
      <point x="122" y="567"/>
      <point x="149" y="601"/>
      <point x="167" y="622" type="curve" smooth="yes"/>
      <point x="170" y="625"/>
      <point x="173" y="626"/>
      <point x="176" y="626" type="curve" smooth="yes"/>
      <point x="179" y="626"/>
      <point x="182" y="624"/>
      <point x="184" y="621" type="curve" smooth="yes"/>
      <point x="193" y="605"/>
      <point x="216" y="561"/>
      <point x="216" y="519" type="curve" smooth="yes"/>
      <point x="216" y="484"/>
      <point x="205" y="453"/>
      <point x="197" y="434" type="curve" smooth="yes"/>
      <point x="187" y="410"/>
      <point x="103" y="256"/>
      <point x="89" y="256" type="curve" smooth="yes"/>
      <point x="85" y="256"/>
      <point x="79" y="258"/>
      <point x="79" y="263" type="curve" smooth="yes"/>
      <point x="79" y="276"/>
      <point x="124" y="419"/>
    </contour>
  </outline>
</glyph>
<glyph name="quotedblleft" format="1">
  <advance width="562"/>
  <unicode hex="201C"/>
  <outline>
    <contour>
      <point x="438" y="420" type="curve" smooth="yes"/>
      <point x="438" y="388"/>
      <point x="447" y="362"/>
      <point x="452" y="348" type="curve" smooth="yes"/>
      <point x="453" y="345"/>
      <point x="454" y="343"/>
      <point x="454" y="340" type="curve" smooth="yes"/>
      <point x="454" y="337"/>
      <point x="453" y="334"/>
      <point x="451" y="331" type="curve" smooth="yes"/>
      <point x="440" y="315"/>
      <point x="413" y="281"/>
      <point x="395" y="260" type="curve" smooth="yes"/>
      <point x="392" y="257"/>
      <point x="389" y="256"/>
      <point x="386" y="256" type="curve" smooth="yes"/>
      <point x="383" y="256"/>
      <point x="380" y="258"/>
      <point x="378" y="261" type="curve" smooth="yes"/>
      <point x="369" y="277"/>
      <point x="346" y="321"/>
      <point x="346" y="363" type="curve" smooth="yes"/>
      <point x="346" y="398"/>
      <point x="357" y="429"/>
      <point x="365" y="448" type="curve" smooth="yes"/>
      <point x="375" y="472"/>
      <point x="459" y="626"/>
      <point x="473" y="626" type="curve" smooth="yes"/>
      <point x="477" y="626"/>
      <point x="483" y="624"/>
      <point x="483" y="619" type="curve" smooth="yes"/>
      <point x="483" y="606"/>
      <point x="438" y="463"/>
    </contour>
    <contour>
      <point x="186" y="420" type="curve" smooth="yes"/>
      <point x="186" y="388"/>
      <point x="195" y="362"/>
      <point x="200" y="348" type="curve" smooth="yes"/>
      <point x="201" y="345"/>
      <point x="202" y="343"/>
      <point x="202" y="340" type="curve" smooth="yes"/>
      <point x="202" y="337"/>
      <point x="201" y="334"/>
      <point x="199" y="331" type="curve" smooth="yes"/>
      <point x="188" y="315"/>
      <point x="161" y="281"/>
      <point x="143" y="260" type="curve" smooth="yes"/>
      <point x="140" y="257"/>
      <point x="137" y="256"/>
      <point x="134" y="256" type="curve" smooth="yes"/>
      <point x="131" y="256"/>
      <point x="128" y="258"/>
      <point x="126" y="261" type="curve" smooth="yes"/>
      <point x="117" y="277"/>
      <point x="94" y="321"/>
      <point x="94" y="363" type="curve" smooth="yes"/>
      <point x="94" y="398"/>
      <point x="105" y="429"/>
      <point x="113" y="448" type="curve" smooth="yes"/>
      <point x="123" y="472"/>
      <point x="207" y="626"/>
      <point x="221" y="626" type="curve" smooth="yes"/>
      <point x="225" y="626"/>
      <point x="231" y="624"/>
      <point x="231" y="619" type="curve" smooth="yes"/>
      <point x="231" y="606"/>
      <point x="186" y="463"/>
    </contour>
  </outline>
</glyph>
<glyph name="quotedblbase" format="1">
  <advance width="562"/>
  <unicode hex="201E"/>
  <outline>
    <contour>
      <point x="139" y="-12" type="curve" smooth="yes"/>
      <point x="139" y="20"/>
      <point x="130" y="46"/>
      <point x="125" y="60" type="curve" smooth="yes"/>
      <point x="124" y="63"/>
      <point x="123" y="65"/>
      <point x="123" y="68" type="curve" smooth="yes"/>
      <point x="123" y="71"/>
      <point x="124" y="74"/>
      <point x="126" y="77" type="curve" smooth="yes"/>
      <point x="137" y="93"/>
      <point x="164" y="127"/>
      <point x="182" y="148" type="curve" smooth="yes"/>
      <point x="185" y="151"/>
      <point x="188" y="152"/>
      <point x="191" y="152" type="curve" smooth="yes"/>
      <point x="194" y="152"/>
      <point x="197" y="150"/>
      <point x="199" y="147" type="curve" smooth="yes"/>
      <point x="208" y="131"/>
      <point x="231" y="87"/>
      <point x="231" y="45" type="curve" smooth="yes"/>
      <point x="231" y="10"/>
      <point x="220" y="-21"/>
      <point x="212" y="-40" type="curve" smooth="yes"/>
      <point x="202" y="-64"/>
      <point x="118" y="-218"/>
      <point x="104" y="-218" type="curve" smooth="yes"/>
      <point x="100" y="-218"/>
      <point x="94" y="-216"/>
      <point x="94" y="-211" type="curve" smooth="yes"/>
      <point x="94" y="-198"/>
      <point x="139" y="-55"/>
    </contour>
    <contour>
      <point x="391" y="-12" type="curve" smooth="yes"/>
      <point x="391" y="20"/>
      <point x="382" y="46"/>
      <point x="377" y="60" type="curve" smooth="yes"/>
      <point x="376" y="63"/>
      <point x="375" y="65"/>
      <point x="375" y="68" type="curve" smooth="yes"/>
      <point x="375" y="71"/>
      <point x="376" y="74"/>
      <point x="378" y="77" type="curve" smooth="yes"/>
      <point x="389" y="93"/>
      <point x="416" y="127"/>
      <point x="434" y="148" type="curve" smooth="yes"/>
      <point x="437" y="151"/>
      <point x="440" y="152"/>
      <point x="443" y="152" type="curve" smooth="yes"/>
      <point x="446" y="152"/>
      <point x="449" y="150"/>
      <point x="451" y="147" type="curve" smooth="yes"/>
      <point x="460" y="131"/>
      <point x="483" y="87"/>
      <point x="483" y="45" type="curve" smooth="yes"/>
      <point x="483" y="10"/>
      <point x="472" y="-21"/>
      <point x="464" y="-40" type="curve" smooth="yes"/>
      <point x="454" y="-64"/>
      <point x="370" y="-218"/>
      <point x="356" y="-218" type="curve" smooth="yes"/>
      <point x="352" y="-218"/>
      <point x="346" y="-216"/>
      <point x="346" y="-211" type="curve" smooth="yes"/>
      <point x="346" y="-198"/>
      <point x="391" y="-55"/>
    </contour>
  </outline>
</glyph>
<glyph name="dagger" format="1">
  <advance width="370"/>
  <unicode hex="2020"/>
  <outline>
    <contour>
      <point x="271" y="413" type="line" smooth="yes"/>
      <point x="281" y="413"/>
      <point x="288" y="416"/>
      <point x="300" y="430" type="curve" smooth="yes"/>
      <point x="312" y="446"/>
      <point x="320" y="458"/>
      <point x="320" y="465" type="curve" smooth="yes"/>
      <point x="320" y="475"/>
      <point x="313" y="478"/>
      <point x="303" y="478" type="curve" smooth="yes"/>
      <point x="222" y="478" type="line"/>
      <point x="216" y="478"/>
      <point x="213" y="480"/>
      <point x="213" y="485" type="curve"/>
      <point x="210" y="528"/>
      <point x="210" y="577"/>
      <point x="208" y="610" type="curve" smooth="yes"/>
      <point x="208" y="616"/>
      <point x="205" y="622"/>
      <point x="197" y="622" type="curve" smooth="yes"/>
      <point x="177" y="622" type="line" smooth="yes"/>
      <point x="168" y="622"/>
      <point x="166" y="615"/>
      <point x="166" y="609" type="curve" smooth="yes"/>
      <point x="165" y="578"/>
      <point x="162" y="529"/>
      <point x="159" y="489" type="curve" smooth="yes"/>
      <point x="159" y="482"/>
      <point x="156" y="478"/>
      <point x="151" y="478" type="curve"/>
      <point x="101" y="478" type="line" smooth="yes"/>
      <point x="93" y="478"/>
      <point x="86" y="474"/>
      <point x="78" y="465" type="curve" smooth="yes"/>
      <point x="62" y="446"/>
      <point x="50" y="432"/>
      <point x="50" y="423" type="curve" smooth="yes"/>
      <point x="50" y="415"/>
      <point x="57" y="413"/>
      <point x="66" y="413" type="curve" smooth="yes"/>
      <point x="145" y="413" type="line"/>
      <point x="153" y="413"/>
      <point x="157" y="409"/>
      <point x="157" y="399" type="curve" smooth="yes"/>
      <point x="160" y="306"/>
      <point x="162" y="223"/>
      <point x="165" y="132" type="curve" smooth="yes"/>
      <point x="165" y="126"/>
      <point x="166" y="120"/>
      <point x="175" y="120" type="curve" smooth="yes"/>
      <point x="195" y="120" type="line" smooth="yes"/>
      <point x="204" y="120"/>
      <point x="207" y="126"/>
      <point x="207" y="132" type="curve" smooth="yes"/>
      <point x="209" y="241"/>
      <point x="212" y="316"/>
      <point x="215" y="400" type="curve" smooth="yes"/>
      <point x="215" y="408"/>
      <point x="219" y="413"/>
      <point x="224" y="413" type="curve"/>
    </contour>
  </outline>
</glyph>
<glyph name="bullet" format="1">
  <advance width="363"/>
  <unicode hex="2022"/>
  <outline>
    <contour>
      <point x="193" y="111" type="curve" smooth="yes"/>
      <point x="164" y="126"/>
      <point x="103" y="174"/>
      <point x="96" y="182" type="curve" smooth="yes"/>
      <point x="95" y="183"/>
      <point x="93" y="186"/>
      <point x="93" y="189" type="curve" smooth="yes"/>
      <point x="93" y="191"/>
      <point x="94" y="194"/>
      <point x="97" y="198" type="curve"/>
      <point x="153" y="277" type="line"/>
      <point x="156" y="281"/>
      <point x="161" y="283"/>
      <point x="165" y="283" type="curve" smooth="yes"/>
      <point x="170" y="283"/>
      <point x="174" y="281"/>
      <point x="177" y="277" type="curve" smooth="yes"/>
      <point x="199" y="251"/>
      <point x="239" y="229"/>
      <point x="260" y="218" type="curve" smooth="yes"/>
      <point x="265" y="216"/>
      <point x="269" y="207"/>
      <point x="269" y="201" type="curve" smooth="yes"/>
      <point x="269" y="199"/>
      <point x="269" y="197"/>
      <point x="268" y="196" type="curve" smooth="yes"/>
      <point x="254" y="175"/>
      <point x="225" y="136"/>
      <point x="213" y="116" type="curve" smooth="yes"/>
      <point x="210" y="112"/>
      <point x="205" y="109"/>
      <point x="200" y="109" type="curve" smooth="yes"/>
      <point x="198" y="109"/>
      <point x="195" y="110"/>
    </contour>
  </outline>
</glyph>
<glyph name="ellipsis" format="1">
  <advance width="922"/>
  <unicode hex="2026"/>
  <outline>
    <contour>
      <point x="397" y="34" type="curve" smooth="yes"/>
      <point x="394" y="38"/>
      <point x="392" y="43"/>
      <point x="392" y="46" type="curve" smooth="yes"/>
      <point x="392" y="49"/>
      <point x="393" y="52"/>
      <point x="395" y="54" type="curve" smooth="yes"/>
      <point x="414" y="73"/>
      <point x="434" y="96"/>
      <point x="444" y="111" type="curve" smooth="yes"/>
      <point x="447" y="115"/>
      <point x="450" y="116"/>
      <point x="453" y="116" type="curve" smooth="yes"/>
      <point x="457" y="116"/>
      <point x="459" y="114"/>
      <point x="462" y="112" type="curve" smooth="yes"/>
      <point x="474" y="104"/>
      <point x="510" y="66"/>
      <point x="520" y="60" type="curve" smooth="yes"/>
      <point x="524" y="57"/>
      <point x="528" y="53"/>
      <point x="528" y="48" type="curve" smooth="yes"/>
      <point x="528" y="44"/>
      <point x="526" y="42"/>
      <point x="523" y="36" type="curve" smooth="yes"/>
      <point x="517" y="24"/>
      <point x="485" y="-13"/>
      <point x="471" y="-22" type="curve" smooth="yes"/>
      <point x="469" y="-23"/>
      <point x="466" y="-24"/>
      <point x="464" y="-24" type="curve" smooth="yes"/>
      <point x="462" y="-24"/>
      <point x="459" y="-23"/>
      <point x="457" y="-22" type="curve" smooth="yes"/>
      <point x="442" y="-13"/>
      <point x="411" y="17"/>
    </contour>
    <contour>
      <point x="655" y="34" type="curve" smooth="yes"/>
      <point x="652" y="38"/>
      <point x="650" y="43"/>
      <point x="650" y="46" type="curve" smooth="yes"/>
      <point x="650" y="49"/>
      <point x="651" y="52"/>
      <point x="653" y="54" type="curve" smooth="yes"/>
      <point x="672" y="73"/>
      <point x="692" y="96"/>
      <point x="702" y="111" type="curve" smooth="yes"/>
      <point x="705" y="115"/>
      <point x="708" y="116"/>
      <point x="711" y="116" type="curve" smooth="yes"/>
      <point x="715" y="116"/>
      <point x="717" y="114"/>
      <point x="720" y="112" type="curve" smooth="yes"/>
      <point x="732" y="104"/>
      <point x="768" y="66"/>
      <point x="778" y="60" type="curve" smooth="yes"/>
      <point x="782" y="57"/>
      <point x="786" y="53"/>
      <point x="786" y="48" type="curve" smooth="yes"/>
      <point x="786" y="44"/>
      <point x="784" y="42"/>
      <point x="781" y="36" type="curve" smooth="yes"/>
      <point x="775" y="24"/>
      <point x="743" y="-13"/>
      <point x="729" y="-22" type="curve" smooth="yes"/>
      <point x="727" y="-23"/>
      <point x="724" y="-24"/>
      <point x="722" y="-24" type="curve" smooth="yes"/>
      <point x="720" y="-24"/>
      <point x="717" y="-23"/>
      <point x="715" y="-22" type="curve" smooth="yes"/>
      <point x="700" y="-13"/>
      <point x="669" y="17"/>
    </contour>
    <contour>
      <point x="141" y="34" type="curve" smooth="yes"/>
      <point x="138" y="38"/>
      <point x="136" y="43"/>
      <point x="136" y="46" type="curve" smooth="yes"/>
      <point x="136" y="49"/>
      <point x="137" y="52"/>
      <point x="139" y="54" type="curve" smooth="yes"/>
      <point x="158" y="73"/>
      <point x="178" y="96"/>
      <point x="188" y="111" type="curve" smooth="yes"/>
      <point x="191" y="115"/>
      <point x="194" y="116"/>
      <point x="197" y="116" type="curve" smooth="yes"/>
      <point x="201" y="116"/>
      <point x="203" y="114"/>
      <point x="206" y="112" type="curve" smooth="yes"/>
      <point x="218" y="104"/>
      <point x="254" y="66"/>
      <point x="264" y="60" type="curve" smooth="yes"/>
      <point x="268" y="57"/>
      <point x="272" y="53"/>
      <point x="272" y="48" type="curve" smooth="yes"/>
      <point x="272" y="44"/>
      <point x="270" y="42"/>
      <point x="267" y="36" type="curve" smooth="yes"/>
      <point x="261" y="24"/>
      <point x="229" y="-13"/>
      <point x="215" y="-22" type="curve" smooth="yes"/>
      <point x="213" y="-23"/>
      <point x="210" y="-24"/>
      <point x="208" y="-24" type="curve" smooth="yes"/>
      <point x="206" y="-24"/>
      <point x="203" y="-23"/>
      <point x="201" y="-22" type="curve" smooth="yes"/>
      <point x="186" y="-13"/>
      <point x="155" y="17"/>
    </contour>
  </outline>
</glyph>
<glyph name="sheqelhebrew" format="1">
  <advance width="852"/>
  <unicode hex="20AA"/>
  <outline>
    <contour>
      <point x="117" y="-20" type="curve" smooth="yes"/>
      <point x="109" y="206"/>
      <point x="103" y="369"/>
      <point x="73" y="462" type="curve" smooth="yes"/>
      <point x="71" y="467"/>
      <point x="70" y="473"/>
      <point x="70" y="477" type="curve" smooth="yes"/>
      <point x="70" y="485"/>
      <point x="73" y="491"/>
      <point x="75" y="496" type="curve" smooth="yes"/>
      <point x="81" y="507"/>
      <point x="129" y="580"/>
      <point x="144" y="597" type="curve" smooth="yes"/>
      <point x="147" y="600"/>
      <point x="153" y="603"/>
      <point x="157" y="603" type="curve" smooth="yes"/>
      <point x="162" y="603"/>
      <point x="169" y="600"/>
      <point x="172" y="592" type="curve" smooth="yes"/>
      <point x="175" y="584"/>
      <point x="177" y="563"/>
      <point x="185" y="559" type="curve" smooth="yes"/>
      <point x="193" y="554"/>
      <point x="211" y="552"/>
      <point x="225" y="552" type="curve" smooth="yes"/>
      <point x="417" y="552" type="line" smooth="yes"/>
      <point x="503" y="552"/>
      <point x="573" y="512"/>
      <point x="573" y="422" type="curve" smooth="yes"/>
      <point x="573" y="366"/>
      <point x="551" y="308"/>
      <point x="519" y="273" type="curve" smooth="yes"/>
      <point x="485" y="235"/>
      <point x="445" y="205"/>
      <point x="408" y="183" type="curve" smooth="yes"/>
      <point x="401" y="179"/>
      <point x="399" y="174"/>
      <point x="399" y="169" type="curve" smooth="yes"/>
      <point x="399" y="166"/>
      <point x="400" y="161"/>
      <point x="401" y="157" type="curve" smooth="yes"/>
      <point x="407" y="132"/>
      <point x="415" y="112"/>
      <point x="423" y="101" type="curve" smooth="yes"/>
      <point x="433" y="87"/>
      <point x="467" y="76"/>
      <point x="490" y="76" type="curve" smooth="yes"/>
      <point x="521" y="76"/>
      <point x="578" y="103"/>
      <point x="623" y="141" type="curve" smooth="yes"/>
      <point x="652" y="166"/>
      <point x="698" y="233"/>
      <point x="698" y="314" type="curve" smooth="yes"/>
      <point x="698" y="376"/>
      <point x="688" y="438"/>
      <point x="670" y="485" type="curve" smooth="yes"/>
      <point x="667" y="494"/>
      <point x="664" y="502"/>
      <point x="664" y="509" type="curve" smooth="yes"/>
      <point x="664" y="517"/>
      <point x="668" y="523"/>
      <point x="674" y="531" type="curve" smooth="yes"/>
      <point x="685" y="546"/>
      <point x="710" y="574"/>
      <point x="732" y="597" type="curve" smooth="yes"/>
      <point x="735" y="600"/>
      <point x="740" y="603"/>
      <point x="743" y="603" type="curve" smooth="yes"/>
      <point x="747" y="603"/>
      <point x="751" y="598"/>
      <point x="752" y="594" type="curve" smooth="yes"/>
      <point x="774" y="530"/>
      <point x="783" y="469"/>
      <point x="783" y="410" type="curve" smooth="yes"/>
      <point x="783" y="318"/>
      <point x="743" y="220"/>
      <point x="698" y="148" type="curve" smooth="yes"/>
      <point x="635" y="47"/>
      <point x="554" y="-17"/>
      <point x="438" y="-17" type="curve" smooth="yes"/>
      <point x="358" y="-17"/>
      <point x="340" y="65"/>
      <point x="321" y="158" type="curve" smooth="yes"/>
      <point x="313" y="197"/>
      <point x="294" y="291"/>
      <point x="265" y="329" type="curve" smooth="yes"/>
      <point x="263" y="332"/>
      <point x="262" y="335"/>
      <point x="262" y="337" type="curve" smooth="yes"/>
      <point x="262" y="340"/>
      <point x="263" y="342"/>
      <point x="265" y="346" type="curve" smooth="yes"/>
      <point x="274" y="361"/>
      <point x="303" y="399"/>
      <point x="319" y="415" type="curve" smooth="yes"/>
      <point x="324" y="420"/>
      <point x="327" y="422"/>
      <point x="331" y="422" type="curve" smooth="yes"/>
      <point x="338" y="422"/>
      <point x="342" y="415"/>
      <point x="344" y="411" type="curve" smooth="yes"/>
      <point x="369" y="358"/>
      <point x="368" y="326"/>
      <point x="376" y="286" type="curve" smooth="yes"/>
      <point x="383" y="250" type="line" smooth="yes"/>
      <point x="384" y="246"/>
      <point x="387" y="243"/>
      <point x="391" y="243" type="curve"/>
      <point x="440" y="243"/>
      <point x="486" y="320"/>
      <point x="486" y="391" type="curve" smooth="yes"/>
      <point x="486" y="425"/>
      <point x="477" y="457"/>
      <point x="389" y="457" type="curve" smooth="yes"/>
      <point x="202" y="457" type="line" smooth="yes"/>
      <point x="184" y="457"/>
      <point x="178" y="445"/>
      <point x="178" y="429" type="curve" smooth="yes"/>
      <point x="178" y="425"/>
      <point x="188" y="286"/>
      <point x="188" y="215" type="curve" smooth="yes"/>
      <point x="188" y="165"/>
      <point x="188" y="128"/>
      <point x="185" y="88" type="curve" smooth="yes"/>
      <point x="184" y="74"/>
      <point x="181" y="62"/>
      <point x="177" y="54" type="curve" smooth="yes"/>
      <point x="165" y="29"/>
      <point x="153" y="4"/>
      <point x="130" y="-22" type="curve" smooth="yes"/>
      <point x="126" y="-26"/>
      <point x="124" y="-26"/>
      <point x="122" y="-26" type="curve" smooth="yes"/>
      <point x="119" y="-26"/>
      <point x="117" y="-23"/>
    </contour>
  </outline>
</glyph>
<glyph name="Euro" format="1">
  <advance width="568"/>
  <unicode hex="20AC"/>
  <outline>
    <contour>
      <point x="364" y="-16" type="curve" smooth="yes"/>
      <point x="391" y="-16"/>
      <point x="434" y="-10"/>
      <point x="459" y="3" type="curve" smooth="yes"/>
      <point x="484" y="16"/>
      <point x="519" y="49"/>
      <point x="545" y="77" type="curve" smooth="yes"/>
      <point x="548" y="81"/>
      <point x="553" y="89"/>
      <point x="553" y="94" type="curve" smooth="yes"/>
      <point x="553" y="98"/>
      <point x="550" y="101"/>
      <point x="546" y="101" type="curve" smooth="yes"/>
      <point x="539" y="101"/>
      <point x="466" y="71"/>
      <point x="414" y="71" type="curve" smooth="yes"/>
      <point x="268" y="71"/>
      <point x="176" y="145"/>
      <point x="176" y="302" type="curve"/>
      <point x="176" y="302"/>
      <point x="332" y="302"/>
      <point x="426" y="304" type="curve" smooth="yes"/>
      <point x="440" y="304"/>
      <point x="472" y="309"/>
      <point x="483" y="314" type="curve" smooth="yes"/>
      <point x="499" y="321"/>
      <point x="512" y="329"/>
      <point x="521" y="335" type="curve" smooth="yes"/>
      <point x="527" y="339"/>
      <point x="535" y="345"/>
      <point x="535" y="348" type="curve" smooth="yes"/>
      <point x="535" y="352"/>
      <point x="532" y="355"/>
      <point x="525" y="355" type="curve" smooth="yes"/>
      <point x="174" y="355" type="line"/>
      <point x="174" y="380"/>
      <point x="175" y="392"/>
      <point x="176" y="403" type="curve" smooth="yes"/>
      <point x="177" y="408"/>
      <point x="180" y="410"/>
      <point x="182" y="410" type="curve" smooth="yes"/>
      <point x="225" y="410"/>
      <point x="372" y="411"/>
      <point x="437" y="413" type="curve" smooth="yes"/>
      <point x="466" y="414"/>
      <point x="470" y="416"/>
      <point x="491" y="425" type="curve" smooth="yes"/>
      <point x="500" y="429"/>
      <point x="516" y="437"/>
      <point x="527" y="444" type="curve" smooth="yes"/>
      <point x="530" y="446"/>
      <point x="540" y="454"/>
      <point x="540" y="457" type="curve" smooth="yes"/>
      <point x="540" y="461"/>
      <point x="537" y="464"/>
      <point x="530" y="464" type="curve" smooth="yes"/>
      <point x="186" y="464" type="line"/>
      <point x="183" y="464"/>
      <point x="183" y="466"/>
      <point x="183" y="468" type="curve" smooth="yes"/>
      <point x="183" y="482"/>
      <point x="200" y="548"/>
      <point x="225" y="578" type="curve" smooth="yes"/>
      <point x="247" y="604"/>
      <point x="282" y="634"/>
      <point x="330" y="634" type="curve" smooth="yes"/>
      <point x="382" y="634"/>
      <point x="431" y="608"/>
      <point x="460" y="593" type="curve" smooth="yes"/>
      <point x="464" y="591"/>
      <point x="472" y="588"/>
      <point x="478" y="588" type="curve" smooth="yes"/>
      <point x="484" y="588"/>
      <point x="492" y="597"/>
      <point x="496" y="602" type="curve" smooth="yes"/>
      <point x="509" y="619"/>
      <point x="519" y="632"/>
      <point x="532" y="654" type="curve" smooth="yes"/>
      <point x="536" y="661"/>
      <point x="540" y="667"/>
      <point x="540" y="672" type="curve" smooth="yes"/>
      <point x="540" y="677"/>
      <point x="536" y="681"/>
      <point x="528" y="684" type="curve" smooth="yes"/>
      <point x="490" y="696"/>
      <point x="453" y="706"/>
      <point x="414" y="706" type="curve" smooth="yes"/>
      <point x="399" y="706"/>
      <point x="356" y="704"/>
      <point x="327" y="693" type="curve" smooth="yes"/>
      <point x="284" y="677"/>
      <point x="221" y="639"/>
      <point x="176" y="608" type="curve" smooth="yes"/>
      <point x="154" y="593"/>
      <point x="139" y="574"/>
      <point x="123" y="550" type="curve" smooth="yes"/>
      <point x="107" y="524"/>
      <point x="97" y="496"/>
      <point x="87" y="466" type="curve" smooth="yes"/>
      <point x="86" y="464"/>
      <point x="84" y="464"/>
      <point x="84" y="464" type="curve"/>
      <point x="84" y="464"/>
      <point x="82" y="464"/>
      <point x="74" y="464" type="curve" smooth="yes"/>
      <point x="60" y="464"/>
      <point x="48" y="463"/>
      <point x="37" y="456" type="curve"/>
      <point x="-2" y="430" type="line"/>
      <point x="-9" y="425"/>
      <point x="-13" y="420"/>
      <point x="-13" y="417" type="curve" smooth="yes"/>
      <point x="-13" y="413"/>
      <point x="-11" y="410"/>
      <point x="-4" y="410" type="curve" smooth="yes"/>
      <point x="76" y="410" type="line"/>
      <point x="72" y="390"/>
      <point x="72" y="373"/>
      <point x="71" y="355" type="curve"/>
      <point x="62" y="355" type="line" smooth="yes"/>
      <point x="51" y="355"/>
      <point x="36" y="352"/>
      <point x="26" y="344" type="curve"/>
      <point x="-1" y="325" type="line" smooth="yes"/>
      <point x="-8" y="319"/>
      <point x="-13" y="313"/>
      <point x="-13" y="309" type="curve" smooth="yes"/>
      <point x="-13" y="305"/>
      <point x="-11" y="302"/>
      <point x="-4" y="302" type="curve" smooth="yes"/>
      <point x="72" y="302" type="line"/>
      <point x="83" y="121"/>
      <point x="179" y="-16"/>
    </contour>
  </outline>
</glyph>
<glyph name="uniFB1E" format="1">
  <advance width="0"/>
  <unicode hex="FB1E"/>
  <outline>
    <contour>
      <point x="151" y="748" type="curve" smooth="yes"/>
      <point x="100" y="748"/>
      <point x="95" y="789"/>
      <point x="95" y="825" type="curve" smooth="yes"/>
      <point x="95" y="837"/>
      <point x="90" y="840"/>
      <point x="81" y="840" type="curve" smooth="yes"/>
      <point x="55" y="840" type="line" smooth="yes"/>
      <point x="46" y="840"/>
      <point x="39" y="837"/>
      <point x="39" y="827" type="curve" smooth="yes"/>
      <point x="41" y="747"/>
      <point x="71" y="697"/>
      <point x="151" y="697" type="curve" smooth="yes"/>
      <point x="233" y="697"/>
      <point x="262" y="751"/>
      <point x="263" y="827" type="curve" smooth="yes"/>
      <point x="263" y="837"/>
      <point x="256" y="840"/>
      <point x="247" y="840" type="curve" smooth="yes"/>
      <point x="221" y="840" type="line" smooth="yes"/>
      <point x="212" y="840"/>
      <point x="207" y="837"/>
      <point x="207" y="825" type="curve" smooth="yes"/>
      <point x="207" y="789"/>
      <point x="202" y="748"/>
    </contour>
  </outline>
</glyph>
<glyph name="four.001" format="1">
  <advance width="500"/>
  <outline>
    <contour>
      <point x="290" y="150" type="curve" smooth="yes"/>
      <point x="290" y="160"/>
      <point x="285" y="164"/>
      <point x="274" y="164" type="curve"/>
      <point x="82" y="164" type="line"/>
      <point x="52" y="164"/>
      <point x="44" y="200"/>
      <point x="44" y="226" type="curve" smooth="yes"/>
      <point x="44" y="281"/>
      <point x="131" y="414"/>
      <point x="147" y="438" type="curve" smooth="yes"/>
      <point x="193" y="507"/>
      <point x="243" y="556"/>
      <point x="321" y="599" type="curve" smooth="yes"/>
      <point x="326" y="601"/>
      <point x="330" y="603"/>
      <point x="334" y="603" type="curve" smooth="yes"/>
      <point x="344" y="603"/>
      <point x="352" y="596"/>
      <point x="353" y="584" type="curve" smooth="yes"/>
      <point x="365" y="485"/>
      <point x="366" y="285"/>
      <point x="366" y="264" type="curve" smooth="yes"/>
      <point x="367" y="255"/>
      <point x="371" y="255"/>
      <point x="377" y="255" type="curve"/>
      <point x="461" y="255" type="line"/>
      <point x="469" y="254"/>
      <point x="471" y="251"/>
      <point x="471" y="246" type="curve" smooth="yes"/>
      <point x="471" y="242"/>
      <point x="468" y="236"/>
      <point x="465" y="230" type="curve" smooth="yes"/>
      <point x="460" y="220"/>
      <point x="446" y="193"/>
      <point x="435" y="178" type="curve" smooth="yes"/>
      <point x="431" y="173"/>
      <point x="424" y="165"/>
      <point x="414" y="165" type="curve" smooth="yes"/>
      <point x="379" y="165" type="line"/>
      <point x="371" y="165"/>
      <point x="368" y="161"/>
      <point x="368" y="154" type="curve" smooth="yes"/>
      <point x="368" y="145"/>
      <point x="369" y="110"/>
      <point x="369" y="76" type="curve"/>
      <point x="369" y="69"/>
      <point x="368" y="63"/>
      <point x="365" y="55" type="curve" smooth="yes"/>
      <point x="357" y="39"/>
      <point x="332" y="-2"/>
      <point x="314" y="-21" type="curve" smooth="yes"/>
      <point x="312" y="-23"/>
      <point x="305" y="-25"/>
      <point x="303" y="-25" type="curve" smooth="yes"/>
      <point x="298" y="-25"/>
      <point x="294" y="-21"/>
      <point x="294" y="-11" type="curve" smooth="yes"/>
      <point x="294" y="48"/>
      <point x="290" y="138"/>
    </contour>
    <contour>
      <point x="276" y="463" type="curve" smooth="yes"/>
      <point x="275" y="470"/>
      <point x="272" y="473"/>
      <point x="266" y="473" type="curve" smooth="yes"/>
      <point x="264" y="473"/>
      <point x="260" y="472"/>
      <point x="256" y="470" type="curve" smooth="yes"/>
      <point x="229" y="454"/>
      <point x="212" y="437"/>
      <point x="199" y="420" type="curve" smooth="yes"/>
      <point x="159" y="370"/>
      <point x="119" y="303"/>
      <point x="119" y="274" type="curve" smooth="yes"/>
      <point x="119" y="256"/>
      <point x="125" y="253"/>
      <point x="136" y="253" type="curve"/>
      <point x="280" y="253" type="line"/>
      <point x="283" y="253"/>
      <point x="287" y="260"/>
      <point x="287" y="265" type="curve" smooth="yes"/>
      <point x="286" y="295"/>
      <point x="286" y="389"/>
    </contour>
  </outline>
</glyph>
<glyph name="one.001" format="1">
  <advance width="500"/>
  <outline>
    <contour>
      <point x="50" y="14" type="curve" smooth="yes"/>
      <point x="63" y="37"/>
      <point x="82" y="66"/>
      <point x="94" y="83" type="curve" smooth="yes"/>
      <point x="98" y="90"/>
      <point x="103" y="94"/>
      <point x="118" y="94" type="curve" smooth="yes"/>
      <point x="186" y="94" type="line" smooth="yes"/>
      <point x="203" y="94"/>
      <point x="217" y="107"/>
      <point x="217" y="131" type="curve" smooth="yes"/>
      <point x="217" y="149"/>
      <point x="218" y="168"/>
      <point x="218" y="189" type="curve" smooth="yes"/>
      <point x="218" y="271"/>
      <point x="217" y="341"/>
      <point x="210" y="410" type="curve" smooth="yes"/>
      <point x="206" y="451"/>
      <point x="193" y="475"/>
      <point x="160" y="475" type="curve" smooth="yes"/>
      <point x="124" y="475" type="line"/>
      <point x="116" y="475"/>
      <point x="100" y="476"/>
      <point x="100" y="488" type="curve" smooth="yes"/>
      <point x="100" y="491"/>
      <point x="101" y="495"/>
      <point x="106" y="500" type="curve" smooth="yes"/>
      <point x="136" y="528"/>
      <point x="210" y="575"/>
      <point x="258" y="600" type="curve" smooth="yes"/>
      <point x="262" y="602"/>
      <point x="266" y="603"/>
      <point x="271" y="603" type="curve" smooth="yes"/>
      <point x="281" y="603"/>
      <point x="288" y="598"/>
      <point x="290" y="585" type="curve" smooth="yes"/>
      <point x="296" y="538"/>
      <point x="299" y="426"/>
      <point x="299" y="423" type="curve" smooth="yes"/>
      <point x="299" y="386"/>
      <point x="304" y="162"/>
      <point x="304" y="122" type="curve" smooth="yes"/>
      <point x="304" y="104"/>
      <point x="309" y="94"/>
      <point x="329" y="94" type="curve" smooth="yes"/>
      <point x="440" y="94" type="line"/>
      <point x="444" y="94"/>
      <point x="449" y="90"/>
      <point x="449" y="85" type="curve" smooth="yes"/>
      <point x="449" y="82"/>
      <point x="448" y="80"/>
      <point x="446" y="77" type="curve" smooth="yes"/>
      <point x="434" y="57"/>
      <point x="409" y="32"/>
      <point x="392" y="10" type="curve" smooth="yes"/>
      <point x="382" y="0"/>
      <point x="378" y="0"/>
      <point x="366" y="0" type="curve" smooth="yes"/>
      <point x="67" y="0" type="line"/>
      <point x="58" y="0"/>
      <point x="48" y="0"/>
      <point x="48" y="6" type="curve" smooth="yes"/>
      <point x="48" y="8"/>
      <point x="49" y="10"/>
    </contour>
  </outline>
</glyph>
<glyph name="shekel.salt" format="1">
  <advance width="567"/>
  <outline>
    <contour>
      <point x="28" y="331" type="curve" smooth="yes"/>
      <point x="37" y="353"/>
      <point x="61" y="394"/>
      <point x="69" y="404" type="curve" smooth="yes"/>
      <point x="73" y="409"/>
      <point x="77" y="414"/>
      <point x="80" y="414" type="curve" smooth="yes"/>
      <point x="84" y="414"/>
      <point x="86" y="412"/>
      <point x="88" y="408" type="curve" smooth="yes"/>
      <point x="103" y="372"/>
      <point x="113" y="333"/>
      <point x="119" y="306" type="curve" smooth="yes"/>
      <point x="121" y="296"/>
      <point x="131" y="292"/>
      <point x="149" y="292" type="curve" smooth="yes"/>
      <point x="192" y="292"/>
      <point x="242" y="305"/>
      <point x="283" y="330" type="curve" smooth="yes"/>
      <point x="304" y="342"/>
      <point x="315" y="377"/>
      <point x="315" y="392" type="curve"/>
      <point x="315" y="414"/>
      <point x="307" y="431"/>
      <point x="292" y="444" type="curve" smooth="yes"/>
      <point x="277" y="454"/>
      <point x="264" y="460"/>
      <point x="238" y="460" type="curve"/>
      <point x="81" y="460"/>
      <point x="58" y="461"/>
      <point x="55" y="461" type="curve" smooth="yes"/>
      <point x="40" y="461"/>
      <point x="27" y="466"/>
      <point x="15" y="479" type="curve" smooth="yes"/>
      <point x="2" y="492"/>
      <point x="-4" y="508"/>
      <point x="-4" y="528" type="curve"/>
      <point x="-4" y="575"/>
      <point x="20" y="625"/>
      <point x="78" y="682" type="curve" smooth="yes"/>
      <point x="104" y="707"/>
      <point x="143" y="729"/>
      <point x="187" y="744" type="curve" smooth="yes"/>
      <point x="200" y="748"/>
      <point x="221" y="753"/>
      <point x="259" y="760" type="curve" smooth="yes"/>
      <point x="298" y="768"/>
      <point x="331" y="773"/>
      <point x="340" y="773" type="curve" smooth="yes"/>
      <point x="346" y="773"/>
      <point x="349" y="770"/>
      <point x="349" y="764" type="curve" smooth="yes"/>
      <point x="349" y="761"/>
      <point x="347" y="757"/>
      <point x="345" y="752" type="curve" smooth="yes"/>
      <point x="335" y="728"/>
      <point x="323" y="710"/>
      <point x="305" y="688" type="curve" smooth="yes"/>
      <point x="294" y="675"/>
      <point x="288" y="671"/>
      <point x="276" y="671" type="curve" smooth="yes"/>
      <point x="237" y="671"/>
      <point x="187" y="667"/>
      <point x="146" y="657" type="curve" smooth="yes"/>
      <point x="98" y="646"/>
      <point x="73" y="618"/>
      <point x="73" y="580" type="curve" smooth="yes"/>
      <point x="73" y="564"/>
      <point x="87" y="554"/>
      <point x="108" y="554" type="curve"/>
      <point x="287" y="554" type="line" smooth="yes"/>
      <point x="313" y="554"/>
      <point x="338" y="547"/>
      <point x="356" y="529" type="curve" smooth="yes"/>
      <point x="374" y="511"/>
      <point x="386" y="483"/>
      <point x="386" y="455" type="curve" smooth="yes"/>
      <point x="386" y="413"/>
      <point x="374" y="377"/>
      <point x="353" y="341" type="curve" smooth="yes"/>
      <point x="330" y="301"/>
      <point x="293" y="266"/>
      <point x="253" y="239" type="curve" smooth="yes"/>
      <point x="225" y="220"/>
      <point x="179" y="202"/>
      <point x="143" y="202" type="curve" smooth="yes"/>
      <point x="135" y="202"/>
      <point x="129" y="196"/>
      <point x="129" y="190" type="curve"/>
      <point x="138" y="125" type="line" smooth="yes"/>
      <point x="142" y="95"/>
      <point x="163" y="77"/>
      <point x="196" y="77" type="curve" smooth="yes"/>
      <point x="231" y="77"/>
      <point x="266" y="81"/>
      <point x="302" y="95" type="curve" smooth="yes"/>
      <point x="337" y="109"/>
      <point x="379" y="139"/>
      <point x="415" y="173" type="curve" smooth="yes"/>
      <point x="466" y="220"/>
      <point x="482" y="285"/>
      <point x="482" y="355" type="curve" smooth="yes"/>
      <point x="482" y="366"/>
      <point x="481" y="383"/>
      <point x="479" y="405" type="curve" smooth="yes"/>
      <point x="477" y="427"/>
      <point x="476" y="443"/>
      <point x="476" y="454" type="curve" smooth="yes"/>
      <point x="476" y="460"/>
      <point x="480" y="472"/>
      <point x="488" y="490" type="curve" smooth="yes"/>
      <point x="493" y="501"/>
      <point x="505" y="526"/>
      <point x="528" y="563" type="curve" smooth="yes"/>
      <point x="533" y="571"/>
      <point x="536" y="574"/>
      <point x="541" y="574" type="curve" smooth="yes"/>
      <point x="544" y="574"/>
      <point x="547" y="572"/>
      <point x="551" y="567" type="curve" smooth="yes"/>
      <point x="567" y="543"/>
      <point x="574" y="507"/>
      <point x="574" y="459" type="curve" smooth="yes"/>
      <point x="574" y="420"/>
      <point x="564" y="372"/>
      <point x="549" y="315" type="curve" smooth="yes"/>
      <point x="529" y="241"/>
      <point x="486" y="174"/>
      <point x="441" y="119" type="curve" smooth="yes"/>
      <point x="403" y="72"/>
      <point x="357" y="35"/>
      <point x="326" y="18" type="curve" smooth="yes"/>
      <point x="271" y="-11"/>
      <point x="223" y="-20"/>
      <point x="171" y="-20" type="curve" smooth="yes"/>
      <point x="130" y="-20"/>
      <point x="101" y="-5"/>
      <point x="84" y="25" type="curve" smooth="yes"/>
      <point x="73" y="43"/>
      <point x="69" y="72"/>
      <point x="67" y="112" type="curve" smooth="yes"/>
      <point x="65" y="143"/>
      <point x="60" y="174"/>
      <point x="54" y="204" type="curve" smooth="yes"/>
      <point x="47" y="237"/>
      <point x="39" y="264"/>
      <point x="30" y="279" type="curve" smooth="yes"/>
      <point x="23" y="291"/>
      <point x="20" y="298"/>
      <point x="20" y="305" type="curve" smooth="yes"/>
      <point x="20" y="314"/>
      <point x="24" y="321"/>
    </contour>
  </outline>
</glyph>
